MFile 1 2 256
MTrk
0 TimeSig 4/4 24 8
0 Tempo 1500000
114144 Tempo 857142
114240 Tempo 375000
114496 Tempo 857142
114496 Tempo 857142
114496 Tempo 1000000
114560 Tempo 500000
147717 Meta TrkEnd
TrkEnd
MTrk
1024 On ch=2 n=69 v=94
1088 Off ch=2 n=69 v=0
1088 On ch=2 n=67 v=95
1152 Off ch=2 n=67 v=0
1152 On ch=2 n=69 v=106
1216 Off ch=2 n=69 v=0
1216 On ch=2 n=65 v=86
1280 Off ch=2 n=65 v=0
1280 On ch=2 n=69 v=105
1344 Off ch=2 n=69 v=0
1344 On ch=2 n=64 v=86
1408 Off ch=2 n=64 v=0
1408 On ch=2 n=69 v=109
1472 Off ch=2 n=69 v=0
1472 On ch=2 n=62 v=80
1536 Off ch=2 n=62 v=0
1536 On ch=2 n=69 v=113
1600 Off ch=2 n=69 v=0
1600 On ch=2 n=61 v=80
1664 Off ch=2 n=61 v=0
1664 On ch=2 n=69 v=108
1728 Off ch=2 n=69 v=0
1728 On ch=2 n=62 v=82
1792 Off ch=2 n=62 v=0
1792 On ch=2 n=69 v=109
1856 Off ch=2 n=69 v=0
1856 On ch=2 n=64 v=88
1920 Off ch=2 n=64 v=0
1920 On ch=2 n=69 v=104
1984 Off ch=2 n=69 v=0
1984 On ch=2 n=65 v=90
2048 Off ch=2 n=65 v=0
2048 On ch=2 n=69 v=109
2112 Off ch=2 n=69 v=0
2112 On ch=2 n=57 v=81
2176 Off ch=2 n=57 v=0
2176 On ch=2 n=69 v=121
2240 Off ch=2 n=69 v=0
2240 On ch=2 n=59 v=90
2304 Off ch=2 n=59 v=0
2304 On ch=2 n=69 v=122
2368 Off ch=2 n=69 v=0
2368 On ch=2 n=61 v=82
2432 Off ch=2 n=61 v=0
2432 On ch=2 n=69 v=113
2496 Off ch=2 n=69 v=0
2496 On ch=2 n=62 v=83
2560 Off ch=2 n=62 v=0
2560 On ch=2 n=69 v=116
2624 Off ch=2 n=69 v=0
2624 On ch=2 n=61 v=79
2688 Off ch=2 n=61 v=0
2688 On ch=2 n=69 v=111
2752 Off ch=2 n=69 v=0
2752 On ch=2 n=62 v=86
2816 Off ch=2 n=62 v=0
2816 On ch=2 n=69 v=115
2880 Off ch=2 n=69 v=0
2880 On ch=2 n=64 v=86
2944 Off ch=2 n=64 v=0
2944 On ch=2 n=69 v=105
3008 Off ch=2 n=69 v=0
3008 On ch=2 n=65 v=89
3072 On ch=2 n=74 v=91
3136 Off ch=2 n=65 v=0
3136 Off ch=2 n=74 v=0
3136 On ch=2 n=66 v=101
3136 On ch=2 n=72 v=86
3200 Off ch=2 n=72 v=0
3200 On ch=2 n=74 v=105
3264 Off ch=2 n=66 v=0
3264 Off ch=2 n=74 v=0
3264 On ch=2 n=67 v=99
3264 On ch=2 n=70 v=86
3328 Off ch=2 n=70 v=0
3328 On ch=2 n=74 v=107
3392 Off ch=2 n=67 v=0
3392 Off ch=2 n=74 v=0
3392 On ch=2 n=60 v=77
3392 On ch=2 n=69 v=85
3456 Off ch=2 n=69 v=0
3456 On ch=2 n=74 v=112
3520 Off ch=2 n=60 v=0
3520 Off ch=2 n=74 v=0
3520 On ch=2 n=58 v=90
3520 On ch=2 n=67 v=81
3584 Off ch=2 n=67 v=0
3584 On ch=2 n=74 v=110
3648 Off ch=2 n=58 v=0
3648 Off ch=2 n=74 v=0
3648 On ch=2 n=57 v=93
3648 On ch=2 n=66 v=80
3712 Off ch=2 n=66 v=0
3712 On ch=2 n=74 v=112
3776 Off ch=2 n=57 v=0
3776 Off ch=2 n=74 v=0
3776 On ch=2 n=58 v=98
3776 On ch=2 n=67 v=81
3840 Off ch=2 n=67 v=0
3840 On ch=2 n=74 v=111
3904 Off ch=2 n=58 v=0
3904 Off ch=2 n=74 v=0
3904 On ch=2 n=60 v=103
3904 On ch=2 n=69 v=83
3968 Off ch=2 n=69 v=0
3968 On ch=2 n=74 v=107
4032 Off ch=2 n=60 v=0
4032 Off ch=2 n=74 v=0
4032 On ch=2 n=62 v=108
4032 On ch=2 n=70 v=92
4096 Off ch=2 n=70 v=0
4096 On ch=2 n=74 v=104
4160 Off ch=2 n=62 v=0
4160 Off ch=2 n=74 v=0
4160 On ch=2 n=54 v=93
4160 On ch=2 n=62 v=72
4224 Off ch=2 n=62 v=0
4224 On ch=2 n=74 v=117
4288 Off ch=2 n=54 v=0
4288 Off ch=2 n=74 v=0
4288 On ch=2 n=55 v=97
4288 On ch=2 n=64 v=78
4352 Off ch=2 n=64 v=0
4352 On ch=2 n=74 v=123
4416 Off ch=2 n=55 v=0
4416 Off ch=2 n=74 v=0
4416 On ch=2 n=57 v=98
4416 On ch=2 n=66 v=84
4480 Off ch=2 n=66 v=0
4480 On ch=2 n=74 v=115
4544 Off ch=2 n=57 v=0
4544 Off ch=2 n=74 v=0
4544 On ch=2 n=58 v=98
4544 On ch=2 n=67 v=79
4608 Off ch=2 n=67 v=0
4608 On ch=2 n=74 v=112
4672 Off ch=2 n=58 v=0
4672 Off ch=2 n=74 v=0
4672 On ch=2 n=57 v=93
4672 On ch=2 n=66 v=78
4736 Off ch=2 n=66 v=0
4736 On ch=2 n=74 v=114
4800 Off ch=2 n=57 v=0
4800 Off ch=2 n=74 v=0
4800 On ch=2 n=58 v=99
4800 On ch=2 n=67 v=82
4864 Off ch=2 n=67 v=0
4864 On ch=2 n=74 v=115
4928 Off ch=2 n=58 v=0
4928 Off ch=2 n=74 v=0
4928 On ch=2 n=54 v=95
4928 On ch=2 n=69 v=87
4992 Off ch=2 n=69 v=0
4992 On ch=2 n=74 v=106
5056 Off ch=2 n=54 v=0
5056 Off ch=2 n=74 v=0
5056 On ch=2 n=55 v=98
5056 On ch=2 n=70 v=91
5120 Off ch=2 n=55 v=0
5120 On ch=2 n=67 v=125
5184 Off ch=2 n=70 v=0
5184 Off ch=2 n=67 v=0
5184 On ch=2 n=55 v=89
5184 On ch=2 n=74 v=104
5248 Off ch=2 n=55 v=0
5248 On ch=2 n=67 v=124
5312 Off ch=2 n=74 v=0
5312 Off ch=2 n=67 v=0
5312 On ch=2 n=62 v=91
5312 On ch=2 n=70 v=91
5376 Off ch=2 n=62 v=0
5376 On ch=2 n=67 v=108
5440 Off ch=2 n=70 v=0
5440 Off ch=2 n=67 v=0
5440 On ch=2 n=62 v=84
5440 On ch=2 n=74 v=103
5504 Off ch=2 n=62 v=0
5504 On ch=2 n=67 v=114
5568 Off ch=2 n=74 v=0
5568 Off ch=2 n=67 v=0
5568 On ch=2 n=60 v=74
5568 On ch=2 n=75 v=103
5632 Off ch=2 n=60 v=0
5632 On ch=2 n=63 v=103
5696 Off ch=2 n=75 v=0
5696 Off ch=2 n=63 v=0
5696 On ch=2 n=60 v=89
5696 On ch=2 n=67 v=79
5760 Off ch=2 n=60 v=0
5760 On ch=2 n=63 v=105
5824 Off ch=2 n=67 v=0
5824 Off ch=2 n=63 v=0
5824 On ch=2 n=60 v=91
5824 On ch=2 n=75 v=112
5888 Off ch=2 n=60 v=0
5888 On ch=2 n=63 v=106
5952 Off ch=2 n=75 v=0
5952 Off ch=2 n=63 v=0
5952 On ch=2 n=60 v=84
5952 On ch=2 n=67 v=77
6016 Off ch=2 n=60 v=0
6016 On ch=2 n=63 v=107
6080 Off ch=2 n=67 v=0
6080 Off ch=2 n=63 v=0
6080 On ch=2 n=60 v=93
6080 On ch=2 n=72 v=104
6144 Off ch=2 n=60 v=0
6144 On ch=2 n=65 v=115
6208 Off ch=2 n=72 v=0
6208 Off ch=2 n=65 v=0
6208 On ch=2 n=60 v=90
6208 On ch=2 n=69 v=91
6272 Off ch=2 n=60 v=0
6272 On ch=2 n=65 v=106
6336 Off ch=2 n=69 v=0
6336 Off ch=2 n=65 v=0
6336 On ch=2 n=60 v=86
6336 On ch=2 n=72 v=104
6400 Off ch=2 n=60 v=0
6400 On ch=2 n=65 v=111
6464 Off ch=2 n=72 v=0
6464 Off ch=2 n=65 v=0
6464 On ch=2 n=60 v=86
6464 On ch=2 n=69 v=87
6528 Off ch=2 n=60 v=0
6528 On ch=2 n=65 v=108
6592 Off ch=2 n=69 v=0
6592 Off ch=2 n=65 v=0
6592 On ch=2 n=58 v=89
6592 On ch=2 n=74 v=108
6656 Off ch=2 n=58 v=0
6656 On ch=2 n=62 v=106
6720 Off ch=2 n=74 v=0
6720 Off ch=2 n=62 v=0
6720 On ch=2 n=58 v=93
6720 On ch=2 n=65 v=78
6784 Off ch=2 n=58 v=0
6784 On ch=2 n=62 v=106
6848 Off ch=2 n=65 v=0
6848 Off ch=2 n=62 v=0
6848 On ch=2 n=58 v=92
6848 On ch=2 n=74 v=114
6912 Off ch=2 n=58 v=0
6912 On ch=2 n=62 v=106
6976 Off ch=2 n=74 v=0
6976 Off ch=2 n=62 v=0
6976 On ch=2 n=58 v=96
6976 On ch=2 n=65 v=78
7040 Off ch=2 n=58 v=0
7040 On ch=2 n=62 v=105
7104 Off ch=2 n=65 v=0
7104 Off ch=2 n=62 v=0
7104 On ch=2 n=58 v=98
7104 On ch=2 n=70 v=103
7168 Off ch=2 n=58 v=0
7168 On ch=2 n=64 v=111
7232 Off ch=2 n=70 v=0
7232 Off ch=2 n=64 v=0
7232 On ch=2 n=58 v=91
7232 On ch=2 n=67 v=91
7296 Off ch=2 n=58 v=0
7296 On ch=2 n=64 v=111
7360 Off ch=2 n=67 v=0
7360 Off ch=2 n=64 v=0
7360 On ch=2 n=58 v=95
7360 On ch=2 n=70 v=109
7424 Off ch=2 n=58 v=0
7424 On ch=2 n=64 v=112
7488 Off ch=2 n=70 v=0
7488 Off ch=2 n=64 v=0
7488 On ch=2 n=58 v=90
7488 On ch=2 n=67 v=92
7552 Off ch=2 n=58 v=0
7552 On ch=2 n=64 v=114
7616 Off ch=2 n=67 v=0
7616 Off ch=2 n=64 v=0
7616 On ch=2 n=57 v=93
7616 On ch=2 n=73 v=109
7680 Off ch=2 n=57 v=0
7680 On ch=2 n=61 v=105
7744 Off ch=2 n=73 v=0
7744 Off ch=2 n=61 v=0
7744 On ch=2 n=57 v=99
7744 On ch=2 n=64 v=81
7808 Off ch=2 n=57 v=0
7808 On ch=2 n=61 v=106
7872 Off ch=2 n=64 v=0
7872 Off ch=2 n=61 v=0
7872 On ch=2 n=57 v=92
7872 On ch=2 n=73 v=114
7936 Off ch=2 n=57 v=0
7936 On ch=2 n=61 v=114
8000 Off ch=2 n=73 v=0
8000 Off ch=2 n=61 v=0
8000 On ch=2 n=57 v=94
8000 On ch=2 n=64 v=75
8064 Off ch=2 n=57 v=0
8064 On ch=2 n=61 v=107
8128 Off ch=2 n=64 v=0
8128 Off ch=2 n=61 v=0
8128 On ch=2 n=53 v=89
8128 On ch=2 n=69 v=110
8192 Off ch=2 n=53 v=0
8192 On ch=2 n=62 v=117
8256 Off ch=2 n=69 v=0
8256 Off ch=2 n=62 v=0
8256 On ch=2 n=53 v=88
8256 On ch=2 n=65 v=90
8320 Off ch=2 n=53 v=0
8320 On ch=2 n=62 v=122
8384 Off ch=2 n=65 v=0
8384 Off ch=2 n=62 v=0
8384 On ch=2 n=53 v=94
8384 On ch=2 n=69 v=106
8448 Off ch=2 n=53 v=0
8448 On ch=2 n=62 v=120
8512 Off ch=2 n=69 v=0
8512 Off ch=2 n=62 v=0
8512 On ch=2 n=53 v=90
8512 On ch=2 n=65 v=92
8576 Off ch=2 n=53 v=0
8576 On ch=2 n=62 v=114
8640 Off ch=2 n=65 v=0
8640 Off ch=2 n=62 v=0
8640 On ch=2 n=52 v=91
8640 On ch=2 n=67 v=100
8704 Off ch=2 n=52 v=0
8704 On ch=2 n=58 v=105
8768 Off ch=2 n=67 v=0
8768 Off ch=2 n=58 v=0
8768 On ch=2 n=52 v=86
8768 On ch=2 n=61 v=78
8832 Off ch=2 n=52 v=0
8832 On ch=2 n=58 v=103
8896 Off ch=2 n=61 v=0
8896 Off ch=2 n=58 v=0
8896 On ch=2 n=52 v=92
8896 On ch=2 n=67 v=113
8960 Off ch=2 n=52 v=0
8960 On ch=2 n=58 v=107
9024 Off ch=2 n=67 v=0
9024 Off ch=2 n=58 v=0
9024 On ch=2 n=52 v=89
9024 On ch=2 n=61 v=87
9088 Off ch=2 n=52 v=0
9088 On ch=2 n=58 v=103
9152 Off ch=2 n=61 v=0
9152 Off ch=2 n=58 v=0
9152 On ch=2 n=50 v=86
9152 On ch=2 n=65 v=107
9216 Off ch=2 n=50 v=0
9216 On ch=2 n=57 v=104
9280 Off ch=2 n=65 v=0
9280 Off ch=2 n=57 v=0
9280 On ch=2 n=50 v=92
9280 On ch=2 n=62 v=91
9344 Off ch=2 n=50 v=0
9344 On ch=2 n=57 v=99
9408 Off ch=2 n=62 v=0
9408 Off ch=2 n=57 v=0
9408 On ch=2 n=50 v=92
9408 On ch=2 n=65 v=102
9472 Off ch=2 n=50 v=0
9472 On ch=2 n=57 v=105
9536 Off ch=2 n=65 v=0
9536 Off ch=2 n=57 v=0
9536 On ch=2 n=50 v=89
9536 On ch=2 n=62 v=90
9600 Off ch=2 n=50 v=0
9600 On ch=2 n=57 v=101
9664 Off ch=2 n=62 v=0
9664 Off ch=2 n=57 v=0
9664 On ch=2 n=52 v=88
9664 On ch=2 n=64 v=74
9728 Off ch=2 n=52 v=0
9728 Off ch=2 n=64 v=0
9728 On ch=2 n=55 v=100
9792 Off ch=2 n=55 v=0
9792 On ch=2 n=52 v=94
9792 On ch=2 n=58 v=74
9856 Off ch=2 n=52 v=0
9856 Off ch=2 n=58 v=0
9856 On ch=2 n=55 v=102
9920 Off ch=2 n=55 v=0
9920 On ch=2 n=52 v=97
9920 On ch=2 n=64 v=96
9984 Off ch=2 n=52 v=0
9984 Off ch=2 n=64 v=0
9984 On ch=2 n=55 v=101
10048 Off ch=2 n=55 v=0
10048 On ch=2 n=52 v=93
10048 On ch=2 n=58 v=75
10112 Off ch=2 n=52 v=0
10112 Off ch=2 n=58 v=0
10112 On ch=2 n=55 v=101
10176 Off ch=2 n=55 v=0
10176 On ch=2 n=53 v=97
10176 On ch=2 n=57 v=86
10240 On ch=2 n=81 v=85
10304 Off ch=2 n=53 v=0
10304 Off ch=2 n=57 v=0
10304 Off ch=2 n=81 v=0
10304 On ch=2 n=52 v=98
10304 On ch=2 n=57 v=92
10304 On ch=2 n=79 v=93
10368 Off ch=2 n=79 v=0
10368 On ch=2 n=81 v=101
10432 Off ch=2 n=52 v=0
10432 Off ch=2 n=57 v=0
10432 Off ch=2 n=81 v=0
10432 On ch=2 n=50 v=91
10432 On ch=2 n=57 v=95
10432 On ch=2 n=77 v=88
10496 Off ch=2 n=77 v=0
10496 On ch=2 n=81 v=105
10560 Off ch=2 n=50 v=0
10560 Off ch=2 n=57 v=0
10560 Off ch=2 n=81 v=0
10560 On ch=2 n=55 v=104
10560 On ch=2 n=57 v=97
10560 On ch=2 n=76 v=85
10624 Off ch=2 n=76 v=0
10624 On ch=2 n=81 v=108
10688 Off ch=2 n=55 v=0
10688 Off ch=2 n=57 v=0
10688 Off ch=2 n=81 v=0
10688 On ch=2 n=53 v=94
10688 On ch=2 n=57 v=95
10688 On ch=2 n=74 v=83
10752 Off ch=2 n=74 v=0
10752 On ch=2 n=81 v=116
10816 Off ch=2 n=53 v=0
10816 Off ch=2 n=57 v=0
10816 Off ch=2 n=81 v=0
10816 On ch=2 n=52 v=90
10816 On ch=2 n=57 v=97
10816 On ch=2 n=73 v=81
10880 Off ch=2 n=73 v=0
10880 On ch=2 n=81 v=114
10944 Off ch=2 n=52 v=0
10944 Off ch=2 n=57 v=0
10944 Off ch=2 n=81 v=0
10944 On ch=2 n=53 v=102
10944 On ch=2 n=57 v=97
10944 On ch=2 n=74 v=81
11008 Off ch=2 n=74 v=0
11008 On ch=2 n=81 v=114
11072 Off ch=2 n=53 v=0
11072 Off ch=2 n=57 v=0
11072 Off ch=2 n=81 v=0
11072 On ch=2 n=49 v=92
11072 On ch=2 n=57 v=99
11072 On ch=2 n=76 v=88
11136 Off ch=2 n=76 v=0
11136 On ch=2 n=81 v=104
11200 Off ch=2 n=49 v=0
11200 Off ch=2 n=57 v=0
11200 Off ch=2 n=81 v=0
11200 On ch=2 n=50 v=95
11200 On ch=2 n=57 v=96
11200 On ch=2 n=77 v=92
11264 Off ch=2 n=77 v=0
11264 On ch=2 n=81 v=105
11328 Off ch=2 n=50 v=0
11328 Off ch=2 n=57 v=0
11328 Off ch=2 n=81 v=0
11328 On ch=2 n=49 v=93
11328 On ch=2 n=57 v=99
11328 On ch=2 n=69 v=68
11392 Off ch=2 n=69 v=0
11392 On ch=2 n=81 v=118
11456 Off ch=2 n=49 v=0
11456 Off ch=2 n=57 v=0
11456 Off ch=2 n=81 v=0
11456 On ch=2 n=50 v=99
11456 On ch=2 n=57 v=93
11456 On ch=2 n=71 v=75
11520 Off ch=2 n=71 v=0
11520 On ch=2 n=81 v=117
11584 Off ch=2 n=50 v=0
11584 Off ch=2 n=57 v=0
11584 Off ch=2 n=81 v=0
11584 On ch=2 n=52 v=96
11584 On ch=2 n=57 v=99
11584 On ch=2 n=73 v=82
11648 Off ch=2 n=73 v=0
11648 On ch=2 n=81 v=111
11712 Off ch=2 n=52 v=0
11712 Off ch=2 n=57 v=0
11712 Off ch=2 n=81 v=0
11712 On ch=2 n=53 v=95
11712 On ch=2 n=57 v=101
11712 On ch=2 n=74 v=82
11776 Off ch=2 n=74 v=0
11776 On ch=2 n=81 v=114
11840 Off ch=2 n=53 v=0
11840 Off ch=2 n=57 v=0
11840 Off ch=2 n=81 v=0
11840 On ch=2 n=52 v=94
11840 On ch=2 n=57 v=93
11840 On ch=2 n=73 v=80
11904 Off ch=2 n=73 v=0
11904 On ch=2 n=81 v=118
11968 Off ch=2 n=52 v=0
11968 Off ch=2 n=57 v=0
11968 Off ch=2 n=81 v=0
11968 On ch=2 n=53 v=102
11968 On ch=2 n=57 v=97
11968 On ch=2 n=74 v=82
12032 Off ch=2 n=74 v=0
12032 On ch=2 n=81 v=111
12096 Off ch=2 n=53 v=0
12096 Off ch=2 n=57 v=0
12096 Off ch=2 n=81 v=0
12096 On ch=2 n=49 v=93
12096 On ch=2 n=57 v=100
12096 On ch=2 n=76 v=86
12160 Off ch=2 n=76 v=0
12160 On ch=2 n=81 v=108
12224 Off ch=2 n=49 v=0
12224 Off ch=2 n=57 v=0
12224 Off ch=2 n=81 v=0
12224 On ch=2 n=50 v=97
12224 On ch=2 n=57 v=97
12224 On ch=2 n=77 v=91
12288 Off ch=2 n=77 v=0
12288 On ch=2 n=81 v=105
12352 Off ch=2 n=81 v=0
12352 On ch=2 n=76 v=83
12416 Off ch=2 n=76 v=0
12416 On ch=2 n=81 v=109
12480 Off ch=2 n=50 v=0
12480 Off ch=2 n=57 v=0
12480 Off ch=2 n=81 v=0
12480 On ch=2 n=53 v=101
12480 On ch=2 n=62 v=112
12480 On ch=2 n=74 v=83
12544 Off ch=2 n=74 v=0
12544 On ch=2 n=81 v=110
12608 Off ch=2 n=81 v=0
12608 On ch=2 n=72 v=77
12672 Off ch=2 n=72 v=0
12672 On ch=2 n=81 v=117
12736 Off ch=2 n=53 v=0
12736 Off ch=2 n=62 v=0
12736 Off ch=2 n=81 v=0
12736 On ch=2 n=55 v=99
12736 On ch=2 n=62 v=102
12736 On ch=2 n=70 v=74
12800 Off ch=2 n=70 v=0
12800 On ch=2 n=81 v=119
12864 Off ch=2 n=81 v=0
12864 On ch=2 n=72 v=76
12928 Off ch=2 n=72 v=0
12928 On ch=2 n=81 v=114
12992 Off ch=2 n=55 v=0
12992 Off ch=2 n=62 v=0
12992 Off ch=2 n=81 v=0
12992 On ch=2 n=74 v=83
13056 Off ch=2 n=74 v=0
13056 On ch=2 n=79 v=109
13120 Off ch=2 n=79 v=0
13120 On ch=2 n=70 v=74
13184 Off ch=2 n=70 v=0
13184 On ch=2 n=79 v=111
13248 Off ch=2 n=79 v=0
13248 On ch=2 n=48 v=88
13248 On ch=2 n=60 v=92
13248 On ch=2 n=76 v=93
13312 Off ch=2 n=76 v=0
13312 On ch=2 n=79 v=106
13376 Off ch=2 n=79 v=0
13376 On ch=2 n=74 v=80
13440 Off ch=2 n=74 v=0
13440 On ch=2 n=79 v=108
13504 Off ch=2 n=48 v=0
13504 Off ch=2 n=60 v=0
13504 Off ch=2 n=79 v=0
13504 On ch=2 n=52 v=107
13504 On ch=2 n=60 v=98
13504 On ch=2 n=72 v=81
13568 Off ch=2 n=72 v=0
13568 On ch=2 n=79 v=113
13632 Off ch=2 n=79 v=0
13632 On ch=2 n=70 v=79
13696 Off ch=2 n=70 v=0
13696 On ch=2 n=79 v=118
13760 Off ch=2 n=52 v=0
13760 Off ch=2 n=60 v=0
13760 Off ch=2 n=79 v=0
13760 On ch=2 n=53 v=100
13760 On ch=2 n=60 v=93
13760 On ch=2 n=69 v=78
13824 Off ch=2 n=69 v=0
13824 On ch=2 n=79 v=118
13888 Off ch=2 n=79 v=0
13888 On ch=2 n=70 v=80
13952 Off ch=2 n=70 v=0
13952 On ch=2 n=79 v=112
14016 Off ch=2 n=53 v=0
14016 Off ch=2 n=60 v=0
14016 Off ch=2 n=79 v=0
14016 On ch=2 n=72 v=82
14080 Off ch=2 n=72 v=0
14080 On ch=2 n=77 v=109
14144 Off ch=2 n=77 v=0
14144 On ch=2 n=69 v=81
14208 Off ch=2 n=69 v=0
14208 On ch=2 n=77 v=112
14272 Off ch=2 n=77 v=0
14272 On ch=2 n=46 v=90
14272 On ch=2 n=58 v=87
14272 On ch=2 n=74 v=90
14336 Off ch=2 n=74 v=0
14336 On ch=2 n=77 v=105
14400 Off ch=2 n=77 v=0
14400 On ch=2 n=72 v=82
14464 Off ch=2 n=72 v=0
14464 On ch=2 n=77 v=107
14528 Off ch=2 n=46 v=0
14528 Off ch=2 n=58 v=0
14528 Off ch=2 n=77 v=0
14528 On ch=2 n=50 v=101
14528 On ch=2 n=58 v=92
14528 On ch=2 n=70 v=84
14592 Off ch=2 n=70 v=0
14592 On ch=2 n=77 v=116
14656 Off ch=2 n=77 v=0
14656 On ch=2 n=69 v=81
14720 Off ch=2 n=69 v=0
14720 On ch=2 n=77 v=111
14784 Off ch=2 n=50 v=0
14784 Off ch=2 n=58 v=0
14784 Off ch=2 n=77 v=0
14784 On ch=2 n=52 v=101
14784 On ch=2 n=58 v=100
14784 On ch=2 n=67 v=82
14848 Off ch=2 n=67 v=0
14848 On ch=2 n=77 v=118
14912 Off ch=2 n=77 v=0
14912 On ch=2 n=69 v=83
14976 Off ch=2 n=69 v=0
14976 On ch=2 n=77 v=115
15040 Off ch=2 n=52 v=0
15040 Off ch=2 n=58 v=0
15040 Off ch=2 n=77 v=0
15040 On ch=2 n=70 v=85
15104 Off ch=2 n=70 v=0
15104 On ch=2 n=76 v=114
15168 Off ch=2 n=76 v=0
15168 On ch=2 n=67 v=79
15232 Off ch=2 n=67 v=0
15232 On ch=2 n=76 v=111
15296 Off ch=2 n=76 v=0
15296 On ch=2 n=45 v=84
15296 On ch=2 n=57 v=85
15296 On ch=2 n=73 v=96
15360 Off ch=2 n=73 v=0
15360 On ch=2 n=76 v=108
15424 Off ch=2 n=76 v=0
15424 On ch=2 n=70 v=84
15488 Off ch=2 n=70 v=0
15488 On ch=2 n=76 v=110
15552 Off ch=2 n=45 v=0
15552 Off ch=2 n=57 v=0
15552 Off ch=2 n=76 v=0
15552 On ch=2 n=49 v=101
15552 On ch=2 n=57 v=100
15552 On ch=2 n=69 v=84
15616 Off ch=2 n=69 v=0
15616 On ch=2 n=76 v=119
15680 Off ch=2 n=76 v=0
15680 On ch=2 n=67 v=78
15744 Off ch=2 n=67 v=0
15744 On ch=2 n=76 v=117
15808 Off ch=2 n=49 v=0
15808 Off ch=2 n=57 v=0
15808 Off ch=2 n=76 v=0
15808 On ch=2 n=50 v=99
15808 On ch=2 n=57 v=98
15808 On ch=2 n=65 v=74
15872 Off ch=2 n=65 v=0
15872 On ch=2 n=76 v=116
15936 Off ch=2 n=76 v=0
15936 On ch=2 n=67 v=82
16000 Off ch=2 n=67 v=0
16000 On ch=2 n=76 v=113
16064 Off ch=2 n=50 v=0
16064 Off ch=2 n=57 v=0
16064 Off ch=2 n=76 v=0
16064 On ch=2 n=69 v=87
16128 Off ch=2 n=69 v=0
16128 On ch=2 n=74 v=110
16192 Off ch=2 n=74 v=0
16192 On ch=2 n=53 v=90
16192 On ch=2 n=62 v=75
16192 On ch=2 n=65 v=75
16256 Off ch=2 n=65 v=0
16256 On ch=2 n=74 v=111
16320 Off ch=2 n=53 v=0
16320 Off ch=2 n=62 v=0
16320 Off ch=2 n=74 v=0
16320 On ch=2 n=58 v=101
16320 On ch=2 n=61 v=72
16320 On ch=2 n=64 v=79
16384 Off ch=2 n=64 v=0
16384 On ch=2 n=76 v=123
16448 Off ch=2 n=58 v=0
16448 Off ch=2 n=61 v=0
16448 Off ch=2 n=76 v=0
16448 On ch=2 n=58 v=98
16448 On ch=2 n=61 v=81
16448 On ch=2 n=64 v=71
16512 Off ch=2 n=64 v=0
16512 On ch=2 n=76 v=119
16576 Off ch=2 n=58 v=0
16576 Off ch=2 n=61 v=0
16576 Off ch=2 n=76 v=0
16576 On ch=2 n=57 v=96
16576 On ch=2 n=62 v=89
16576 On ch=2 n=65 v=78
16640 Off ch=2 n=65 v=0
16640 On ch=2 n=74 v=116
16704 Off ch=2 n=57 v=0
16704 Off ch=2 n=62 v=0
16704 Off ch=2 n=74 v=0
16704 On ch=2 n=57 v=101
16704 On ch=2 n=62 v=81
16704 On ch=2 n=65 v=76
16768 Off ch=2 n=65 v=0
16768 On ch=2 n=74 v=114
16832 Off ch=2 n=57 v=0
16832 Off ch=2 n=62 v=0
16832 Off ch=2 n=74 v=0
16832 On ch=2 n=55 v=96
16832 On ch=2 n=64 v=94
16832 On ch=2 n=70 v=92
16896 Off ch=2 n=70 v=0
16896 On ch=2 n=73 v=108
16960 Off ch=2 n=73 v=0
16960 On ch=2 n=70 v=90
17024 Off ch=2 n=70 v=0
17024 On ch=2 n=73 v=105
17088 Off ch=2 n=55 v=0
17088 Off ch=2 n=64 v=0
17088 Off ch=2 n=73 v=0
17088 On ch=2 n=69 v=85
17152 Off ch=2 n=69 v=0
17152 On ch=2 n=74 v=104
17216 Off ch=2 n=74 v=0
17216 On ch=2 n=57 v=90
17216 On ch=2 n=62 v=79
17216 On ch=2 n=65 v=80
17280 Off ch=2 n=65 v=0
17280 On ch=2 n=74 v=115
17344 Off ch=2 n=57 v=0
17344 Off ch=2 n=62 v=0
17344 Off ch=2 n=74 v=0
17344 On ch=2 n=58 v=99
17344 On ch=2 n=61 v=76
17344 On ch=2 n=64 v=75
17408 Off ch=2 n=64 v=0
17408 On ch=2 n=76 v=124
17472 Off ch=2 n=58 v=0
17472 Off ch=2 n=61 v=0
17472 Off ch=2 n=76 v=0
17472 On ch=2 n=58 v=102
17472 On ch=2 n=61 v=78
17472 On ch=2 n=64 v=74
17536 Off ch=2 n=64 v=0
17536 On ch=2 n=76 v=123
17600 Off ch=2 n=58 v=0
17600 Off ch=2 n=61 v=0
17600 Off ch=2 n=76 v=0
17600 On ch=2 n=57 v=96
17600 On ch=2 n=62 v=87
17600 On ch=2 n=65 v=75
17664 Off ch=2 n=65 v=0
17664 On ch=2 n=74 v=114
17728 Off ch=2 n=57 v=0
17728 Off ch=2 n=62 v=0
17728 Off ch=2 n=74 v=0
17728 On ch=2 n=57 v=96
17728 On ch=2 n=62 v=89
17728 On ch=2 n=65 v=78
17792 Off ch=2 n=65 v=0
17792 On ch=2 n=74 v=111
17856 Off ch=2 n=57 v=0
17856 Off ch=2 n=62 v=0
17856 Off ch=2 n=74 v=0
17856 On ch=2 n=56 v=95
17856 On ch=2 n=64 v=87
17920 On ch=2 n=74 v=84
17984 Off ch=2 n=74 v=0
17984 On ch=2 n=73 v=91
18048 Off ch=2 n=73 v=0
18048 On ch=2 n=74 v=99
18112 Off ch=2 n=56 v=0
18112 Off ch=2 n=64 v=0
18112 Off ch=2 n=74 v=0
18112 On ch=2 n=71 v=87
18176 Off ch=2 n=71 v=0
18176 On ch=2 n=74 v=103
18240 Off ch=2 n=74 v=0
18240 On ch=2 n=73 v=93
18304 Off ch=2 n=73 v=0
18304 On ch=2 n=71 v=90
18368 Off ch=2 n=71 v=0
18368 On ch=2 n=73 v=100
18432 On ch=2 n=69 v=75
18496 Off ch=2 n=69 v=0
18496 On ch=2 n=67 v=77
18560 Off ch=2 n=67 v=0
18560 On ch=2 n=69 v=81
18624 Off ch=2 n=73 v=0
18624 Off ch=2 n=69 v=0
18624 On ch=2 n=64 v=76
18688 Off ch=2 n=64 v=0
18688 On ch=2 n=67 v=92
18752 Off ch=2 n=67 v=0
18752 On ch=2 n=65 v=75
18816 Off ch=2 n=65 v=0
18816 On ch=2 n=64 v=76
18880 Off ch=2 n=64 v=0
18880 On ch=2 n=65 v=93
18944 On ch=2 n=74 v=88
19008 Off ch=2 n=74 v=0
19008 On ch=2 n=73 v=90
19072 Off ch=2 n=73 v=0
19072 On ch=2 n=74 v=102
19136 Off ch=2 n=65 v=0
19136 Off ch=2 n=74 v=0
19136 On ch=2 n=62 v=79
19136 On ch=2 n=77 v=107
19200 Off ch=2 n=77 v=0
19200 On ch=2 n=74 v=91
19264 Off ch=2 n=74 v=0
19264 On ch=2 n=73 v=96
19328 Off ch=2 n=73 v=0
19328 On ch=2 n=71 v=90
19392 Off ch=2 n=62 v=0
19392 Off ch=2 n=71 v=0
19392 On ch=2 n=57 v=79
19392 On ch=2 n=73 v=102
19456 Off ch=2 n=57 v=0
19456 On ch=2 n=69 v=105
19520 Off ch=2 n=69 v=0
19520 On ch=2 n=67 v=84
19584 Off ch=2 n=67 v=0
19584 On ch=2 n=69 v=95
19648 Off ch=2 n=73 v=0
19648 Off ch=2 n=69 v=0
19648 On ch=2 n=61 v=72
19648 On ch=2 n=76 v=103
19712 Off ch=2 n=61 v=0
19712 On ch=2 n=67 v=92
19776 Off ch=2 n=67 v=0
19776 On ch=2 n=65 v=79
19840 Off ch=2 n=65 v=0
19840 On ch=2 n=64 v=84
19904 Off ch=2 n=64 v=0
19904 On ch=2 n=65 v=89
19968 On ch=2 n=62 v=87
20032 Off ch=2 n=76 v=0
20032 Off ch=2 n=62 v=0
20032 On ch=2 n=61 v=92
20032 On ch=2 n=74 v=91
20096 Off ch=2 n=61 v=0
20096 On ch=2 n=62 v=96
20160 Off ch=2 n=65 v=0
20160 Off ch=2 n=62 v=0
20160 On ch=2 n=57 v=88
20160 On ch=2 n=64 v=82
20224 Off ch=2 n=57 v=0
20224 On ch=2 n=57 v=95
20288 Off ch=2 n=74 v=0
20288 Off ch=2 n=57 v=0
20288 On ch=2 n=55 v=92
20288 On ch=2 n=73 v=90
20352 Off ch=2 n=55 v=0
20352 On ch=2 n=57 v=99
20416 Off ch=2 n=64 v=0
20416 Off ch=2 n=73 v=0
20416 Off ch=2 n=57 v=0
20416 On ch=2 n=54 v=88
20416 On ch=2 n=62 v=73
20416 On ch=2 n=72 v=91
20480 Off ch=2 n=54 v=0
20480 On ch=2 n=62 v=116
20544 Off ch=2 n=62 v=0
20544 Off ch=2 n=62 v=0
20544 On ch=2 n=61 v=98
20544 On ch=2 n=69 v=100
20608 Off ch=2 n=61 v=0
20608 On ch=2 n=62 v=102
20672 Off ch=2 n=72 v=0
20672 Off ch=2 n=62 v=0
20672 On ch=2 n=55 v=87
20672 On ch=2 n=70 v=94
20736 Off ch=2 n=55 v=0
20736 On ch=2 n=65 v=118
20800 Off ch=2 n=69 v=0
20800 Off ch=2 n=65 v=0
20800 On ch=2 n=63 v=96
20800 On ch=2 n=67 v=78
20864 Off ch=2 n=63 v=0
20864 On ch=2 n=62 v=90
20928 Off ch=2 n=70 v=0
20928 Off ch=2 n=62 v=0
20928 On ch=2 n=61 v=90
20928 On ch=2 n=69 v=93
20992 Off ch=2 n=61 v=0
20992 On ch=2 n=64 v=103
21056 Off ch=2 n=64 v=0
21056 On ch=2 n=57 v=87
21120 Off ch=2 n=57 v=0
21120 On ch=2 n=61 v=109
21184 Off ch=2 n=67 v=0
21184 Off ch=2 n=69 v=0
21184 Off ch=2 n=61 v=0
21184 On ch=2 n=50 v=84
21184 On ch=2 n=66 v=76
21184 On ch=2 n=69 v=101
21248 Off ch=2 n=50 v=0
21248 On ch=2 n=63 v=126
21312 Off ch=2 n=63 v=0
21312 On ch=2 n=62 v=101
21376 Off ch=2 n=62 v=0
21376 On ch=2 n=60 v=91
21440 Off ch=2 n=66 v=0
21440 Off ch=2 n=69 v=0
21440 Off ch=2 n=60 v=0
21440 On ch=2 n=59 v=96
21440 On ch=2 n=65 v=83
21440 On ch=2 n=67 v=88
21504 Off ch=2 n=59 v=0
21504 On ch=2 n=62 v=106
21568 Off ch=2 n=62 v=0
21568 On ch=2 n=55 v=93
21632 Off ch=2 n=55 v=0
21632 On ch=2 n=59 v=100
21696 Off ch=2 n=65 v=0
21696 Off ch=2 n=67 v=0
21696 Off ch=2 n=59 v=0
21696 On ch=2 n=48 v=87
21696 On ch=2 n=63 v=78
21696 On ch=2 n=67 v=96
21760 Off ch=2 n=48 v=0
21760 On ch=2 n=62 v=123
21824 Off ch=2 n=62 v=0
21824 On ch=2 n=60 v=95
21888 Off ch=2 n=60 v=0
21888 On ch=2 n=58 v=96
21952 Off ch=2 n=67 v=0
21952 Off ch=2 n=58 v=0
21952 On ch=2 n=57 v=94
21952 On ch=2 n=66 v=94
22016 Off ch=2 n=57 v=0
22016 On ch=2 n=60 v=106
22080 Off ch=2 n=63 v=0
22080 Off ch=2 n=66 v=0
22080 Off ch=2 n=60 v=0
22080 On ch=2 n=54 v=92
22080 On ch=2 n=62 v=78
22080 On ch=2 n=69 v=104
22144 Off ch=2 n=54 v=0
22144 On ch=2 n=57 v=100
22208 Off ch=2 n=62 v=0
22208 Off ch=2 n=57 v=0
22208 On ch=2 n=50 v=83
22208 On ch=2 n=66 v=96
22272 Off ch=2 n=50 v=0
22272 On ch=2 n=60 v=124
22336 Off ch=2 n=69 v=0
22336 Off ch=2 n=66 v=0
22336 Off ch=2 n=60 v=0
22336 On ch=2 n=58 v=96
22336 On ch=2 n=72 v=98
22336 On ch=2 n=75 v=113
22400 Off ch=2 n=58 v=0
22400 On ch=2 n=57 v=93
22464 Off ch=2 n=75 v=0
22464 Off ch=2 n=57 v=0
22464 On ch=2 n=58 v=98
22464 On ch=2 n=74 v=93
22528 Off ch=2 n=58 v=0
22528 On ch=2 n=69 v=124
22592 Off ch=2 n=72 v=0
22592 Off ch=2 n=69 v=0
22592 On ch=2 n=67 v=91
22592 On ch=2 n=70 v=74
22656 Off ch=2 n=67 v=0
22656 Off ch=2 n=70 v=0
22656 On ch=2 n=66 v=92
22656 On ch=2 n=69 v=78
22720 Off ch=2 n=74 v=0
22720 Off ch=2 n=66 v=0
22720 Off ch=2 n=69 v=0
22720 On ch=2 n=67 v=98
22720 On ch=2 n=70 v=81
22784 Off ch=2 n=67 v=0
22784 On ch=2 n=58 v=88
22848 Off ch=2 n=70 v=0
22848 Off ch=2 n=58 v=0
22848 On ch=2 n=57 v=92
22848 On ch=2 n=70 v=80
22848 On ch=2 n=79 v=90
22912 Off ch=2 n=57 v=0
22912 On ch=2 n=55 v=92
22976 Off ch=2 n=70 v=0
22976 Off ch=2 n=55 v=0
22976 On ch=2 n=69 v=76
23040 On ch=2 n=50 v=89
23104 Off ch=2 n=79 v=0
23104 Off ch=2 n=50 v=0
23104 On ch=2 n=48 v=92
23104 On ch=2 n=78 v=90
23168 Off ch=2 n=48 v=0
23168 On ch=2 n=50 v=101
23232 Off ch=2 n=69 v=0
23232 Off ch=2 n=78 v=0
23232 Off ch=2 n=50 v=0
23232 On ch=2 n=46 v=99
23232 On ch=2 n=74 v=93
23232 On ch=2 n=79 v=99
23296 Off ch=2 n=46 v=0
23296 On ch=2 n=50 v=98
23360 Off ch=2 n=74 v=0
23360 Off ch=2 n=50 v=0
23360 On ch=2 n=45 v=93
23360 On ch=2 n=72 v=80
23424 Off ch=2 n=45 v=0
23424 On ch=2 n=50 v=103
23488 Off ch=2 n=79 v=0
23488 Off ch=2 n=72 v=0
23488 Off ch=2 n=50 v=0
23488 On ch=2 n=43 v=91
23488 On ch=2 n=70 v=81
23488 On ch=2 n=70 v=73
23552 Off ch=2 n=43 v=0
23552 On ch=2 n=50 v=102
23616 Off ch=2 n=70 v=0
23616 Off ch=2 n=70 v=0
23616 Off ch=2 n=50 v=0
23616 On ch=2 n=42 v=88
23616 On ch=2 n=69 v=78
23616 On ch=2 n=74 v=105
23680 Off ch=2 n=42 v=0
23680 On ch=2 n=50 v=103
23744 Off ch=2 n=69 v=0
23744 Off ch=2 n=74 v=0
23744 Off ch=2 n=50 v=0
23744 On ch=2 n=43 v=92
23744 On ch=2 n=70 v=84
23744 On ch=2 n=74 v=95
23808 Off ch=2 n=43 v=0
23808 On ch=2 n=50 v=108
23872 Off ch=2 n=70 v=0
23872 Off ch=2 n=74 v=0
23872 Off ch=2 n=50 v=0
23872 On ch=2 n=45 v=99
23872 On ch=2 n=66 v=75
23872 On ch=2 n=74 v=97
23936 Off ch=2 n=45 v=0
23936 On ch=2 n=50 v=98
24000 Off ch=2 n=66 v=0
24000 Off ch=2 n=74 v=0
24000 Off ch=2 n=50 v=0
24000 On ch=2 n=46 v=94
24000 On ch=2 n=67 v=85
24000 On ch=2 n=74 v=100
24064 Off ch=2 n=46 v=0
24064 On ch=2 n=50 v=101
24128 Off ch=2 n=67 v=0
24128 Off ch=2 n=74 v=0
24128 Off ch=2 n=50 v=0
24128 On ch=2 n=38 v=85
24128 On ch=2 n=66 v=85
24128 On ch=2 n=74 v=95
24192 Off ch=2 n=38 v=0
24192 On ch=2 n=50 v=109
24256 Off ch=2 n=66 v=0
24256 Off ch=2 n=74 v=0
24256 Off ch=2 n=50 v=0
24256 On ch=2 n=40 v=89
24256 On ch=2 n=67 v=80
24256 On ch=2 n=74 v=94
24320 Off ch=2 n=40 v=0
24320 On ch=2 n=50 v=102
24384 Off ch=2 n=67 v=0
24384 Off ch=2 n=74 v=0
24384 Off ch=2 n=50 v=0
24384 On ch=2 n=42 v=92
24384 On ch=2 n=69 v=86
24384 On ch=2 n=74 v=96
24448 Off ch=2 n=42 v=0
24448 On ch=2 n=50 v=104
24512 Off ch=2 n=69 v=0
24512 Off ch=2 n=74 v=0
24512 Off ch=2 n=50 v=0
24512 On ch=2 n=43 v=88
24512 On ch=2 n=70 v=87
24512 On ch=2 n=74 v=95
24576 Off ch=2 n=43 v=0
24576 On ch=2 n=50 v=110
24640 Off ch=2 n=70 v=0
24640 Off ch=2 n=74 v=0
24640 Off ch=2 n=50 v=0
24640 On ch=2 n=42 v=85
24640 On ch=2 n=69 v=81
24640 On ch=2 n=74 v=98
24704 Off ch=2 n=42 v=0
24704 On ch=2 n=50 v=107
24768 Off ch=2 n=69 v=0
24768 Off ch=2 n=74 v=0
24768 Off ch=2 n=50 v=0
24768 On ch=2 n=43 v=87
24768 On ch=2 n=70 v=83
24768 On ch=2 n=74 v=96
24832 Off ch=2 n=43 v=0
24832 On ch=2 n=50 v=105
24896 Off ch=2 n=70 v=0
24896 Off ch=2 n=74 v=0
24896 Off ch=2 n=50 v=0
24896 On ch=2 n=45 v=92
24896 On ch=2 n=66 v=77
24896 On ch=2 n=74 v=96
24960 Off ch=2 n=45 v=0
24960 On ch=2 n=50 v=103
25024 Off ch=2 n=66 v=0
25024 Off ch=2 n=74 v=0
25024 Off ch=2 n=50 v=0
25024 On ch=2 n=58 v=108
25024 On ch=2 n=46 v=108
25024 On ch=2 n=67 v=85
25024 On ch=2 n=74 v=95
25088 Off ch=2 n=67 v=0
25088 Off ch=2 n=74 v=0
25088 On ch=2 n=70 v=89
25088 On ch=2 n=79 v=110
25152 Off ch=2 n=70 v=0
25152 Off ch=2 n=79 v=0
25152 On ch=2 n=69 v=82
25152 On ch=2 n=77 v=94
25216 Off ch=2 n=69 v=0
25216 Off ch=2 n=77 v=0
25216 On ch=2 n=70 v=86
25216 On ch=2 n=79 v=104
25280 Off ch=2 n=58 v=0
25280 Off ch=2 n=46 v=0
25280 Off ch=2 n=70 v=0
25280 Off ch=2 n=79 v=0
25280 On ch=2 n=67 v=78
25280 On ch=2 n=76 v=89
25344 Off ch=2 n=67 v=0
25344 Off ch=2 n=76 v=0
25344 On ch=2 n=69 v=89
25344 On ch=2 n=77 v=103
25408 Off ch=2 n=69 v=0
25408 Off ch=2 n=77 v=0
25408 On ch=2 n=47 v=89
25408 On ch=2 n=65 v=76
25408 On ch=2 n=74 v=90
25472 Off ch=2 n=65 v=0
25472 Off ch=2 n=74 v=0
25472 On ch=2 n=67 v=83
25472 On ch=2 n=76 v=103
25536 Off ch=2 n=47 v=0
25536 Off ch=2 n=67 v=0
25536 Off ch=2 n=76 v=0
25536 On ch=2 n=48 v=94
25536 On ch=2 n=64 v=77
25536 On ch=2 n=72 v=85
25600 Off ch=2 n=64 v=0
25600 Off ch=2 n=72 v=0
25600 On ch=2 n=72 v=95
25600 On ch=2 n=81 v=116
25664 Off ch=2 n=72 v=0
25664 Off ch=2 n=81 v=0
25664 On ch=2 n=70 v=83
25664 On ch=2 n=79 v=89
25728 Off ch=2 n=70 v=0
25728 Off ch=2 n=79 v=0
25728 On ch=2 n=72 v=94
25728 On ch=2 n=81 v=107
25792 Off ch=2 n=48 v=0
25792 Off ch=2 n=72 v=0
25792 Off ch=2 n=81 v=0
25792 On ch=2 n=69 v=77
25792 On ch=2 n=77 v=84
25856 Off ch=2 n=69 v=0
25856 Off ch=2 n=77 v=0
25856 On ch=2 n=70 v=90
25856 On ch=2 n=79 v=100
25920 Off ch=2 n=70 v=0
25920 Off ch=2 n=79 v=0
25920 On ch=2 n=49 v=86
25920 On ch=2 n=67 v=77
25920 On ch=2 n=76 v=87
25984 Off ch=2 n=67 v=0
25984 Off ch=2 n=76 v=0
25984 On ch=2 n=69 v=90
25984 On ch=2 n=77 v=102
26048 Off ch=2 n=49 v=0
26048 Off ch=2 n=69 v=0
26048 Off ch=2 n=77 v=0
26048 On ch=2 n=50 v=100
26048 On ch=2 n=65 v=78
26048 On ch=2 n=74 v=87
26112 Off ch=2 n=65 v=0
26112 Off ch=2 n=74 v=0
26112 On ch=2 n=74 v=99
26112 On ch=2 n=82 v=117
26176 Off ch=2 n=74 v=0
26176 Off ch=2 n=82 v=0
26176 On ch=2 n=72 v=81
26176 On ch=2 n=81 v=97
26240 Off ch=2 n=72 v=0
26240 Off ch=2 n=81 v=0
26240 On ch=2 n=74 v=88
26240 On ch=2 n=82 v=101
26304 Off ch=2 n=50 v=0
26304 Off ch=2 n=74 v=0
26304 Off ch=2 n=82 v=0
26304 On ch=2 n=70 v=72
26304 On ch=2 n=79 v=88
26368 Off ch=2 n=70 v=0
26368 Off ch=2 n=79 v=0
26368 On ch=2 n=72 v=85
26368 On ch=2 n=81 v=100
26432 Off ch=2 n=72 v=0
26432 Off ch=2 n=81 v=0
26432 On ch=2 n=50 v=83
26432 On ch=2 n=69 v=71
26432 On ch=2 n=77 v=86
26496 Off ch=2 n=69 v=0
26496 Off ch=2 n=77 v=0
26496 On ch=2 n=70 v=91
26496 On ch=2 n=79 v=96
26560 Off ch=2 n=50 v=0
26560 Off ch=2 n=70 v=0
26560 Off ch=2 n=79 v=0
26560 On ch=2 n=52 v=94
26560 On ch=2 n=67 v=77
26560 On ch=2 n=76 v=90
26624 Off ch=2 n=67 v=0
26624 Off ch=2 n=76 v=0
26624 On ch=2 n=76 v=95
26624 On ch=2 n=84 v=119
26688 Off ch=2 n=76 v=0
26688 Off ch=2 n=84 v=0
26688 On ch=2 n=74 v=81
26688 On ch=2 n=82 v=96
26752 Off ch=2 n=74 v=0
26752 Off ch=2 n=82 v=0
26752 On ch=2 n=76 v=93
26752 On ch=2 n=84 v=107
26816 Off ch=2 n=52 v=0
26816 Off ch=2 n=76 v=0
26816 Off ch=2 n=84 v=0
26816 On ch=2 n=72 v=73
26816 On ch=2 n=81 v=90
26880 Off ch=2 n=72 v=0
26880 Off ch=2 n=81 v=0
26880 On ch=2 n=74 v=89
26880 On ch=2 n=82 v=99
26944 Off ch=2 n=74 v=0
26944 Off ch=2 n=82 v=0
26944 On ch=2 n=52 v=85
26944 On ch=2 n=70 v=73
26944 On ch=2 n=79 v=90
27008 Off ch=2 n=70 v=0
27008 Off ch=2 n=79 v=0
27008 On ch=2 n=72 v=90
27008 On ch=2 n=81 v=105
27072 Off ch=2 n=52 v=0
27072 Off ch=2 n=72 v=0
27072 Off ch=2 n=81 v=0
27072 On ch=2 n=53 v=98
27072 On ch=2 n=69 v=75
27072 On ch=2 n=77 v=87
27136 Off ch=2 n=77 v=0
27136 On ch=2 n=75 v=90
27200 Off ch=2 n=53 v=0
27200 Off ch=2 n=69 v=0
27200 Off ch=2 n=75 v=0
27200 On ch=2 n=45 v=92
27200 On ch=2 n=65 v=76
27200 On ch=2 n=74 v=94
27264 Off ch=2 n=74 v=0
27264 On ch=2 n=72 v=89
27328 Off ch=2 n=45 v=0
27328 Off ch=2 n=65 v=0
27328 Off ch=2 n=72 v=0
27328 On ch=2 n=46 v=93
27328 On ch=2 n=70 v=94
27328 On ch=2 n=74 v=107
27392 Off ch=2 n=70 v=0
27392 Off ch=2 n=74 v=0
27392 On ch=2 n=69 v=81
27392 On ch=2 n=72 v=93
27456 Off ch=2 n=46 v=0
27456 Off ch=2 n=69 v=0
27456 Off ch=2 n=72 v=0
27456 On ch=2 n=50 v=102
27456 On ch=2 n=67 v=80
27456 On ch=2 n=70 v=87
27520 Off ch=2 n=67 v=0
27520 Off ch=2 n=70 v=0
27520 On ch=2 n=65 v=70
27520 On ch=2 n=69 v=95
27584 Off ch=2 n=50 v=0
27584 Off ch=2 n=65 v=0
27584 Off ch=2 n=69 v=0
27584 On ch=2 n=43 v=88
27584 On ch=2 n=67 v=87
27584 On ch=2 n=70 v=100
27648 Off ch=2 n=67 v=0
27648 Off ch=2 n=70 v=0
27648 On ch=2 n=70 v=93
27648 On ch=2 n=74 v=111
27712 Off ch=2 n=70 v=0
27712 Off ch=2 n=74 v=0
27712 On ch=2 n=67 v=75
27712 On ch=2 n=70 v=93
27776 Off ch=2 n=67 v=0
27776 Off ch=2 n=70 v=0
27776 On ch=2 n=65 v=76
27776 On ch=2 n=69 v=90
27840 Off ch=2 n=43 v=0
27840 Off ch=2 n=65 v=0
27840 Off ch=2 n=69 v=0
27840 On ch=2 n=64 v=79
27840 On ch=2 n=67 v=92
27904 Off ch=2 n=64 v=0
27904 Off ch=2 n=67 v=0
27904 On ch=2 n=67 v=88
27904 On ch=2 n=70 v=104
27968 Off ch=2 n=67 v=0
27968 Off ch=2 n=70 v=0
27968 On ch=2 n=46 v=87
27968 On ch=2 n=64 v=76
27968 On ch=2 n=67 v=90
28032 Off ch=2 n=64 v=0
28032 Off ch=2 n=67 v=0
28032 On ch=2 n=62 v=79
28032 On ch=2 n=65 v=89
28096 Off ch=2 n=62 v=0
28096 Off ch=2 n=65 v=0
28096 On ch=2 n=60 v=76
28096 On ch=2 n=64 v=93
28160 Off ch=2 n=60 v=0
28160 Off ch=2 n=64 v=0
28160 On ch=2 n=62 v=88
28160 On ch=2 n=65 v=102
28224 Off ch=2 n=46 v=0
28224 Off ch=2 n=62 v=0
28224 Off ch=2 n=65 v=0
28224 On ch=2 n=45 v=97
28224 On ch=2 n=64 v=94
28224 On ch=2 n=67 v=106
28288 Off ch=2 n=64 v=0
28288 Off ch=2 n=67 v=0
28288 On ch=2 n=65 v=93
28288 On ch=2 n=69 v=106
28352 Off ch=2 n=45 v=0
28352 Off ch=2 n=65 v=0
28352 Off ch=2 n=69 v=0
28352 On ch=2 n=43 v=96
28352 On ch=2 n=67 v=91
28352 On ch=2 n=70 v=106
28416 Off ch=2 n=70 v=0
28416 On ch=2 n=74 v=109
28480 Off ch=2 n=43 v=0
28480 Off ch=2 n=67 v=0
28480 Off ch=2 n=74 v=0
28480 On ch=2 n=48 v=102
28480 On ch=2 n=64 v=78
28480 On ch=2 n=72 v=95
28544 Off ch=2 n=72 v=0
28544 On ch=2 n=70 v=92
28608 Off ch=2 n=48 v=0
28608 Off ch=2 n=64 v=0
28608 Off ch=2 n=70 v=0
28608 On ch=2 n=41 v=94
28608 On ch=2 n=65 v=91
28608 On ch=2 n=69 v=93
28672 Off ch=2 n=41 v=0
28672 On ch=2 n=60 v=125
28736 Off ch=2 n=60 v=0
28736 On ch=2 n=58 v=98
28800 Off ch=2 n=58 v=0
28800 On ch=2 n=60 v=101
28864 Off ch=2 n=65 v=0
28864 Off ch=2 n=69 v=0
28864 Off ch=2 n=60 v=0
28864 On ch=2 n=57 v=93
28864 On ch=2 n=72 v=105
28928 Off ch=2 n=57 v=0
28928 On ch=2 n=60 v=100
28992 Off ch=2 n=72 v=0
28992 Off ch=2 n=60 v=0
28992 On ch=2 n=55 v=97
28992 On ch=2 n=70 v=90
29056 Off ch=2 n=55 v=0
29056 On ch=2 n=60 v=103
29120 Off ch=2 n=70 v=0
29120 Off ch=2 n=60 v=0
29120 On ch=2 n=53 v=88
29120 On ch=2 n=69 v=93
29184 Off ch=2 n=53 v=0
29184 On ch=2 n=60 v=109
29248 Off ch=2 n=69 v=0
29248 Off ch=2 n=60 v=0
29248 On ch=2 n=52 v=88
29248 On ch=2 n=67 v=88
29312 Off ch=2 n=52 v=0
29312 On ch=2 n=60 v=116
29376 Off ch=2 n=67 v=0
29376 Off ch=2 n=60 v=0
29376 On ch=2 n=53 v=93
29376 On ch=2 n=69 v=101
29440 Off ch=2 n=53 v=0
29440 On ch=2 n=60 v=113
29504 Off ch=2 n=69 v=0
29504 Off ch=2 n=60 v=0
29504 On ch=2 n=55 v=98
29504 On ch=2 n=70 v=103
29568 Off ch=2 n=55 v=0
29568 On ch=2 n=60 v=107
29632 Off ch=2 n=70 v=0
29632 Off ch=2 n=60 v=0
29632 On ch=2 n=57 v=92
29632 On ch=2 n=72 v=104
29696 Off ch=2 n=57 v=0
29696 On ch=2 n=60 v=110
29760 Off ch=2 n=72 v=0
29760 Off ch=2 n=60 v=0
29760 On ch=2 n=48 v=86
29760 On ch=2 n=64 v=80
29824 Off ch=2 n=48 v=0
29824 On ch=2 n=60 v=121
29888 Off ch=2 n=64 v=0
29888 Off ch=2 n=60 v=0
29888 On ch=2 n=50 v=88
29888 On ch=2 n=65 v=99
29952 Off ch=2 n=50 v=0
29952 On ch=2 n=60 v=118
30016 Off ch=2 n=65 v=0
30016 Off ch=2 n=60 v=0
30016 On ch=2 n=52 v=89
30016 On ch=2 n=67 v=105
30080 Off ch=2 n=52 v=0
30080 On ch=2 n=60 v=119
30144 Off ch=2 n=67 v=0
30144 Off ch=2 n=60 v=0
30144 On ch=2 n=53 v=95
30144 On ch=2 n=69 v=107
30208 Off ch=2 n=53 v=0
30208 On ch=2 n=60 v=112
30272 Off ch=2 n=69 v=0
30272 Off ch=2 n=60 v=0
30272 On ch=2 n=52 v=90
30272 On ch=2 n=67 v=87
30336 Off ch=2 n=52 v=0
30336 On ch=2 n=60 v=118
30400 Off ch=2 n=67 v=0
30400 Off ch=2 n=60 v=0
30400 On ch=2 n=53 v=93
30400 On ch=2 n=69 v=105
30464 Off ch=2 n=53 v=0
30464 On ch=2 n=60 v=115
30528 Off ch=2 n=69 v=0
30528 Off ch=2 n=60 v=0
30528 On ch=2 n=55 v=95
30528 On ch=2 n=70 v=105
30592 Off ch=2 n=55 v=0
30592 On ch=2 n=60 v=110
30656 Off ch=2 n=70 v=0
30656 Off ch=2 n=60 v=0
30656 On ch=2 n=57 v=102
30656 On ch=2 n=72 v=106
30720 Off ch=2 n=72 v=0
30720 On ch=2 n=70 v=89
30784 Off ch=2 n=70 v=0
30784 On ch=2 n=69 v=87
30848 Off ch=2 n=69 v=0
30848 On ch=2 n=67 v=92
30912 Off ch=2 n=57 v=0
30912 Off ch=2 n=67 v=0
30912 On ch=2 n=65 v=91
30976 Off ch=2 n=65 v=0
30976 On ch=2 n=63 v=78
31040 Off ch=2 n=63 v=0
31040 On ch=2 n=62 v=74
31104 Off ch=2 n=62 v=0
31104 On ch=2 n=60 v=81
31168 Off ch=2 n=60 v=0
31168 On ch=2 n=58 v=80
31168 On ch=2 n=74 v=86
31232 Off ch=2 n=74 v=0
31232 On ch=2 n=72 v=94
31296 Off ch=2 n=58 v=0
31296 Off ch=2 n=72 v=0
31296 On ch=2 n=70 v=92
31360 Off ch=2 n=70 v=0
31360 On ch=2 n=69 v=96
31424 Off ch=2 n=69 v=0
31424 On ch=2 n=67 v=89
31488 Off ch=2 n=67 v=0
31488 On ch=2 n=65 v=78
31552 Off ch=2 n=65 v=0
31552 On ch=2 n=64 v=80
31616 Off ch=2 n=64 v=0
31616 On ch=2 n=62 v=81
31680 Off ch=2 n=62 v=0
31680 On ch=2 n=60 v=79
31680 On ch=2 n=76 v=90
31744 Off ch=2 n=76 v=0
31744 On ch=2 n=74 v=91
31808 Off ch=2 n=60 v=0
31808 Off ch=2 n=74 v=0
31808 On ch=2 n=72 v=86
31872 Off ch=2 n=72 v=0
31872 On ch=2 n=70 v=92
31936 Off ch=2 n=70 v=0
31936 On ch=2 n=69 v=93
32000 Off ch=2 n=69 v=0
32000 On ch=2 n=67 v=78
32064 Off ch=2 n=67 v=0
32064 On ch=2 n=65 v=77
32128 Off ch=2 n=65 v=0
32128 On ch=2 n=64 v=79
32192 Off ch=2 n=64 v=0
32192 On ch=2 n=62 v=74
32192 On ch=2 n=77 v=91
32256 Off ch=2 n=77 v=0
32256 On ch=2 n=76 v=93
32320 Off ch=2 n=62 v=0
32320 Off ch=2 n=76 v=0
32320 On ch=2 n=74 v=92
32384 Off ch=2 n=74 v=0
32384 On ch=2 n=72 v=88
32448 Off ch=2 n=72 v=0
32448 On ch=2 n=70 v=88
32512 Off ch=2 n=70 v=0
32512 On ch=2 n=69 v=75
32576 Off ch=2 n=69 v=0
32576 On ch=2 n=67 v=73
32640 Off ch=2 n=67 v=0
32640 On ch=2 n=65 v=76
32704 Off ch=2 n=65 v=0
32704 On ch=2 n=64 v=79
32704 On ch=2 n=79 v=91
32768 Off ch=2 n=79 v=0
32768 On ch=2 n=77 v=89
32832 Off ch=2 n=64 v=0
32832 Off ch=2 n=77 v=0
32832 On ch=2 n=76 v=96
32896 Off ch=2 n=76 v=0
32896 On ch=2 n=74 v=89
32960 Off ch=2 n=74 v=0
32960 On ch=2 n=72 v=91
33024 Off ch=2 n=72 v=0
33024 On ch=2 n=70 v=70
33088 Off ch=2 n=70 v=0
33088 On ch=2 n=69 v=82
33152 Off ch=2 n=69 v=0
33152 On ch=2 n=67 v=74
33216 Off ch=2 n=67 v=0
33216 On ch=2 n=65 v=75
33216 On ch=2 n=81 v=88
33280 Off ch=2 n=81 v=0
33280 On ch=2 n=77 v=79
33344 Off ch=2 n=65 v=0
33344 Off ch=2 n=77 v=0
33344 On ch=2 n=76 v=89
33408 Off ch=2 n=76 v=0
33408 On ch=2 n=77 v=99
33472 Off ch=2 n=77 v=0
33472 On ch=2 n=72 v=72
33472 On ch=2 n=72 v=85
33536 Off ch=2 n=72 v=0
33536 On ch=2 n=77 v=110
33600 Off ch=2 n=72 v=0
33600 Off ch=2 n=77 v=0
33600 On ch=2 n=76 v=94
33664 Off ch=2 n=76 v=0
33664 On ch=2 n=77 v=104
33728 Off ch=2 n=77 v=0
33728 On ch=2 n=65 v=73
33728 On ch=2 n=81 v=109
33792 Off ch=2 n=81 v=0
33792 On ch=2 n=77 v=89
33856 Off ch=2 n=65 v=0
33856 Off ch=2 n=77 v=0
33856 On ch=2 n=76 v=91
33920 Off ch=2 n=76 v=0
33920 On ch=2 n=77 v=105
33984 Off ch=2 n=77 v=0
33984 On ch=2 n=72 v=77
33984 On ch=2 n=72 v=89
34048 Off ch=2 n=72 v=0
34048 On ch=2 n=77 v=111
34112 Off ch=2 n=72 v=0
34112 Off ch=2 n=77 v=0
34112 On ch=2 n=76 v=91
34176 Off ch=2 n=76 v=0
34176 On ch=2 n=77 v=103
34240 Off ch=2 n=77 v=0
34240 On ch=2 n=64 v=72
34240 On ch=2 n=79 v=107
34304 Off ch=2 n=79 v=0
34304 On ch=2 n=76 v=88
34368 Off ch=2 n=64 v=0
34368 Off ch=2 n=76 v=0
34368 On ch=2 n=74 v=89
34432 Off ch=2 n=74 v=0
34432 On ch=2 n=76 v=102
34496 Off ch=2 n=76 v=0
34496 On ch=2 n=72 v=75
34496 On ch=2 n=72 v=89
34560 Off ch=2 n=72 v=0
34560 On ch=2 n=76 v=112
34624 Off ch=2 n=72 v=0
34624 Off ch=2 n=76 v=0
34624 On ch=2 n=74 v=99
34688 Off ch=2 n=74 v=0
34688 On ch=2 n=76 v=102
34752 Off ch=2 n=76 v=0
34752 On ch=2 n=64 v=72
34752 On ch=2 n=79 v=109
34816 Off ch=2 n=79 v=0
34816 On ch=2 n=76 v=89
34880 Off ch=2 n=64 v=0
34880 Off ch=2 n=76 v=0
34880 On ch=2 n=74 v=93
34944 Off ch=2 n=74 v=0
34944 On ch=2 n=76 v=103
35008 Off ch=2 n=76 v=0
35008 On ch=2 n=72 v=79
35008 On ch=2 n=72 v=90
35072 Off ch=2 n=72 v=0
35072 On ch=2 n=76 v=109
35136 Off ch=2 n=72 v=0
35136 Off ch=2 n=76 v=0
35136 On ch=2 n=74 v=95
35200 Off ch=2 n=74 v=0
35200 On ch=2 n=76 v=104
35264 Off ch=2 n=76 v=0
35264 On ch=2 n=65 v=62
35264 On ch=2 n=81 v=78
35328 Off ch=2 n=81 v=0
35328 On ch=2 n=77 v=65
35392 Off ch=2 n=65 v=0
35392 Off ch=2 n=77 v=0
35392 On ch=2 n=76 v=67
35456 Off ch=2 n=76 v=0
35456 On ch=2 n=77 v=73
35520 Off ch=2 n=77 v=0
35520 On ch=2 n=72 v=62
35520 On ch=2 n=72 v=62
35584 Off ch=2 n=72 v=0
35584 On ch=2 n=77 v=76
35648 Off ch=2 n=72 v=0
35648 Off ch=2 n=77 v=0
35648 On ch=2 n=76 v=68
35712 Off ch=2 n=76 v=0
35712 On ch=2 n=77 v=74
35776 Off ch=2 n=77 v=0
35776 On ch=2 n=65 v=64
35776 On ch=2 n=81 v=79
35840 Off ch=2 n=81 v=0
35840 On ch=2 n=77 v=62
35904 Off ch=2 n=65 v=0
35904 Off ch=2 n=77 v=0
35904 On ch=2 n=76 v=67
35968 Off ch=2 n=76 v=0
35968 On ch=2 n=77 v=73
36032 Off ch=2 n=77 v=0
36032 On ch=2 n=72 v=64
36032 On ch=2 n=72 v=63
36096 Off ch=2 n=72 v=0
36096 On ch=2 n=77 v=78
36160 Off ch=2 n=72 v=0
36160 Off ch=2 n=77 v=0
36160 On ch=2 n=76 v=70
36224 Off ch=2 n=76 v=0
36224 On ch=2 n=77 v=76
36288 Off ch=2 n=77 v=0
36288 On ch=2 n=64 v=62
36288 On ch=2 n=79 v=75
36352 Off ch=2 n=79 v=0
36352 On ch=2 n=76 v=66
36416 Off ch=2 n=64 v=0
36416 Off ch=2 n=76 v=0
36416 On ch=2 n=74 v=65
36480 Off ch=2 n=74 v=0
36480 On ch=2 n=76 v=66
36544 Off ch=2 n=76 v=0
36544 On ch=2 n=72 v=65
36544 On ch=2 n=72 v=66
36608 Off ch=2 n=72 v=0
36608 On ch=2 n=76 v=74
36672 Off ch=2 n=72 v=0
36672 Off ch=2 n=76 v=0
36672 On ch=2 n=74 v=65
36736 Off ch=2 n=74 v=0
36736 On ch=2 n=76 v=76
36800 Off ch=2 n=76 v=0
36800 On ch=2 n=64 v=63
36800 On ch=2 n=79 v=73
36864 Off ch=2 n=79 v=0
36864 On ch=2 n=76 v=65
36928 Off ch=2 n=64 v=0
36928 Off ch=2 n=76 v=0
36928 On ch=2 n=74 v=61
36992 Off ch=2 n=74 v=0
36992 On ch=2 n=76 v=74
37056 Off ch=2 n=76 v=0
37056 On ch=2 n=72 v=65
37056 On ch=2 n=72 v=61
37120 Off ch=2 n=72 v=0
37120 On ch=2 n=76 v=79
37184 Off ch=2 n=72 v=0
37184 Off ch=2 n=76 v=0
37184 On ch=2 n=74 v=69
37248 Off ch=2 n=74 v=0
37248 On ch=2 n=76 v=70
37312 Off ch=2 n=76 v=0
37312 On ch=2 n=62 v=93
37312 On ch=2 n=77 v=103
37376 Off ch=2 n=77 v=0
37376 On ch=2 n=79 v=105
37440 Off ch=2 n=62 v=0
37440 Off ch=2 n=79 v=0
37440 On ch=2 n=77 v=93
37504 Off ch=2 n=77 v=0
37504 On ch=2 n=76 v=90
37568 Off ch=2 n=76 v=0
37568 On ch=2 n=74 v=90
37632 Off ch=2 n=74 v=0
37632 On ch=2 n=72 v=90
37696 Off ch=2 n=72 v=0
37696 On ch=2 n=71 v=91
37760 Off ch=2 n=71 v=0
37760 On ch=2 n=69 v=90
37824 Off ch=2 n=69 v=0
37824 On ch=2 n=71 v=99
37888 Off ch=2 n=71 v=0
37888 On ch=2 n=67 v=94
37952 Off ch=2 n=67 v=0
37952 On ch=2 n=71 v=106
38016 Off ch=2 n=71 v=0
38016 On ch=2 n=74 v=109
38080 Off ch=2 n=74 v=0
38080 On ch=2 n=77 v=91
38144 Off ch=2 n=77 v=0
38144 On ch=2 n=81 v=105
38208 Off ch=2 n=81 v=0
38208 On ch=2 n=77 v=92
38272 Off ch=2 n=77 v=0
38272 On ch=2 n=74 v=86
38336 Off ch=2 n=74 v=0
38336 On ch=2 n=71 v=87
38400 Off ch=2 n=71 v=0
38400 On ch=2 n=67 v=88
38464 Off ch=2 n=67 v=0
38464 On ch=2 n=71 v=102
38528 Off ch=2 n=71 v=0
38528 On ch=2 n=74 v=104
38592 Off ch=2 n=74 v=0
38592 On ch=2 n=77 v=86
38656 Off ch=2 n=77 v=0
38656 On ch=2 n=81 v=107
38720 Off ch=2 n=81 v=0
38720 On ch=2 n=77 v=89
38784 Off ch=2 n=77 v=0
38784 On ch=2 n=74 v=90
38848 Off ch=2 n=74 v=0
38848 On ch=2 n=70 v=86
38912 Off ch=2 n=70 v=0
38912 On ch=2 n=67 v=89
38976 Off ch=2 n=67 v=0
38976 On ch=2 n=70 v=105
39040 Off ch=2 n=70 v=0
39040 On ch=2 n=72 v=105
39104 Off ch=2 n=72 v=0
39104 On ch=2 n=76 v=88
39168 Off ch=2 n=76 v=0
39168 On ch=2 n=79 v=105
39232 Off ch=2 n=79 v=0
39232 On ch=2 n=76 v=96
39296 Off ch=2 n=76 v=0
39296 On ch=2 n=72 v=86
39360 Off ch=2 n=72 v=0
39360 On ch=2 n=70 v=90
39424 Off ch=2 n=70 v=0
39424 On ch=2 n=67 v=88
39488 Off ch=2 n=67 v=0
39488 On ch=2 n=70 v=110
39552 Off ch=2 n=70 v=0
39552 On ch=2 n=72 v=106
39616 Off ch=2 n=72 v=0
39616 On ch=2 n=76 v=86
39680 Off ch=2 n=76 v=0
39680 On ch=2 n=79 v=100
39744 Off ch=2 n=79 v=0
39744 On ch=2 n=76 v=95
39808 Off ch=2 n=76 v=0
39808 On ch=2 n=72 v=81
39872 Off ch=2 n=72 v=0
39872 On ch=2 n=69 v=86
39936 Off ch=2 n=69 v=0
39936 On ch=2 n=65 v=82
40000 Off ch=2 n=65 v=0
40000 On ch=2 n=69 v=109
40064 Off ch=2 n=69 v=0
40064 On ch=2 n=72 v=107
40128 Off ch=2 n=72 v=0
40128 On ch=2 n=74 v=92
40192 Off ch=2 n=74 v=0
40192 On ch=2 n=77 v=107
40256 Off ch=2 n=77 v=0
40256 On ch=2 n=74 v=88
40320 Off ch=2 n=74 v=0
40320 On ch=2 n=70 v=85
40384 Off ch=2 n=70 v=0
40384 On ch=2 n=69 v=65
40448 Off ch=2 n=69 v=0
40448 On ch=2 n=65 v=62
40512 Off ch=2 n=65 v=0
40512 On ch=2 n=69 v=80
40576 Off ch=2 n=69 v=0
40576 On ch=2 n=70 v=76
40640 Off ch=2 n=70 v=0
40640 On ch=2 n=74 v=60
40704 Off ch=2 n=74 v=0
40704 On ch=2 n=77 v=80
40768 Off ch=2 n=77 v=0
40768 On ch=2 n=74 v=63
40832 Off ch=2 n=74 v=0
40832 On ch=2 n=70 v=65
40896 Off ch=2 n=70 v=0
40896 On ch=2 n=67 v=61
40960 Off ch=2 n=67 v=0
40960 On ch=2 n=64 v=63
41024 Off ch=2 n=64 v=0
41024 On ch=2 n=67 v=73
41088 Off ch=2 n=67 v=0
41088 On ch=2 n=70 v=82
41152 Off ch=2 n=70 v=0
41152 On ch=2 n=73 v=66
41216 Off ch=2 n=73 v=0
41216 On ch=2 n=76 v=74
41280 Off ch=2 n=76 v=0
41280 On ch=2 n=73 v=65
41344 Off ch=2 n=73 v=0
41344 On ch=2 n=70 v=63
41408 Off ch=2 n=70 v=0
41408 On ch=2 n=67 v=62
41472 Off ch=2 n=67 v=0
41472 On ch=2 n=64 v=64
41536 Off ch=2 n=64 v=0
41536 On ch=2 n=67 v=80
41600 Off ch=2 n=67 v=0
41600 On ch=2 n=70 v=76
41664 Off ch=2 n=70 v=0
41664 On ch=2 n=73 v=62
41728 Off ch=2 n=73 v=0
41728 On ch=2 n=76 v=74
41792 Off ch=2 n=76 v=0
41792 On ch=2 n=73 v=63
41856 Off ch=2 n=73 v=0
41856 On ch=2 n=70 v=66
41920 Off ch=2 n=70 v=0
41920 On ch=2 n=69 v=66
41984 On ch=2 n=81 v=62
42048 Off ch=2 n=69 v=0
42048 Off ch=2 n=81 v=0
42048 On ch=2 n=73 v=80
42048 On ch=2 n=79 v=67
42112 Off ch=2 n=79 v=0
42112 On ch=2 n=81 v=79
42176 Off ch=2 n=73 v=0
42176 Off ch=2 n=81 v=0
42176 On ch=2 n=74 v=74
42176 On ch=2 n=77 v=64
42240 Off ch=2 n=77 v=0
42240 On ch=2 n=81 v=79
42304 Off ch=2 n=74 v=0
42304 Off ch=2 n=81 v=0
42304 On ch=2 n=67 v=59
42304 On ch=2 n=76 v=61
42368 Off ch=2 n=76 v=0
42368 On ch=2 n=81 v=76
42432 Off ch=2 n=67 v=0
42432 Off ch=2 n=81 v=0
42432 On ch=2 n=65 v=60
42432 On ch=2 n=74 v=57
42496 Off ch=2 n=74 v=0
42496 On ch=2 n=81 v=84
42560 Off ch=2 n=65 v=0
42560 Off ch=2 n=81 v=0
42560 On ch=2 n=69 v=79
42560 On ch=2 n=73 v=58
42624 Off ch=2 n=73 v=0
42624 On ch=2 n=81 v=82
42688 Off ch=2 n=69 v=0
42688 Off ch=2 n=81 v=0
42688 On ch=2 n=71 v=74
42688 On ch=2 n=74 v=61
42752 Off ch=2 n=74 v=0
42752 On ch=2 n=81 v=85
42816 Off ch=2 n=71 v=0
42816 Off ch=2 n=81 v=0
42816 On ch=2 n=73 v=72
42816 On ch=2 n=76 v=64
42880 Off ch=2 n=76 v=0
42880 On ch=2 n=81 v=77
42944 Off ch=2 n=73 v=0
42944 Off ch=2 n=81 v=0
42944 On ch=2 n=74 v=74
42944 On ch=2 n=77 v=65
43008 Off ch=2 n=77 v=0
43008 On ch=2 n=81 v=78
43072 Off ch=2 n=74 v=0
43072 Off ch=2 n=81 v=0
43072 On ch=2 n=73 v=68
43072 On ch=2 n=69 v=50
43136 Off ch=2 n=69 v=0
43136 On ch=2 n=81 v=90
43200 Off ch=2 n=73 v=0
43200 Off ch=2 n=81 v=0
43200 On ch=2 n=74 v=73
43200 On ch=2 n=71 v=57
43264 Off ch=2 n=71 v=0
43264 On ch=2 n=81 v=81
43328 Off ch=2 n=74 v=0
43328 Off ch=2 n=81 v=0
43328 On ch=2 n=76 v=79
43328 On ch=2 n=73 v=61
43392 Off ch=2 n=73 v=0
43392 On ch=2 n=81 v=81
43456 Off ch=2 n=76 v=0
43456 Off ch=2 n=81 v=0
43456 On ch=2 n=77 v=82
43456 On ch=2 n=74 v=61
43520 Off ch=2 n=74 v=0
43520 On ch=2 n=81 v=83
43584 Off ch=2 n=77 v=0
43584 Off ch=2 n=81 v=0
43584 On ch=2 n=76 v=66
43584 On ch=2 n=73 v=58
43648 Off ch=2 n=73 v=0
43648 On ch=2 n=81 v=84
43712 Off ch=2 n=76 v=0
43712 Off ch=2 n=81 v=0
43712 On ch=2 n=74 v=59
43712 On ch=2 n=77 v=71
43776 On ch=2 n=69 v=62
43840 Off ch=2 n=74 v=0
43840 Off ch=2 n=77 v=0
43840 Off ch=2 n=69 v=0
43840 On ch=2 n=67 v=68
43840 On ch=2 n=76 v=73
43840 On ch=2 n=73 v=62
43904 Off ch=2 n=67 v=0
43904 On ch=2 n=69 v=75
43968 Off ch=2 n=76 v=0
43968 Off ch=2 n=73 v=0
43968 Off ch=2 n=69 v=0
43968 On ch=2 n=74 v=60
44032 On ch=2 n=66 v=62
44096 Off ch=2 n=74 v=0
44096 Off ch=2 n=66 v=0
44096 On ch=2 n=64 v=65
44096 On ch=2 n=72 v=68
44096 On ch=2 n=69 v=68
44160 Off ch=2 n=64 v=0
44160 On ch=2 n=66 v=74
44224 Off ch=2 n=72 v=0
44224 Off ch=2 n=69 v=0
44224 Off ch=2 n=66 v=0
44224 On ch=2 n=67 v=61
44224 On ch=2 n=70 v=63
44288 On ch=2 n=62 v=59
44352 Off ch=2 n=67 v=0
44352 Off ch=2 n=70 v=0
44352 Off ch=2 n=62 v=0
44352 On ch=2 n=60 v=63
44352 On ch=2 n=66 v=60
44352 On ch=2 n=69 v=68
44416 Off ch=2 n=60 v=0
44416 On ch=2 n=62 v=74
44480 Off ch=2 n=66 v=0
44480 Off ch=2 n=69 v=0
44480 Off ch=2 n=62 v=0
44480 On ch=2 n=58 v=75
44480 On ch=2 n=67 v=60
44480 On ch=2 n=70 v=70
44544 Off ch=2 n=58 v=0
44544 Off ch=2 n=70 v=0
44544 On ch=2 n=60 v=73
44544 On ch=2 n=69 v=64
44608 Off ch=2 n=67 v=0
44608 Off ch=2 n=60 v=0
44608 Off ch=2 n=69 v=0
44608 On ch=2 n=58 v=67
44608 On ch=2 n=67 v=67
44672 Off ch=2 n=58 v=0
44672 Off ch=2 n=67 v=0
44672 On ch=2 n=57 v=66
44672 On ch=2 n=65 v=60
44736 Off ch=2 n=57 v=0
44736 Off ch=2 n=65 v=0
44736 On ch=2 n=55 v=67
44736 On ch=2 n=64 v=66
44800 Off ch=2 n=55 v=0
44800 Off ch=2 n=64 v=0
44800 On ch=2 n=53 v=67
44800 On ch=2 n=62 v=66
44864 Off ch=2 n=53 v=0
44864 Off ch=2 n=62 v=0
44864 On ch=2 n=52 v=66
44864 On ch=2 n=61 v=72
44928 Off ch=2 n=52 v=0
44928 Off ch=2 n=61 v=0
44928 On ch=2 n=50 v=68
44928 On ch=2 n=59 v=69
44992 Off ch=2 n=50 v=0
44992 Off ch=2 n=59 v=0
44992 On ch=2 n=49 v=69
44992 On ch=2 n=57 v=64
45056 Off ch=2 n=49 v=0
45056 Off ch=2 n=57 v=0
45056 On ch=2 n=45 v=65
45120 Off ch=2 n=45 v=0
45120 On ch=2 n=49 v=73
45184 Off ch=2 n=49 v=0
45184 On ch=2 n=52 v=77
45248 Off ch=2 n=52 v=0
45248 On ch=2 n=55 v=58
45312 Off ch=2 n=55 v=0
45312 On ch=2 n=58 v=75
45376 Off ch=2 n=58 v=0
45376 On ch=2 n=55 v=67
45440 Off ch=2 n=55 v=0
45440 On ch=2 n=52 v=68
45504 Off ch=2 n=52 v=0
45504 On ch=2 n=49 v=64
45568 Off ch=2 n=49 v=0
45568 On ch=2 n=45 v=68
45632 Off ch=2 n=45 v=0
45632 On ch=2 n=49 v=72
45696 Off ch=2 n=49 v=0
45696 On ch=2 n=52 v=77
45760 Off ch=2 n=52 v=0
45760 On ch=2 n=55 v=67
45824 Off ch=2 n=55 v=0
45824 On ch=2 n=58 v=71
45888 Off ch=2 n=58 v=0
45888 On ch=2 n=55 v=72
45952 Off ch=2 n=55 v=0
45952 On ch=2 n=52 v=70
46016 Off ch=2 n=52 v=0
46016 On ch=2 n=50 v=61
46080 Off ch=2 n=50 v=0
46080 On ch=2 n=45 v=68
46144 Off ch=2 n=45 v=0
46144 On ch=2 n=50 v=77
46208 Off ch=2 n=50 v=0
46208 On ch=2 n=53 v=73
46272 Off ch=2 n=53 v=0
46272 On ch=2 n=57 v=65
46336 Off ch=2 n=57 v=0
46336 On ch=2 n=62 v=79
46400 Off ch=2 n=62 v=0
46400 On ch=2 n=57 v=67
46464 Off ch=2 n=57 v=0
46464 On ch=2 n=53 v=66
46528 Off ch=2 n=53 v=0
46528 On ch=2 n=50 v=63
46592 Off ch=2 n=50 v=0
46592 On ch=2 n=45 v=64
46656 Off ch=2 n=45 v=0
46656 On ch=2 n=50 v=74
46720 Off ch=2 n=50 v=0
46720 On ch=2 n=53 v=73
46784 Off ch=2 n=53 v=0
46784 On ch=2 n=57 v=63
46848 Off ch=2 n=57 v=0
46848 On ch=2 n=62 v=78
46912 Off ch=2 n=62 v=0
46912 On ch=2 n=57 v=67
46976 Off ch=2 n=57 v=0
46976 On ch=2 n=53 v=68
47040 Off ch=2 n=53 v=0
47040 On ch=2 n=49 v=63
47104 Off ch=2 n=49 v=0
47104 On ch=2 n=45 v=62
47168 Off ch=2 n=45 v=0
47168 On ch=2 n=49 v=77
47232 Off ch=2 n=49 v=0
47232 On ch=2 n=52 v=75
47296 Off ch=2 n=52 v=0
47296 On ch=2 n=55 v=61
47360 Off ch=2 n=55 v=0
47360 On ch=2 n=58 v=70
47424 Off ch=2 n=58 v=0
47424 On ch=2 n=55 v=68
47488 Off ch=2 n=55 v=0
47488 On ch=2 n=52 v=67
47552 Off ch=2 n=52 v=0
47552 On ch=2 n=49 v=68
47616 Off ch=2 n=49 v=0
47616 On ch=2 n=45 v=67
47680 Off ch=2 n=45 v=0
47680 On ch=2 n=49 v=75
47744 Off ch=2 n=49 v=0
47744 On ch=2 n=52 v=78
47808 Off ch=2 n=52 v=0
47808 On ch=2 n=55 v=60
47872 Off ch=2 n=55 v=0
47872 On ch=2 n=58 v=72
47936 Off ch=2 n=58 v=0
47936 On ch=2 n=55 v=68
48000 Off ch=2 n=55 v=0
48000 On ch=2 n=52 v=67
48064 Off ch=2 n=52 v=0
48064 On ch=2 n=50 v=62
48128 Off ch=2 n=50 v=0
48128 On ch=2 n=45 v=64
48192 Off ch=2 n=45 v=0
48192 On ch=2 n=50 v=74
48256 Off ch=2 n=50 v=0
48256 On ch=2 n=53 v=75
48320 Off ch=2 n=53 v=0
48320 On ch=2 n=57 v=66
48384 Off ch=2 n=57 v=0
48384 On ch=2 n=62 v=83
48448 Off ch=2 n=62 v=0
48448 On ch=2 n=57 v=66
48512 Off ch=2 n=57 v=0
48512 On ch=2 n=53 v=67
48576 Off ch=2 n=53 v=0
48576 On ch=2 n=50 v=66
48640 Off ch=2 n=50 v=0
48640 On ch=2 n=45 v=65
48704 Off ch=2 n=45 v=0
48704 On ch=2 n=50 v=72
48768 Off ch=2 n=50 v=0
48768 On ch=2 n=53 v=78
48832 Off ch=2 n=53 v=0
48832 On ch=2 n=57 v=65
48896 Off ch=2 n=57 v=0
48896 On ch=2 n=62 v=79
48960 Off ch=2 n=62 v=0
48960 On ch=2 n=57 v=65
49024 Off ch=2 n=57 v=0
49024 On ch=2 n=53 v=66
49088 Off ch=2 n=53 v=0
49088 On ch=2 n=52 v=64
49152 Off ch=2 n=52 v=0
49152 On ch=2 n=49 v=65
49216 Off ch=2 n=49 v=0
49216 On ch=2 n=52 v=71
49280 Off ch=2 n=52 v=0
49280 On ch=2 n=55 v=77
49344 Off ch=2 n=55 v=0
49344 On ch=2 n=58 v=63
49408 Off ch=2 n=58 v=0
49408 On ch=2 n=61 v=76
49472 Off ch=2 n=61 v=0
49472 On ch=2 n=58 v=71
49536 Off ch=2 n=58 v=0
49536 On ch=2 n=55 v=66
49600 Off ch=2 n=55 v=0
49600 On ch=2 n=52 v=65
49664 Off ch=2 n=52 v=0
49664 On ch=2 n=49 v=67
49728 Off ch=2 n=49 v=0
49728 On ch=2 n=52 v=67
49792 Off ch=2 n=52 v=0
49792 On ch=2 n=55 v=74
49856 Off ch=2 n=55 v=0
49856 On ch=2 n=58 v=62
49920 Off ch=2 n=58 v=0
49920 On ch=2 n=61 v=80
49984 Off ch=2 n=61 v=0
49984 On ch=2 n=58 v=65
50048 Off ch=2 n=58 v=0
50048 On ch=2 n=55 v=68
50112 Off ch=2 n=55 v=0
50112 On ch=2 n=53 v=63
50176 Off ch=2 n=53 v=0
50176 On ch=2 n=50 v=62
50240 Off ch=2 n=50 v=0
50240 On ch=2 n=53 v=73
50304 Off ch=2 n=53 v=0
50304 On ch=2 n=57 v=77
50368 Off ch=2 n=57 v=0
50368 On ch=2 n=62 v=67
50432 Off ch=2 n=62 v=0
50432 On ch=2 n=65 v=73
50496 Off ch=2 n=65 v=0
50496 On ch=2 n=62 v=65
50560 Off ch=2 n=62 v=0
50560 On ch=2 n=57 v=67
50624 Off ch=2 n=57 v=0
50624 On ch=2 n=53 v=67
50688 Off ch=2 n=53 v=0
50688 On ch=2 n=50 v=68
50752 Off ch=2 n=50 v=0
50752 On ch=2 n=53 v=74
50816 Off ch=2 n=53 v=0
50816 On ch=2 n=57 v=72
50880 Off ch=2 n=57 v=0
50880 On ch=2 n=62 v=64
50944 Off ch=2 n=62 v=0
50944 On ch=2 n=65 v=79
51008 Off ch=2 n=65 v=0
51008 On ch=2 n=62 v=64
51072 Off ch=2 n=62 v=0
51072 On ch=2 n=57 v=65
51136 Off ch=2 n=57 v=0
51136 On ch=2 n=52 v=65
51200 Off ch=2 n=52 v=0
51200 On ch=2 n=49 v=68
51264 Off ch=2 n=49 v=0
51264 On ch=2 n=52 v=76
51328 Off ch=2 n=52 v=0
51328 On ch=2 n=55 v=70
51392 Off ch=2 n=55 v=0
51392 On ch=2 n=58 v=62
51456 Off ch=2 n=58 v=0
51456 On ch=2 n=61 v=72
51520 Off ch=2 n=61 v=0
51520 On ch=2 n=58 v=71
51584 Off ch=2 n=58 v=0
51584 On ch=2 n=55 v=65
51648 Off ch=2 n=55 v=0
51648 On ch=2 n=52 v=65
51712 Off ch=2 n=52 v=0
51712 On ch=2 n=49 v=65
51776 Off ch=2 n=49 v=0
51776 On ch=2 n=52 v=72
51840 Off ch=2 n=52 v=0
51840 On ch=2 n=55 v=76
51904 Off ch=2 n=55 v=0
51904 On ch=2 n=58 v=59
51968 Off ch=2 n=58 v=0
51968 On ch=2 n=61 v=72
52032 Off ch=2 n=61 v=0
52032 On ch=2 n=58 v=68
52096 Off ch=2 n=58 v=0
52096 On ch=2 n=55 v=65
52160 Off ch=2 n=55 v=0
52160 On ch=2 n=53 v=65
52224 Off ch=2 n=53 v=0
52224 On ch=2 n=50 v=69
52288 Off ch=2 n=50 v=0
52288 On ch=2 n=53 v=77
52352 Off ch=2 n=53 v=0
52352 On ch=2 n=57 v=76
52416 Off ch=2 n=57 v=0
52416 On ch=2 n=62 v=64
52480 Off ch=2 n=62 v=0
52480 On ch=2 n=65 v=80
52544 Off ch=2 n=65 v=0
52544 On ch=2 n=62 v=66
52608 Off ch=2 n=62 v=0
52608 On ch=2 n=57 v=63
52672 Off ch=2 n=57 v=0
52672 On ch=2 n=53 v=64
52736 Off ch=2 n=53 v=0
52736 On ch=2 n=50 v=62
52800 Off ch=2 n=50 v=0
52800 On ch=2 n=53 v=73
52864 Off ch=2 n=53 v=0
52864 On ch=2 n=57 v=73
52928 Off ch=2 n=57 v=0
52928 On ch=2 n=62 v=67
52992 Off ch=2 n=62 v=0
52992 On ch=2 n=65 v=76
53056 Off ch=2 n=65 v=0
53056 On ch=2 n=62 v=66
53120 Off ch=2 n=62 v=0
53120 On ch=2 n=57 v=64
53184 Off ch=2 n=57 v=0
53184 On ch=2 n=55 v=61
53248 Off ch=2 n=55 v=0
53248 On ch=2 n=52 v=67
53312 Off ch=2 n=52 v=0
53312 On ch=2 n=55 v=69
53376 Off ch=2 n=55 v=0
53376 On ch=2 n=58 v=73
53440 Off ch=2 n=58 v=0
53440 On ch=2 n=61 v=64
53504 Off ch=2 n=61 v=0
53504 On ch=2 n=64 v=72
53568 Off ch=2 n=64 v=0
53568 On ch=2 n=61 v=66
53632 Off ch=2 n=61 v=0
53632 On ch=2 n=58 v=66
53696 Off ch=2 n=58 v=0
53696 On ch=2 n=55 v=67
53760 Off ch=2 n=55 v=0
53760 On ch=2 n=52 v=67
53824 Off ch=2 n=52 v=0
53824 On ch=2 n=55 v=74
53888 Off ch=2 n=55 v=0
53888 On ch=2 n=58 v=72
53952 Off ch=2 n=58 v=0
53952 On ch=2 n=61 v=64
54016 Off ch=2 n=61 v=0
54016 On ch=2 n=64 v=77
54080 Off ch=2 n=64 v=0
54080 On ch=2 n=61 v=65
54144 Off ch=2 n=61 v=0
54144 On ch=2 n=58 v=68
54208 Off ch=2 n=58 v=0
54208 On ch=2 n=57 v=60
54272 Off ch=2 n=57 v=0
54272 On ch=2 n=53 v=70
54336 Off ch=2 n=53 v=0
54336 On ch=2 n=57 v=69
54400 Off ch=2 n=57 v=0
54400 On ch=2 n=61 v=82
54464 Off ch=2 n=61 v=0
54464 On ch=2 n=62 v=64
54528 Off ch=2 n=62 v=0
54528 On ch=2 n=65 v=72
54592 Off ch=2 n=65 v=0
54592 On ch=2 n=62 v=69
54656 Off ch=2 n=62 v=0
54656 On ch=2 n=57 v=62
54720 Off ch=2 n=57 v=0
54720 On ch=2 n=58 v=65
54784 Off ch=2 n=58 v=0
54784 On ch=2 n=62 v=66
54848 Off ch=2 n=62 v=0
54848 On ch=2 n=58 v=67
54912 Off ch=2 n=58 v=0
54912 On ch=2 n=55 v=63
54976 Off ch=2 n=55 v=0
54976 On ch=2 n=53 v=69
55040 Off ch=2 n=53 v=0
55040 On ch=2 n=57 v=64
55104 Off ch=2 n=57 v=0
55104 On ch=2 n=53 v=67
55168 Off ch=2 n=53 v=0
55168 On ch=2 n=50 v=62
55232 Off ch=2 n=50 v=0
55232 On ch=2 n=45 v=65
55296 Off ch=2 n=45 v=0
55296 On ch=2 n=50 v=61
55360 Off ch=2 n=50 v=0
55360 On ch=2 n=45 v=64
55424 Off ch=2 n=45 v=0
55424 On ch=2 n=41 v=63
55488 Off ch=2 n=41 v=0
55488 On ch=2 n=38 v=69
55552 Off ch=2 n=38 v=0
55552 On ch=2 n=50 v=65
55616 Off ch=2 n=50 v=0
55616 On ch=2 n=49 v=67
55680 Off ch=2 n=49 v=0
55680 On ch=2 n=47 v=71
55744 Off ch=2 n=47 v=0
55744 On ch=2 n=49 v=66
55808 Off ch=2 n=49 v=0
55808 On ch=2 n=58 v=61
55872 Off ch=2 n=58 v=0
55872 On ch=2 n=57 v=66
55936 Off ch=2 n=57 v=0
55936 On ch=2 n=55 v=66
56000 Off ch=2 n=55 v=0
56000 On ch=2 n=53 v=68
56064 Off ch=2 n=53 v=0
56064 On ch=2 n=55 v=66
56128 Off ch=2 n=55 v=0
56128 On ch=2 n=53 v=67
56192 Off ch=2 n=53 v=0
56192 On ch=2 n=52 v=67
56256 Off ch=2 n=52 v=0
56256 On ch=2 n=50 v=64
56320 Off ch=2 n=50 v=0
56320 On ch=2 n=58 v=64
56384 Off ch=2 n=58 v=0
56384 On ch=2 n=57 v=69
56448 Off ch=2 n=57 v=0
56448 On ch=2 n=55 v=66
56512 Off ch=2 n=55 v=0
56512 On ch=2 n=53 v=68
56576 Off ch=2 n=53 v=0
56576 On ch=2 n=55 v=68
56640 Off ch=2 n=55 v=0
56640 On ch=2 n=53 v=70
56704 Off ch=2 n=53 v=0
56704 On ch=2 n=52 v=71
56768 Off ch=2 n=52 v=0
56768 On ch=2 n=50 v=69
56832 Off ch=2 n=50 v=0
56832 On ch=2 n=52 v=67
56864 Off ch=2 n=52 v=0
56864 On ch=2 n=53 v=70
56896 Off ch=2 n=53 v=0
56896 On ch=2 n=55 v=74
56928 Off ch=2 n=55 v=0
56928 On ch=2 n=57 v=75
56960 Off ch=2 n=57 v=0
56960 On ch=2 n=59 v=71
56992 Off ch=2 n=59 v=0
56992 On ch=2 n=61 v=72
57024 Off ch=2 n=61 v=0
57024 On ch=2 n=62 v=77
57088 Off ch=2 n=62 v=0
57088 On ch=2 n=65 v=63
57152 Off ch=2 n=65 v=0
57152 On ch=2 n=64 v=68
57216 Off ch=2 n=64 v=0
57216 On ch=2 n=62 v=64
57280 Off ch=2 n=62 v=0
57280 On ch=2 n=57 v=63
57280 On ch=2 n=69 v=81
57344 Off ch=2 n=57 v=0
57344 Off ch=2 n=69 v=0
57344 On ch=2 n=59 v=70
57376 Off ch=2 n=59 v=0
57376 On ch=2 n=61 v=75
57408 Off ch=2 n=61 v=0
57408 On ch=2 n=62 v=77
57440 Off ch=2 n=62 v=0
57440 On ch=2 n=64 v=78
57472 Off ch=2 n=64 v=0
57472 On ch=2 n=65 v=76
57504 Off ch=2 n=65 v=0
57504 On ch=2 n=67 v=71
57536 Off ch=2 n=67 v=0
57536 On ch=2 n=69 v=77
57600 Off ch=2 n=69 v=0
57600 On ch=2 n=67 v=65
57600 On ch=2 n=76 v=61
57664 Off ch=2 n=67 v=0
57664 Off ch=2 n=76 v=0
57664 On ch=2 n=65 v=71
57664 On ch=2 n=74 v=68
57728 Off ch=2 n=65 v=0
57728 Off ch=2 n=74 v=0
57728 On ch=2 n=64 v=64
57728 On ch=2 n=73 v=67
57792 Off ch=2 n=64 v=0
57792 Off ch=2 n=73 v=0
57792 On ch=2 n=65 v=75
57792 On ch=2 n=74 v=78
57856 Off ch=2 n=74 v=0
57856 On ch=2 n=75 v=73
57888 Off ch=2 n=75 v=0
57888 On ch=2 n=74 v=65
57920 Off ch=2 n=65 v=0
57920 Off ch=2 n=74 v=0
57920 On ch=2 n=72 v=68
57952 Off ch=2 n=72 v=0
57952 On ch=2 n=70 v=62
57984 Off ch=2 n=70 v=0
57984 On ch=2 n=69 v=67
58016 Off ch=2 n=69 v=0
58016 On ch=2 n=67 v=62
58048 Off ch=2 n=67 v=0
58048 On ch=2 n=66 v=67
58112 On ch=2 n=63 v=66
58176 Off ch=2 n=66 v=0
58176 Off ch=2 n=63 v=0
58176 On ch=2 n=62 v=64
58176 On ch=2 n=69 v=72
58240 Off ch=2 n=62 v=0
58240 On ch=2 n=60 v=67
58304 Off ch=2 n=60 v=0
58304 On ch=2 n=58 v=65
58368 Off ch=2 n=58 v=0
58368 On ch=2 n=55 v=70
58432 Off ch=2 n=69 v=0
58432 Off ch=2 n=55 v=0
58432 On ch=2 n=53 v=65
58432 On ch=2 n=67 v=68
58432 On ch=2 n=59 v=68
58496 Off ch=2 n=53 v=0
58496 On ch=2 n=55 v=71
58560 Off ch=2 n=67 v=0
58560 Off ch=2 n=59 v=0
58560 Off ch=2 n=55 v=0
58560 On ch=2 n=51 v=67
58560 On ch=2 n=72 v=86
58560 On ch=2 n=60 v=86
58624 Off ch=2 n=51 v=0
58624 On ch=2 n=55 v=68
58688 Off ch=2 n=72 v=0
58688 Off ch=2 n=60 v=0
58688 Off ch=2 n=55 v=0
58688 On ch=2 n=50 v=67
58688 On ch=2 n=71 v=64
58688 On ch=2 n=67 v=64
58752 Off ch=2 n=50 v=0
58752 On ch=2 n=55 v=70
58816 Off ch=2 n=71 v=0
58816 Off ch=2 n=67 v=0
58816 Off ch=2 n=55 v=0
58816 On ch=2 n=48 v=63
58816 On ch=2 n=75 v=80
58880 Off ch=2 n=48 v=0
58880 On ch=2 n=55 v=75
58944 Off ch=2 n=75 v=0
58944 Off ch=2 n=55 v=0
58944 On ch=2 n=47 v=67
58944 On ch=2 n=74 v=64
59008 Off ch=2 n=47 v=0
59008 On ch=2 n=55 v=73
59072 Off ch=2 n=74 v=0
59072 Off ch=2 n=55 v=0
59072 On ch=2 n=48 v=63
59072 On ch=2 n=75 v=77
59136 Off ch=2 n=48 v=0
59136 On ch=2 n=55 v=76
59200 Off ch=2 n=75 v=0
59200 Off ch=2 n=55 v=0
59200 On ch=2 n=50 v=70
59200 On ch=2 n=71 v=66
59264 Off ch=2 n=50 v=0
59264 On ch=2 n=55 v=74
59328 Off ch=2 n=71 v=0
59328 Off ch=2 n=55 v=0
59328 On ch=2 n=51 v=65
59328 On ch=2 n=72 v=73
59392 Off ch=2 n=51 v=0
59392 On ch=2 n=55 v=73
59456 Off ch=2 n=72 v=0
59456 Off ch=2 n=55 v=0
59456 On ch=2 n=43 v=63
59456 On ch=2 n=71 v=63
59520 Off ch=2 n=43 v=0
59520 On ch=2 n=55 v=76
59584 Off ch=2 n=71 v=0
59584 Off ch=2 n=55 v=0
59584 On ch=2 n=45 v=67
59584 On ch=2 n=72 v=72
59648 Off ch=2 n=45 v=0
59648 On ch=2 n=55 v=81
59712 Off ch=2 n=72 v=0
59712 Off ch=2 n=55 v=0
59712 On ch=2 n=47 v=66
59712 On ch=2 n=74 v=74
59776 Off ch=2 n=47 v=0
59776 On ch=2 n=55 v=76
59840 Off ch=2 n=74 v=0
59840 Off ch=2 n=55 v=0
59840 On ch=2 n=48 v=67
59840 On ch=2 n=75 v=75
59904 Off ch=2 n=48 v=0
59904 On ch=2 n=55 v=79
59968 Off ch=2 n=75 v=0
59968 Off ch=2 n=55 v=0
59968 On ch=2 n=47 v=68
59968 On ch=2 n=74 v=66
60032 Off ch=2 n=47 v=0
60032 On ch=2 n=55 v=74
60096 Off ch=2 n=74 v=0
60096 Off ch=2 n=55 v=0
60096 On ch=2 n=48 v=65
60096 On ch=2 n=75 v=74
60160 Off ch=2 n=48 v=0
60160 On ch=2 n=55 v=79
60224 Off ch=2 n=75 v=0
60224 Off ch=2 n=55 v=0
60224 On ch=2 n=50 v=70
60224 On ch=2 n=77 v=74
60288 Off ch=2 n=50 v=0
60288 On ch=2 n=55 v=75
60352 Off ch=2 n=77 v=0
60352 Off ch=2 n=55 v=0
60352 On ch=2 n=51 v=65
60352 On ch=2 n=79 v=73
60352 On ch=2 n=67 v=73
60416 Off ch=2 n=79 v=0
60416 Off ch=2 n=67 v=0
60416 On ch=2 n=67 v=50
60480 Off ch=2 n=51 v=0
60480 Off ch=2 n=67 v=0
60480 On ch=2 n=50 v=68
60480 On ch=2 n=65 v=61
60544 Off ch=2 n=65 v=0
60544 On ch=2 n=67 v=74
60608 Off ch=2 n=50 v=0
60608 Off ch=2 n=67 v=0
60608 On ch=2 n=48 v=72
60608 On ch=2 n=63 v=63
60672 Off ch=2 n=63 v=0
60672 On ch=2 n=67 v=82
60736 Off ch=2 n=48 v=0
60736 Off ch=2 n=67 v=0
60736 On ch=2 n=47 v=65
60736 On ch=2 n=62 v=60
60800 Off ch=2 n=62 v=0
60800 On ch=2 n=67 v=80
60864 Off ch=2 n=47 v=0
60864 Off ch=2 n=67 v=0
60864 On ch=2 n=48 v=75
60864 On ch=2 n=60 v=56
60928 Off ch=2 n=60 v=0
60928 On ch=2 n=67 v=79
60992 Off ch=2 n=48 v=0
60992 Off ch=2 n=67 v=0
60992 On ch=2 n=50 v=77
60992 On ch=2 n=59 v=63
61056 Off ch=2 n=59 v=0
61056 On ch=2 n=67 v=86
61120 Off ch=2 n=50 v=0
61120 Off ch=2 n=67 v=0
61120 On ch=2 n=51 v=72
61120 On ch=2 n=60 v=63
61184 Off ch=2 n=60 v=0
61184 On ch=2 n=67 v=81
61248 Off ch=2 n=51 v=0
61248 Off ch=2 n=67 v=0
61248 On ch=2 n=53 v=72
61248 On ch=2 n=62 v=62
61312 Off ch=2 n=62 v=0
61312 On ch=2 n=67 v=84
61376 Off ch=2 n=53 v=0
61376 Off ch=2 n=67 v=0
61376 On ch=2 n=55 v=73
61376 On ch=2 n=63 v=62
61440 Off ch=2 n=63 v=0
61440 On ch=2 n=67 v=76
61504 Off ch=2 n=55 v=0
61504 Off ch=2 n=67 v=0
61504 On ch=2 n=47 v=61
61504 On ch=2 n=55 v=62
61568 Off ch=2 n=55 v=0
61568 On ch=2 n=67 v=94
61632 Off ch=2 n=47 v=0
61632 Off ch=2 n=67 v=0
61632 On ch=2 n=48 v=70
61632 On ch=2 n=57 v=70
61696 Off ch=2 n=57 v=0
61696 On ch=2 n=67 v=84
61760 Off ch=2 n=48 v=0
61760 Off ch=2 n=67 v=0
61760 On ch=2 n=50 v=75
61760 On ch=2 n=59 v=65
61824 Off ch=2 n=59 v=0
61824 On ch=2 n=67 v=82
61888 Off ch=2 n=50 v=0
61888 Off ch=2 n=67 v=0
61888 On ch=2 n=51 v=73
61888 On ch=2 n=60 v=64
61952 Off ch=2 n=60 v=0
61952 On ch=2 n=67 v=82
62016 Off ch=2 n=51 v=0
62016 Off ch=2 n=67 v=0
62016 On ch=2 n=50 v=66
62016 On ch=2 n=59 v=68
62080 Off ch=2 n=59 v=0
62080 On ch=2 n=67 v=82
62144 Off ch=2 n=50 v=0
62144 Off ch=2 n=67 v=0
62144 On ch=2 n=51 v=72
62144 On ch=2 n=60 v=59
62208 Off ch=2 n=60 v=0
62208 On ch=2 n=67 v=87
62272 Off ch=2 n=51 v=0
62272 Off ch=2 n=67 v=0
62272 On ch=2 n=53 v=74
62272 On ch=2 n=62 v=59
62336 Off ch=2 n=62 v=0
62336 On ch=2 n=67 v=82
62400 Off ch=2 n=53 v=0
62400 Off ch=2 n=67 v=0
62400 On ch=2 n=63 v=88
62400 On ch=2 n=55 v=88
62400 On ch=2 n=79 v=93
62464 Off ch=2 n=79 v=0
62464 On ch=2 n=79 v=76
62528 Off ch=2 n=63 v=0
62528 Off ch=2 n=55 v=0
62528 Off ch=2 n=79 v=0
62528 On ch=2 n=47 v=66
62528 On ch=2 n=77 v=69
62592 Off ch=2 n=77 v=0
62592 On ch=2 n=79 v=76
62656 Off ch=2 n=47 v=0
62656 Off ch=2 n=79 v=0
62656 On ch=2 n=48 v=70
62656 On ch=2 n=75 v=67
62656 On ch=2 n=67 v=67
62720 Off ch=2 n=75 v=0
62720 Off ch=2 n=67 v=0
62720 On ch=2 n=77 v=75
62720 On ch=2 n=68 v=75
62784 Off ch=2 n=48 v=0
62784 Off ch=2 n=77 v=0
62784 Off ch=2 n=68 v=0
62784 On ch=2 n=50 v=73
62784 On ch=2 n=74 v=67
62784 On ch=2 n=65 v=67
62848 Off ch=2 n=74 v=0
62848 Off ch=2 n=65 v=0
62848 On ch=2 n=75 v=78
62848 On ch=2 n=67 v=78
62912 Off ch=2 n=50 v=0
62912 Off ch=2 n=75 v=0
62912 Off ch=2 n=67 v=0
62912 On ch=2 n=51 v=74
62912 On ch=2 n=72 v=68
62912 On ch=2 n=63 v=68
62976 Off ch=2 n=72 v=0
62976 Off ch=2 n=63 v=0
62976 On ch=2 n=77 v=74
63040 Off ch=2 n=51 v=0
63040 Off ch=2 n=77 v=0
63040 On ch=2 n=45 v=63
63040 On ch=2 n=75 v=67
63040 On ch=2 n=72 v=67
63104 Off ch=2 n=75 v=0
63104 Off ch=2 n=72 v=0
63104 On ch=2 n=77 v=72
63168 Off ch=2 n=45 v=0
63168 Off ch=2 n=77 v=0
63168 On ch=2 n=46 v=68
63168 On ch=2 n=74 v=61
63168 On ch=2 n=65 v=61
63232 Off ch=2 n=74 v=0
63232 Off ch=2 n=65 v=0
63232 On ch=2 n=75 v=80
63232 On ch=2 n=67 v=80
63296 Off ch=2 n=46 v=0
63296 Off ch=2 n=75 v=0
63296 Off ch=2 n=67 v=0
63296 On ch=2 n=48 v=76
63296 On ch=2 n=72 v=61
63296 On ch=2 n=63 v=61
63360 Off ch=2 n=72 v=0
63360 Off ch=2 n=63 v=0
63360 On ch=2 n=74 v=76
63360 On ch=2 n=65 v=76
63424 Off ch=2 n=48 v=0
63424 Off ch=2 n=74 v=0
63424 Off ch=2 n=65 v=0
63424 On ch=2 n=50 v=70
63424 On ch=2 n=70 v=62
63424 On ch=2 n=62 v=62
63488 Off ch=2 n=70 v=0
63488 Off ch=2 n=62 v=0
63488 On ch=2 n=75 v=79
63552 Off ch=2 n=50 v=0
63552 Off ch=2 n=75 v=0
63552 On ch=2 n=43 v=62
63552 On ch=2 n=74 v=69
63552 On ch=2 n=70 v=69
63616 Off ch=2 n=74 v=0
63616 Off ch=2 n=70 v=0
63616 On ch=2 n=75 v=72
63680 Off ch=2 n=43 v=0
63680 Off ch=2 n=75 v=0
63680 On ch=2 n=45 v=70
63680 On ch=2 n=72 v=71
63680 On ch=2 n=63 v=71
63744 Off ch=2 n=72 v=0
63744 Off ch=2 n=63 v=0
63744 On ch=2 n=74 v=73
63744 On ch=2 n=65 v=73
63808 Off ch=2 n=45 v=0
63808 Off ch=2 n=74 v=0
63808 Off ch=2 n=65 v=0
63808 On ch=2 n=46 v=71
63808 On ch=2 n=70 v=61
63808 On ch=2 n=62 v=61
63872 Off ch=2 n=70 v=0
63872 Off ch=2 n=62 v=0
63872 On ch=2 n=72 v=75
63872 On ch=2 n=63 v=75
63936 Off ch=2 n=46 v=0
63936 Off ch=2 n=72 v=0
63936 Off ch=2 n=63 v=0
63936 On ch=2 n=48 v=74
63936 On ch=2 n=69 v=59
63936 On ch=2 n=60 v=59
64000 Off ch=2 n=69 v=0
64000 Off ch=2 n=60 v=0
64000 On ch=2 n=74 v=78
64064 Off ch=2 n=48 v=0
64064 Off ch=2 n=74 v=0
64064 On ch=2 n=50 v=66
64064 On ch=2 n=72 v=67
64064 On ch=2 n=66 v=67
64128 Off ch=2 n=72 v=0
64128 Off ch=2 n=66 v=0
64128 On ch=2 n=74 v=74
64192 Off ch=2 n=50 v=0
64192 Off ch=2 n=74 v=0
64192 On ch=2 n=55 v=75
64192 On ch=2 n=70 v=66
64192 On ch=2 n=67 v=66
64256 Off ch=2 n=70 v=0
64256 Off ch=2 n=67 v=0
64256 On ch=2 n=72 v=72
64256 On ch=2 n=69 v=72
64320 Off ch=2 n=55 v=0
64320 Off ch=2 n=72 v=0
64320 Off ch=2 n=69 v=0
64320 On ch=2 n=50 v=68
64320 On ch=2 n=69 v=66
64320 On ch=2 n=65 v=66
64384 Off ch=2 n=69 v=0
64384 Off ch=2 n=65 v=0
64384 On ch=2 n=70 v=75
64384 On ch=2 n=67 v=75
64448 Off ch=2 n=50 v=0
64448 Off ch=2 n=70 v=0
64448 Off ch=2 n=67 v=0
64448 On ch=2 n=51 v=67
64448 On ch=2 n=67 v=65
64448 On ch=2 n=63 v=65
64512 Off ch=2 n=67 v=0
64512 Off ch=2 n=63 v=0
64512 On ch=2 n=70 v=77
64512 On ch=2 n=67 v=77
64576 Off ch=2 n=51 v=0
64576 Off ch=2 n=70 v=0
64576 Off ch=2 n=67 v=0
64576 On ch=2 n=46 v=67
64576 On ch=2 n=69 v=70
64576 On ch=2 n=66 v=70
64640 Off ch=2 n=69 v=0
64640 Off ch=2 n=66 v=0
64640 On ch=2 n=70 v=75
64640 On ch=2 n=67 v=75
64704 Off ch=2 n=46 v=0
64704 Off ch=2 n=70 v=0
64704 Off ch=2 n=67 v=0
64704 On ch=2 n=45 v=68
64704 On ch=2 n=72 v=80
64704 On ch=2 n=69 v=80
64768 Off ch=2 n=72 v=0
64768 Off ch=2 n=69 v=0
64768 On ch=2 n=70 v=65
64768 On ch=2 n=67 v=65
64832 Off ch=2 n=45 v=0
64832 Off ch=2 n=70 v=0
64832 Off ch=2 n=67 v=0
64832 On ch=2 n=48 v=75
64832 On ch=2 n=69 v=67
64832 On ch=2 n=66 v=67
64896 Off ch=2 n=69 v=0
64896 Off ch=2 n=66 v=0
64896 On ch=2 n=67 v=64
64896 On ch=2 n=64 v=64
64960 Off ch=2 n=48 v=0
64960 Off ch=2 n=67 v=0
64960 Off ch=2 n=64 v=0
64960 On ch=2 n=66 v=67
65024 On ch=2 n=62 v=65
65088 Off ch=2 n=66 v=0
65088 Off ch=2 n=62 v=0
65088 On ch=2 n=60 v=61
65088 On ch=2 n=69 v=78
65152 Off ch=2 n=60 v=0
65152 On ch=2 n=62 v=75
65216 Off ch=2 n=69 v=0
65216 Off ch=2 n=62 v=0
65216 On ch=2 n=58 v=66
65216 On ch=2 n=74 v=83
65280 Off ch=2 n=58 v=0
65280 Off ch=2 n=74 v=0
65280 On ch=2 n=62 v=75
65280 On ch=2 n=67 v=58
65344 Off ch=2 n=62 v=0
65344 Off ch=2 n=67 v=0
65344 On ch=2 n=57 v=65
65344 On ch=2 n=72 v=80
65408 Off ch=2 n=57 v=0
65408 Off ch=2 n=72 v=0
65408 On ch=2 n=62 v=78
65408 On ch=2 n=66 v=61
65472 Off ch=2 n=62 v=0
65472 Off ch=2 n=66 v=0
65472 On ch=2 n=55 v=70
65472 On ch=2 n=70 v=78
65536 Off ch=2 n=55 v=0
65536 Off ch=2 n=70 v=0
65536 On ch=2 n=62 v=81
65536 On ch=2 n=67 v=66
65600 Off ch=2 n=62 v=0
65600 Off ch=2 n=67 v=0
65600 On ch=2 n=54 v=64
65600 On ch=2 n=74 v=83
65664 Off ch=2 n=54 v=0
65664 Off ch=2 n=74 v=0
65664 On ch=2 n=62 v=85
65664 On ch=2 n=69 v=65
65728 Off ch=2 n=62 v=0
65728 Off ch=2 n=69 v=0
65728 On ch=2 n=55 v=66
65728 On ch=2 n=70 v=71
65792 Off ch=2 n=55 v=0
65792 Off ch=2 n=70 v=0
65792 On ch=2 n=62 v=81
65792 On ch=2 n=67 v=68
65856 Off ch=2 n=62 v=0
65856 Off ch=2 n=67 v=0
65856 On ch=2 n=57 v=70
65856 On ch=2 n=69 v=70
65920 Off ch=2 n=57 v=0
65920 Off ch=2 n=69 v=0
65920 On ch=2 n=62 v=82
65920 On ch=2 n=66 v=63
65984 Off ch=2 n=62 v=0
65984 Off ch=2 n=66 v=0
65984 On ch=2 n=58 v=64
65984 On ch=2 n=67 v=77
66048 Off ch=2 n=58 v=0
66048 Off ch=2 n=67 v=0
66048 On ch=2 n=62 v=75
66048 On ch=2 n=74 v=81
66112 Off ch=2 n=62 v=0
66112 Off ch=2 n=74 v=0
66112 On ch=2 n=50 v=63
66112 On ch=2 n=66 v=56
66176 Off ch=2 n=50 v=0
66176 Off ch=2 n=66 v=0
66176 On ch=2 n=62 v=89
66176 On ch=2 n=74 v=81
66240 Off ch=2 n=62 v=0
66240 Off ch=2 n=74 v=0
66240 On ch=2 n=52 v=63
66240 On ch=2 n=67 v=62
66304 Off ch=2 n=52 v=0
66304 Off ch=2 n=67 v=0
66304 On ch=2 n=62 v=86
66304 On ch=2 n=74 v=79
66368 Off ch=2 n=62 v=0
66368 Off ch=2 n=74 v=0
66368 On ch=2 n=54 v=66
66368 On ch=2 n=69 v=66
66432 Off ch=2 n=54 v=0
66432 Off ch=2 n=69 v=0
66432 On ch=2 n=62 v=81
66432 On ch=2 n=74 v=75
66496 Off ch=2 n=62 v=0
66496 Off ch=2 n=74 v=0
66496 On ch=2 n=55 v=68
66496 On ch=2 n=70 v=60
66560 Off ch=2 n=55 v=0
66560 Off ch=2 n=70 v=0
66560 On ch=2 n=62 v=83
66560 On ch=2 n=67 v=61
66624 Off ch=2 n=62 v=0
66624 Off ch=2 n=67 v=0
66624 On ch=2 n=54 v=67
66624 On ch=2 n=74 v=84
66688 Off ch=2 n=54 v=0
66688 Off ch=2 n=74 v=0
66688 On ch=2 n=62 v=81
66688 On ch=2 n=69 v=62
66752 Off ch=2 n=62 v=0
66752 Off ch=2 n=69 v=0
66752 On ch=2 n=55 v=69
66752 On ch=2 n=70 v=72
66816 Off ch=2 n=55 v=0
66816 Off ch=2 n=70 v=0
66816 On ch=2 n=62 v=83
66816 On ch=2 n=67 v=66
66880 Off ch=2 n=62 v=0
66880 Off ch=2 n=67 v=0
66880 On ch=2 n=57 v=65
66880 On ch=2 n=72 v=81
66944 Off ch=2 n=57 v=0
66944 Off ch=2 n=72 v=0
66944 On ch=2 n=62 v=79
66944 On ch=2 n=69 v=63
67008 Off ch=2 n=62 v=0
67008 Off ch=2 n=69 v=0
67008 On ch=2 n=58 v=69
67008 On ch=2 n=74 v=78
67072 Off ch=2 n=74 v=0
67072 On ch=2 n=72 v=68
67136 Off ch=2 n=58 v=0
67136 Off ch=2 n=72 v=0
67136 On ch=2 n=57 v=70
67136 On ch=2 n=70 v=74
67200 Off ch=2 n=70 v=0
67200 On ch=2 n=69 v=70
67264 Off ch=2 n=57 v=0
67264 Off ch=2 n=69 v=0
67264 On ch=2 n=55 v=65
67264 On ch=2 n=55 v=67
67264 On ch=2 n=70 v=71
67328 Off ch=2 n=70 v=0
67328 On ch=2 n=69 v=70
67392 Off ch=2 n=55 v=0
67392 Off ch=2 n=69 v=0
67392 On ch=2 n=43 v=62
67392 On ch=2 n=70 v=72
67456 Off ch=2 n=70 v=0
67456 On ch=2 n=67 v=66
67520 Off ch=2 n=43 v=0
67520 Off ch=2 n=67 v=0
67520 On ch=2 n=48 v=71
67520 On ch=2 n=69 v=73
67584 Off ch=2 n=69 v=0
67584 On ch=2 n=70 v=70
67648 Off ch=2 n=48 v=0
67648 Off ch=2 n=70 v=0
67648 On ch=2 n=45 v=66
67648 On ch=2 n=72 v=76
67712 Off ch=2 n=72 v=0
67712 On ch=2 n=74 v=78
67776 Off ch=2 n=55 v=0
67776 Off ch=2 n=45 v=0
67776 Off ch=2 n=74 v=0
67776 On ch=2 n=54 v=71
67776 On ch=2 n=50 v=77
67776 On ch=2 n=75 v=74
67840 Off ch=2 n=75 v=0
67840 On ch=2 n=74 v=67
67904 Off ch=2 n=50 v=0
67904 Off ch=2 n=74 v=0
67904 On ch=2 n=38 v=61
67904 On ch=2 n=72 v=67
67968 Off ch=2 n=72 v=0
67968 On ch=2 n=74 v=73
68032 Off ch=2 n=54 v=0
68032 Off ch=2 n=38 v=0
68032 Off ch=2 n=74 v=0
68032 On ch=2 n=43 v=62
68032 On ch=2 n=55 v=79
68032 On ch=2 n=70 v=62
68096 Off ch=2 n=70 v=0
68096 On ch=2 n=72 v=74
68160 Off ch=2 n=55 v=0
68160 Off ch=2 n=72 v=0
68160 On ch=2 n=57 v=78
68160 On ch=2 n=69 v=72
68224 Off ch=2 n=69 v=0
68224 On ch=2 n=70 v=74
68288 Off ch=2 n=57 v=0
68288 Off ch=2 n=70 v=0
68288 On ch=2 n=58 v=76
68288 On ch=2 n=67 v=69
68352 Off ch=2 n=58 v=0
68352 On ch=2 n=57 v=67
68416 Off ch=2 n=43 v=0
68416 Off ch=2 n=67 v=0
68416 Off ch=2 n=57 v=0
68416 On ch=2 n=43 v=69
68416 On ch=2 n=55 v=71
68416 On ch=2 n=71 v=79
68480 Off ch=2 n=55 v=0
68480 On ch=2 n=53 v=69
68544 Off ch=2 n=43 v=0
68544 Off ch=2 n=71 v=0
68544 Off ch=2 n=53 v=0
68544 On ch=2 n=48 v=76
68544 On ch=2 n=51 v=70
68544 On ch=2 n=72 v=76
68608 Off ch=2 n=72 v=0
68608 On ch=2 n=75 v=76
68672 Off ch=2 n=51 v=0
68672 Off ch=2 n=75 v=0
68672 On ch=2 n=63 v=92
68672 On ch=2 n=77 v=75
68736 Off ch=2 n=77 v=0
68736 On ch=2 n=79 v=71
68800 Off ch=2 n=63 v=0
68800 Off ch=2 n=79 v=0
68800 On ch=2 n=62 v=74
68800 On ch=2 n=80 v=77
68864 Off ch=2 n=80 v=0
68864 On ch=2 n=79 v=72
68928 Off ch=2 n=48 v=0
68928 Off ch=2 n=79 v=0
68928 On ch=2 n=47 v=68
68928 On ch=2 n=77 v=66
68992 Off ch=2 n=77 v=0
68992 On ch=2 n=79 v=77
69056 Off ch=2 n=62 v=0
69056 Off ch=2 n=47 v=0
69056 Off ch=2 n=79 v=0
69056 On ch=2 n=60 v=69
69056 On ch=2 n=48 v=69
69056 On ch=2 n=75 v=62
69120 Off ch=2 n=75 v=0
69120 On ch=2 n=77 v=81
69184 Off ch=2 n=60 v=0
69184 Off ch=2 n=48 v=0
69184 Off ch=2 n=77 v=0
69184 On ch=2 n=62 v=75
69184 On ch=2 n=74 v=66
69248 Off ch=2 n=74 v=0
69248 On ch=2 n=75 v=77
69312 Off ch=2 n=62 v=0
69312 Off ch=2 n=75 v=0
69312 On ch=2 n=63 v=78
69312 On ch=2 n=72 v=65
69376 Off ch=2 n=63 v=0
69376 On ch=2 n=65 v=73
69440 Off ch=2 n=72 v=0
69440 Off ch=2 n=65 v=0
69440 On ch=2 n=62 v=65
69440 On ch=2 n=70 v=63
69504 Off ch=2 n=62 v=0
69504 On ch=2 n=63 v=76
69568 Off ch=2 n=70 v=0
69568 Off ch=2 n=63 v=0
69568 On ch=2 n=60 v=71
69568 On ch=2 n=69 v=66
69632 Off ch=2 n=60 v=0
69632 On ch=2 n=63 v=75
69696 Off ch=2 n=69 v=0
69696 Off ch=2 n=63 v=0
69696 On ch=2 n=62 v=66
69696 On ch=2 n=70 v=73
69760 Off ch=2 n=62 v=0
69760 On ch=2 n=65 v=81
69824 Off ch=2 n=65 v=0
69824 On ch=2 n=67 v=78
69888 Off ch=2 n=67 v=0
69888 On ch=2 n=65 v=69
69952 Off ch=2 n=70 v=0
69952 Off ch=2 n=65 v=0
69952 On ch=2 n=63 v=64
69952 On ch=2 n=69 v=65
70016 Off ch=2 n=63 v=0
70016 On ch=2 n=65 v=73
70080 Off ch=2 n=65 v=0
70080 On ch=2 n=62 v=67
70144 Off ch=2 n=62 v=0
70144 On ch=2 n=58 v=67
70208 Off ch=2 n=69 v=0
70208 Off ch=2 n=58 v=0
70208 On ch=2 n=63 v=80
70208 On ch=2 n=67 v=63
70272 Off ch=2 n=63 v=0
70272 On ch=2 n=62 v=74
70336 Off ch=2 n=62 v=0
70336 On ch=2 n=61 v=68
70400 Off ch=2 n=61 v=0
70400 On ch=2 n=57 v=66
70464 Off ch=2 n=67 v=0
70464 Off ch=2 n=57 v=0
70464 On ch=2 n=61 v=79
70464 On ch=2 n=66 v=70
70528 Off ch=2 n=61 v=0
70528 On ch=2 n=60 v=70
70592 Off ch=2 n=66 v=0
70592 Off ch=2 n=60 v=0
70592 On ch=2 n=59 v=68
70592 On ch=2 n=65 v=67
70656 Off ch=2 n=59 v=0
70656 On ch=2 n=55 v=66
70720 Off ch=2 n=65 v=0
70720 Off ch=2 n=55 v=0
70720 On ch=2 n=60 v=82
70720 On ch=2 n=63 v=66
70784 Off ch=2 n=60 v=0
70784 On ch=2 n=58 v=69
70848 Off ch=2 n=58 v=0
70848 On ch=2 n=57 v=68
70912 Off ch=2 n=57 v=0
70912 On ch=2 n=53 v=67
70976 Off ch=2 n=63 v=0
70976 Off ch=2 n=53 v=0
70976 On ch=2 n=58 v=74
70976 On ch=2 n=62 v=65
71040 Off ch=2 n=58 v=0
71040 Off ch=2 n=62 v=0
71040 On ch=2 n=61 v=78
71040 On ch=2 n=70 v=81
71104 Off ch=2 n=61 v=0
71104 Off ch=2 n=70 v=0
71104 On ch=2 n=60 v=68
71104 On ch=2 n=69 v=69
71168 Off ch=2 n=60 v=0
71168 Off ch=2 n=69 v=0
71168 On ch=2 n=62 v=73
71168 On ch=2 n=70 v=73
71232 Off ch=2 n=62 v=0
71232 Off ch=2 n=70 v=0
71232 On ch=2 n=60 v=64
71232 On ch=2 n=69 v=66
71296 Off ch=2 n=60 v=0
71296 Off ch=2 n=69 v=0
71296 On ch=2 n=58 v=58
71296 On ch=2 n=67 v=66
71360 Off ch=2 n=58 v=0
71360 Off ch=2 n=67 v=0
71360 On ch=2 n=57 v=67
71360 On ch=2 n=66 v=67
71424 Off ch=2 n=57 v=0
71424 Off ch=2 n=66 v=0
71424 On ch=2 n=60 v=77
71424 On ch=2 n=75 v=82
71488 Off ch=2 n=60 v=0
71488 Off ch=2 n=75 v=0
71488 On ch=2 n=58 v=65
71488 On ch=2 n=74 v=74
71552 Off ch=2 n=58 v=0
71552 Off ch=2 n=74 v=0
71552 On ch=2 n=57 v=73
71552 On ch=2 n=72 v=64
71616 Off ch=2 n=57 v=0
71616 Off ch=2 n=72 v=0
71616 On ch=2 n=55 v=64
71616 On ch=2 n=70 v=65
71680 Off ch=2 n=55 v=0
71680 Off ch=2 n=70 v=0
71680 On ch=2 n=60 v=81
71680 On ch=2 n=81 v=85
71744 Off ch=2 n=60 v=0
71744 Off ch=2 n=81 v=0
71744 On ch=2 n=58 v=72
71744 On ch=2 n=79 v=69
71808 Off ch=2 n=58 v=0
71808 Off ch=2 n=79 v=0
71808 On ch=2 n=57 v=67
71808 On ch=2 n=78 v=63
71872 Off ch=2 n=57 v=0
71872 Off ch=2 n=78 v=0
71872 On ch=2 n=58 v=72
71872 On ch=2 n=79 v=77
71936 Off ch=2 n=58 v=0
71936 On ch=2 n=60 v=75
72000 Off ch=2 n=60 v=0
72000 On ch=2 n=58 v=69
72064 Off ch=2 n=79 v=0
72064 Off ch=2 n=58 v=0
72064 On ch=2 n=57 v=71
72064 On ch=2 n=77 v=65
72128 Off ch=2 n=57 v=0
72128 Off ch=2 n=77 v=0
72128 On ch=2 n=55 v=77
72128 On ch=2 n=75 v=69
72192 Off ch=2 n=55 v=0
72192 Off ch=2 n=75 v=0
72192 On ch=2 n=57 v=73
72192 On ch=2 n=77 v=80
72256 Off ch=2 n=57 v=0
72256 Off ch=2 n=77 v=0
72256 On ch=2 n=53 v=67
72256 On ch=2 n=74 v=67
72320 Off ch=2 n=53 v=0
72320 Off ch=2 n=74 v=0
72320 On ch=2 n=55 v=71
72320 On ch=2 n=75 v=75
72384 Off ch=2 n=55 v=0
72384 Off ch=2 n=75 v=0
72384 On ch=2 n=52 v=67
72384 On ch=2 n=73 v=67
72448 On ch=2 n=70 v=63
72512 Off ch=2 n=70 v=0
72512 On ch=2 n=69 v=65
72576 Off ch=2 n=69 v=0
72576 On ch=2 n=67 v=64
72640 Off ch=2 n=52 v=0
72640 Off ch=2 n=73 v=0
72640 Off ch=2 n=67 v=0
72640 On ch=2 n=54 v=72
72640 On ch=2 n=69 v=74
72640 On ch=2 n=74 v=72
72704 On ch=2 n=63 v=66
72768 Off ch=2 n=63 v=0
72768 On ch=2 n=62 v=66
72832 Off ch=2 n=62 v=0
72832 On ch=2 n=60 v=64
72896 Off ch=2 n=54 v=0
72896 Off ch=2 n=69 v=0
72896 Off ch=2 n=74 v=0
72896 Off ch=2 n=60 v=0
72896 On ch=2 n=50 v=65
72896 On ch=2 n=62 v=74
72896 On ch=2 n=66 v=63
72896 On ch=2 n=72 v=65
72960 Off ch=2 n=62 v=0
72960 On ch=2 n=60 v=67
73024 Off ch=2 n=60 v=0
73024 On ch=2 n=58 v=63
73088 Off ch=2 n=58 v=0
73088 On ch=2 n=57 v=72
73152 Off ch=2 n=50 v=0
73152 Off ch=2 n=66 v=0
73152 Off ch=2 n=72 v=0
73152 Off ch=2 n=57 v=0
73152 On ch=2 n=55 v=79
73152 On ch=2 n=55 v=71
73152 On ch=2 n=67 v=74
73152 On ch=2 n=70 v=72
73216 Off ch=2 n=67 v=0
73216 On ch=2 n=65 v=72
73280 Off ch=2 n=65 v=0
73280 On ch=2 n=63 v=65
73344 Off ch=2 n=63 v=0
73344 On ch=2 n=62 v=70
73408 Off ch=2 n=55 v=0
73408 Off ch=2 n=55 v=0
73408 Off ch=2 n=70 v=0
73408 Off ch=2 n=62 v=0
73408 On ch=2 n=57 v=75
73408 On ch=2 n=61 v=69
73408 On ch=2 n=69 v=63
73472 Off ch=2 n=57 v=0
73472 On ch=2 n=58 v=73
73536 Off ch=2 n=61 v=0
73536 Off ch=2 n=69 v=0
73536 Off ch=2 n=58 v=0
73536 On ch=2 n=57 v=68
73536 On ch=2 n=64 v=75
73536 On ch=2 n=73 v=80
73600 Off ch=2 n=57 v=0
73600 On ch=2 n=55 v=66
73664 Off ch=2 n=64 v=0
73664 Off ch=2 n=73 v=0
73664 Off ch=2 n=55 v=0
73664 On ch=2 n=53 v=66
73664 On ch=2 n=65 v=74
73664 On ch=2 n=74 v=73
73728 Off ch=2 n=53 v=0
73728 On ch=2 n=55 v=72
73792 Off ch=2 n=65 v=0
73792 Off ch=2 n=74 v=0
73792 Off ch=2 n=55 v=0
73792 On ch=2 n=52 v=68
73792 On ch=2 n=67 v=75
73792 On ch=2 n=76 v=71
73856 Off ch=2 n=52 v=0
73856 On ch=2 n=57 v=78
73920 Off ch=2 n=67 v=0
73920 Off ch=2 n=76 v=0
73920 Off ch=2 n=57 v=0
73920 On ch=2 n=50 v=66
73920 On ch=2 n=69 v=73
73920 On ch=2 n=77 v=75
73984 Off ch=2 n=69 v=0
73984 On ch=2 n=67 v=68
74048 Off ch=2 n=67 v=0
74048 On ch=2 n=74 v=64
74048 On ch=2 n=69 v=75
74112 Off ch=2 n=69 v=0
74112 On ch=2 n=65 v=62
74176 Off ch=2 n=50 v=0
74176 Off ch=2 n=77 v=0
74176 Off ch=2 n=65 v=0
74176 On ch=2 n=67 v=76
74176 On ch=2 n=76 v=65
74240 Off ch=2 n=67 v=0
74240 On ch=2 n=69 v=75
74304 Off ch=2 n=69 v=0
74304 On ch=2 n=67 v=68
74368 Off ch=2 n=67 v=0
74368 On ch=2 n=69 v=71
74432 Off ch=2 n=74 v=0
74432 Off ch=2 n=69 v=0
74432 On ch=2 n=73 v=70
74432 On ch=2 n=70 v=72
74496 Off ch=2 n=70 v=0
74496 On ch=2 n=69 v=67
74560 Off ch=2 n=69 v=0
74560 On ch=2 n=67 v=65
74624 Off ch=2 n=67 v=0
74624 On ch=2 n=69 v=72
74688 Off ch=2 n=76 v=0
74688 Off ch=2 n=73 v=0
74688 Off ch=2 n=69 v=0
74688 On ch=2 n=74 v=71
74688 On ch=2 n=65 v=63
74688 On ch=2 n=69 v=60
74752 Off ch=2 n=65 v=0
74752 Off ch=2 n=69 v=0
74752 On ch=2 n=67 v=75
74752 On ch=2 n=70 v=72
74816 Off ch=2 n=67 v=0
74816 Off ch=2 n=70 v=0
74816 On ch=2 n=64 v=66
74816 On ch=2 n=67 v=67
74880 Off ch=2 n=64 v=0
74880 Off ch=2 n=67 v=0
74880 On ch=2 n=65 v=74
74880 On ch=2 n=69 v=74
74944 Off ch=2 n=65 v=0
74944 Off ch=2 n=69 v=0
74944 On ch=2 n=62 v=61
74944 On ch=2 n=65 v=59
75008 Off ch=2 n=62 v=0
75008 On ch=2 n=60 v=66
75072 Off ch=2 n=74 v=0
75072 Off ch=2 n=65 v=0
75072 Off ch=2 n=60 v=0
75072 On ch=2 n=58 v=60
75072 On ch=2 n=77 v=77
75072 On ch=2 n=69 v=76
75136 Off ch=2 n=58 v=0
75136 On ch=2 n=57 v=62
75200 Off ch=2 n=77 v=0
75200 Off ch=2 n=69 v=0
75200 Off ch=2 n=57 v=0
75200 On ch=2 n=58 v=75
75200 On ch=2 n=67 v=65
75200 On ch=2 n=79 v=85
75264 Off ch=2 n=58 v=0
75264 On ch=2 n=57 v=67
75328 Off ch=2 n=67 v=0
75328 Off ch=2 n=79 v=0
75328 Off ch=2 n=57 v=0
75328 On ch=2 n=55 v=67
75328 On ch=2 n=69 v=73
75328 On ch=2 n=74 v=62
75392 Off ch=2 n=55 v=0
75392 On ch=2 n=53 v=71
75456 Off ch=2 n=69 v=0
75456 Off ch=2 n=74 v=0
75456 Off ch=2 n=53 v=0
75456 On ch=2 n=52 v=67
75456 On ch=2 n=67 v=62
75456 On ch=2 n=73 v=66
75520 Off ch=2 n=52 v=0
75520 On ch=2 n=53 v=70
75584 Off ch=2 n=67 v=0
75584 Off ch=2 n=73 v=0
75584 Off ch=2 n=53 v=0
75584 On ch=2 n=52 v=67
75584 On ch=2 n=65 v=67
75584 On ch=2 n=74 v=73
75648 Off ch=2 n=52 v=0
75648 On ch=2 n=50 v=65
75712 Off ch=2 n=65 v=0
75712 Off ch=2 n=74 v=0
75712 Off ch=2 n=50 v=0
75712 On ch=2 n=49 v=72
75712 On ch=2 n=67 v=75
75712 On ch=2 n=76 v=74
75776 Off ch=2 n=49 v=0
75776 On ch=2 n=45 v=68
75840 Off ch=2 n=67 v=0
75840 Off ch=2 n=76 v=0
75840 Off ch=2 n=45 v=0
75840 On ch=2 n=50 v=78
75840 On ch=2 n=65 v=63
75840 On ch=2 n=74 v=68
75904 Off ch=2 n=50 v=0
75904 On ch=2 n=45 v=67
75968 Off ch=2 n=65 v=0
75968 Off ch=2 n=74 v=0
75968 Off ch=2 n=45 v=0
75968 On ch=2 n=52 v=74
75968 On ch=2 n=64 v=62
75968 On ch=2 n=73 v=65
76032 Off ch=2 n=52 v=0
76032 On ch=2 n=45 v=65
76096 Off ch=2 n=64 v=0
76096 Off ch=2 n=73 v=0
76096 Off ch=2 n=45 v=0
76096 On ch=2 n=53 v=81
76096 On ch=2 n=69 v=79
76096 On ch=2 n=74 v=73
76160 Off ch=2 n=53 v=0
76160 On ch=2 n=45 v=65
76224 Off ch=2 n=69 v=0
76224 Off ch=2 n=74 v=0
76224 Off ch=2 n=45 v=0
76224 On ch=2 n=55 v=77
76224 On ch=2 n=70 v=79
76224 On ch=2 n=76 v=79
76288 Off ch=2 n=55 v=0
76288 On ch=2 n=45 v=66
76352 Off ch=2 n=70 v=0
76352 Off ch=2 n=76 v=0
76352 Off ch=2 n=45 v=0
76352 On ch=2 n=53 v=78
76352 On ch=2 n=69 v=68
76352 On ch=2 n=74 v=70
76416 Off ch=2 n=53 v=0
76416 On ch=2 n=45 v=61
76480 Off ch=2 n=69 v=0
76480 Off ch=2 n=74 v=0
76480 Off ch=2 n=45 v=0
76480 On ch=2 n=52 v=74
76480 On ch=2 n=67 v=68
76480 On ch=2 n=73 v=66
76544 Off ch=2 n=52 v=0
76544 On ch=2 n=45 v=62
76608 Off ch=2 n=67 v=0
76608 Off ch=2 n=73 v=0
76608 Off ch=2 n=45 v=0
76608 On ch=2 n=50 v=77
76608 On ch=2 n=65 v=65
76608 On ch=2 n=74 v=71
76672 Off ch=2 n=50 v=0
76672 On ch=2 n=45 v=68
76736 Off ch=2 n=65 v=0
76736 Off ch=2 n=74 v=0
76736 Off ch=2 n=45 v=0
76736 On ch=2 n=49 v=73
76736 On ch=2 n=67 v=77
76736 On ch=2 n=76 v=76
76800 Off ch=2 n=49 v=0
76800 On ch=2 n=57 v=75
76864 Off ch=2 n=67 v=0
76864 Off ch=2 n=76 v=0
76864 Off ch=2 n=57 v=0
76864 On ch=2 n=45 v=68
76864 On ch=2 n=76 v=86
76864 On ch=2 n=79 v=79
76928 Off ch=2 n=45 v=0
76928 On ch=2 n=57 v=80
76992 Off ch=2 n=76 v=0
76992 Off ch=2 n=79 v=0
76992 Off ch=2 n=57 v=0
76992 On ch=2 n=50 v=68
76992 On ch=2 n=74 v=72
76992 On ch=2 n=77 v=69
77056 Off ch=2 n=50 v=0
77056 On ch=2 n=57 v=81
77120 Off ch=2 n=74 v=0
77120 Off ch=2 n=77 v=0
77120 Off ch=2 n=57 v=0
77120 On ch=2 n=53 v=66
77120 On ch=2 n=69 v=61
77120 On ch=2 n=74 v=67
77184 Off ch=2 n=53 v=0
77184 On ch=2 n=62 v=88
77248 Off ch=2 n=69 v=0
77248 Off ch=2 n=74 v=0
77248 Off ch=2 n=62 v=0
77248 On ch=2 n=55 v=71
77248 On ch=2 n=67 v=65
77248 On ch=2 n=70 v=62
77312 Off ch=2 n=55 v=0
77312 On ch=2 n=62 v=87
77376 Off ch=2 n=67 v=0
77376 Off ch=2 n=70 v=0
77376 Off ch=2 n=62 v=0
77376 On ch=2 n=52 v=64
77376 On ch=2 n=67 v=72
77376 On ch=2 n=76 v=81
77440 Off ch=2 n=52 v=0
77440 On ch=2 n=61 v=88
77504 Off ch=2 n=67 v=0
77504 Off ch=2 n=76 v=0
77504 Off ch=2 n=61 v=0
77504 On ch=2 n=53 v=63
77504 On ch=2 n=69 v=75
77504 On ch=2 n=74 v=73
77568 Off ch=2 n=53 v=0
77568 On ch=2 n=62 v=89
77632 Off ch=2 n=69 v=0
77632 Off ch=2 n=74 v=0
77632 Off ch=2 n=62 v=0
77632 On ch=2 n=50 v=63
77632 On ch=2 n=65 v=64
77632 On ch=2 n=74 v=65
77696 Off ch=2 n=50 v=0
77696 On ch=2 n=62 v=95
77760 Off ch=2 n=65 v=0
77760 Off ch=2 n=74 v=0
77760 Off ch=2 n=62 v=0
77760 On ch=2 n=57 v=69
77760 On ch=2 n=64 v=67
77760 On ch=2 n=73 v=72
77824 Off ch=2 n=64 v=0
77824 On ch=2 n=69 v=78
77888 Off ch=2 n=69 v=0
77888 On ch=2 n=67 v=67
77952 Off ch=2 n=67 v=0
77952 On ch=2 n=69 v=75
78016 Off ch=2 n=73 v=0
78016 Off ch=2 n=69 v=0
78016 On ch=2 n=65 v=62
78016 On ch=2 n=74 v=74
78080 Off ch=2 n=65 v=0
78080 On ch=2 n=69 v=79
78144 Off ch=2 n=74 v=0
78144 Off ch=2 n=69 v=0
78144 On ch=2 n=64 v=60
78144 On ch=2 n=76 v=75
78208 Off ch=2 n=64 v=0
78208 On ch=2 n=69 v=79
78272 Off ch=2 n=76 v=0
78272 Off ch=2 n=69 v=0
78272 On ch=2 n=62 v=59
78272 On ch=2 n=77 v=73
78336 Off ch=2 n=62 v=0
78336 On ch=2 n=69 v=78
78400 Off ch=2 n=77 v=0
78400 Off ch=2 n=69 v=0
78400 On ch=2 n=61 v=63
78400 On ch=2 n=76 v=65
78464 Off ch=2 n=61 v=0
78464 On ch=2 n=69 v=82
78528 Off ch=2 n=76 v=0
78528 Off ch=2 n=69 v=0
78528 On ch=2 n=62 v=59
78528 On ch=2 n=77 v=77
78592 Off ch=2 n=62 v=0
78592 On ch=2 n=69 v=80
78656 Off ch=2 n=77 v=0
78656 Off ch=2 n=69 v=0
78656 On ch=2 n=64 v=61
78656 On ch=2 n=73 v=59
78720 Off ch=2 n=64 v=0
78720 On ch=2 n=69 v=78
78784 Off ch=2 n=73 v=0
78784 Off ch=2 n=69 v=0
78784 On ch=2 n=65 v=62
78784 On ch=2 n=74 v=74
78848 Off ch=2 n=65 v=0
78848 On ch=2 n=69 v=76
78912 Off ch=2 n=74 v=0
78912 Off ch=2 n=69 v=0
78912 On ch=2 n=57 v=62
78912 On ch=2 n=73 v=66
78976 Off ch=2 n=57 v=0
78976 On ch=2 n=69 v=91
79040 Off ch=2 n=73 v=0
79040 Off ch=2 n=69 v=0
79040 On ch=2 n=59 v=65
79040 On ch=2 n=74 v=74
79104 Off ch=2 n=59 v=0
79104 On ch=2 n=69 v=87
79168 Off ch=2 n=74 v=0
79168 Off ch=2 n=69 v=0
79168 On ch=2 n=61 v=57
79168 On ch=2 n=76 v=75
79232 Off ch=2 n=61 v=0
79232 On ch=2 n=69 v=89
79296 Off ch=2 n=76 v=0
79296 Off ch=2 n=69 v=0
79296 On ch=2 n=62 v=59
79296 On ch=2 n=77 v=74
79360 Off ch=2 n=62 v=0
79360 On ch=2 n=69 v=84
79424 Off ch=2 n=77 v=0
79424 Off ch=2 n=69 v=0
79424 On ch=2 n=61 v=58
79424 On ch=2 n=76 v=69
79488 Off ch=2 n=61 v=0
79488 On ch=2 n=69 v=81
79552 Off ch=2 n=76 v=0
79552 Off ch=2 n=69 v=0
79552 On ch=2 n=62 v=62
79552 On ch=2 n=77 v=72
79616 Off ch=2 n=62 v=0
79616 On ch=2 n=69 v=81
79680 Off ch=2 n=77 v=0
79680 Off ch=2 n=69 v=0
79680 On ch=2 n=64 v=65
79680 On ch=2 n=79 v=76
79744 Off ch=2 n=64 v=0
79744 On ch=2 n=69 v=78
79808 Off ch=2 n=79 v=0
79808 Off ch=2 n=69 v=0
79808 On ch=2 n=65 v=62
79808 On ch=2 n=81 v=76
79872 Off ch=2 n=81 v=0
79872 On ch=2 n=82 v=75
79936 Off ch=2 n=65 v=0
79936 Off ch=2 n=82 v=0
79936 On ch=2 n=64 v=69
79936 On ch=2 n=79 v=64
80000 Off ch=2 n=79 v=0
80000 On ch=2 n=81 v=76
80064 Off ch=2 n=64 v=0
80064 Off ch=2 n=81 v=0
80064 On ch=2 n=62 v=68
80064 On ch=2 n=77 v=65
80128 Off ch=2 n=77 v=0
80128 On ch=2 n=79 v=72
80192 Off ch=2 n=62 v=0
80192 Off ch=2 n=79 v=0
80192 On ch=2 n=67 v=80
80192 On ch=2 n=76 v=64
80256 Off ch=2 n=76 v=0
80256 On ch=2 n=77 v=78
80320 Off ch=2 n=67 v=0
80320 Off ch=2 n=77 v=0
80320 On ch=2 n=65 v=66
80320 On ch=2 n=74 v=64
80384 Off ch=2 n=74 v=0
80384 On ch=2 n=69 v=59
80448 Off ch=2 n=65 v=0
80448 Off ch=2 n=69 v=0
80448 On ch=2 n=64 v=72
80448 On ch=2 n=73 v=73
80512 Off ch=2 n=73 v=0
80512 On ch=2 n=69 v=61
80576 Off ch=2 n=64 v=0
80576 Off ch=2 n=69 v=0
80576 On ch=2 n=65 v=70
80576 On ch=2 n=74 v=80
80640 Off ch=2 n=74 v=0
80640 On ch=2 n=69 v=63
80704 Off ch=2 n=65 v=0
80704 Off ch=2 n=69 v=0
80704 On ch=2 n=61 v=59
80704 On ch=2 n=76 v=82
80768 Off ch=2 n=76 v=0
80768 On ch=2 n=69 v=58
80832 Off ch=2 n=61 v=0
80832 Off ch=2 n=69 v=0
80832 On ch=2 n=62 v=68
80832 On ch=2 n=77 v=87
80896 Off ch=2 n=77 v=0
80896 On ch=2 n=69 v=59
80960 Off ch=2 n=62 v=0
80960 Off ch=2 n=69 v=0
80960 On ch=2 n=61 v=66
80960 On ch=2 n=76 v=80
81024 Off ch=2 n=76 v=0
81024 On ch=2 n=69 v=61
81088 Off ch=2 n=61 v=0
81088 Off ch=2 n=69 v=0
81088 On ch=2 n=62 v=70
81088 On ch=2 n=77 v=82
81152 Off ch=2 n=77 v=0
81152 On ch=2 n=69 v=60
81216 Off ch=2 n=62 v=0
81216 Off ch=2 n=69 v=0
81216 On ch=2 n=59 v=66
81216 On ch=2 n=79 v=85
81280 Off ch=2 n=79 v=0
81280 On ch=2 n=69 v=61
81344 Off ch=2 n=59 v=0
81344 Off ch=2 n=69 v=0
81344 On ch=2 n=61 v=76
81344 On ch=2 n=81 v=85
81408 Off ch=2 n=81 v=0
81408 On ch=2 n=69 v=55
81472 Off ch=2 n=61 v=0
81472 Off ch=2 n=69 v=0
81472 On ch=2 n=67 v=83
81472 On ch=2 n=76 v=84
81536 Off ch=2 n=76 v=0
81536 On ch=2 n=69 v=61
81600 Off ch=2 n=67 v=0
81600 Off ch=2 n=69 v=0
81600 On ch=2 n=65 v=64
81600 On ch=2 n=77 v=84
81664 Off ch=2 n=77 v=0
81664 On ch=2 n=69 v=58
81728 Off ch=2 n=65 v=0
81728 Off ch=2 n=69 v=0
81728 On ch=2 n=62 v=63
81728 On ch=2 n=79 v=88
81792 Off ch=2 n=79 v=0
81792 On ch=2 n=69 v=53
81856 Off ch=2 n=62 v=0
81856 Off ch=2 n=69 v=0
81856 On ch=2 n=61 v=65
81856 On ch=2 n=81 v=83
81920 Off ch=2 n=57 v=0
81920 On ch=2 n=57 v=73
81984 Off ch=2 n=57 v=0
81984 On ch=2 n=55 v=70
82048 Off ch=2 n=55 v=0
82048 On ch=2 n=57 v=71
82112 Off ch=2 n=61 v=0
82112 Off ch=2 n=81 v=0
82112 Off ch=2 n=57 v=0
82112 On ch=2 n=53 v=64
82176 Off ch=2 n=53 v=0
82176 On ch=2 n=57 v=75
82240 Off ch=2 n=57 v=0
82240 On ch=2 n=52 v=66
82304 Off ch=2 n=52 v=0
82304 On ch=2 n=57 v=73
82368 Off ch=2 n=57 v=0
82368 On ch=2 n=50 v=69
82432 Off ch=2 n=50 v=0
82432 On ch=2 n=57 v=74
82496 Off ch=2 n=57 v=0
82496 On ch=2 n=49 v=64
82560 Off ch=2 n=49 v=0
82560 On ch=2 n=57 v=72
82624 Off ch=2 n=57 v=0
82624 On ch=2 n=50 v=65
82688 Off ch=2 n=50 v=0
82688 On ch=2 n=57 v=77
82752 Off ch=2 n=57 v=0
82752 On ch=2 n=52 v=65
82816 Off ch=2 n=52 v=0
82816 On ch=2 n=57 v=71
82880 Off ch=2 n=57 v=0
82880 On ch=2 n=53 v=66
82944 Off ch=2 n=53 v=0
82944 On ch=2 n=57 v=74
83008 Off ch=2 n=57 v=0
83008 On ch=2 n=45 v=64
83072 Off ch=2 n=45 v=0
83072 On ch=2 n=57 v=72
83136 Off ch=2 n=57 v=0
83136 On ch=2 n=47 v=66
83200 Off ch=2 n=47 v=0
83200 On ch=2 n=57 v=78
83264 Off ch=2 n=57 v=0
83264 On ch=2 n=49 v=68
83328 Off ch=2 n=49 v=0
83328 On ch=2 n=57 v=76
83392 Off ch=2 n=57 v=0
83392 On ch=2 n=50 v=65
83456 Off ch=2 n=50 v=0
83456 On ch=2 n=57 v=75
83520 Off ch=2 n=57 v=0
83520 On ch=2 n=49 v=67
83584 Off ch=2 n=49 v=0
83584 On ch=2 n=57 v=77
83648 Off ch=2 n=57 v=0
83648 On ch=2 n=50 v=65
83712 Off ch=2 n=50 v=0
83712 On ch=2 n=57 v=76
83776 Off ch=2 n=57 v=0
83776 On ch=2 n=52 v=67
83840 Off ch=2 n=52 v=0
83840 On ch=2 n=57 v=75
83904 Off ch=2 n=57 v=0
83904 On ch=2 n=53 v=66
83968 Off ch=2 n=53 v=0
83968 On ch=2 n=67 v=86
83968 On ch=2 n=76 v=62
84032 Off ch=2 n=67 v=0
84032 Off ch=2 n=76 v=0
84032 On ch=2 n=65 v=72
84032 On ch=2 n=74 v=67
84096 Off ch=2 n=65 v=0
84096 Off ch=2 n=74 v=0
84096 On ch=2 n=64 v=68
84096 On ch=2 n=73 v=63
84160 Off ch=2 n=64 v=0
84160 Off ch=2 n=73 v=0
84160 On ch=2 n=65 v=78
84160 On ch=2 n=74 v=78
84224 Off ch=2 n=65 v=0
84224 On ch=2 n=61 v=64
84288 Off ch=2 n=74 v=0
84288 Off ch=2 n=61 v=0
84288 On ch=2 n=53 v=66
84288 On ch=2 n=62 v=79
84352 On ch=2 n=77 v=60
84416 Off ch=2 n=53 v=0
84416 Off ch=2 n=77 v=0
84416 On ch=2 n=55 v=69
84416 On ch=2 n=76 v=66
84480 Off ch=2 n=76 v=0
84480 On ch=2 n=77 v=73
84544 Off ch=2 n=55 v=0
84544 Off ch=2 n=77 v=0
84544 On ch=2 n=52 v=68
84544 On ch=2 n=79 v=77
84608 Off ch=2 n=79 v=0
84608 On ch=2 n=81 v=79
84672 Off ch=2 n=62 v=0
84672 Off ch=2 n=52 v=0
84672 Off ch=2 n=81 v=0
84672 On ch=2 n=57 v=78
84672 On ch=2 n=61 v=66
84672 On ch=2 n=82 v=69
84736 Off ch=2 n=82 v=0
84736 On ch=2 n=81 v=68
84800 Off ch=2 n=57 v=0
84800 Off ch=2 n=81 v=0
84800 On ch=2 n=45 v=60
84800 On ch=2 n=79 v=69
84864 Off ch=2 n=79 v=0
84864 On ch=2 n=81 v=73
84928 Off ch=2 n=61 v=0
84928 Off ch=2 n=45 v=0
84928 Off ch=2 n=81 v=0
84928 On ch=2 n=50 v=75
84928 On ch=2 n=62 v=68
84928 On ch=2 n=77 v=68
84992 Off ch=2 n=62 v=0
84992 On ch=2 n=69 v=80
85056 Off ch=2 n=77 v=0
85056 Off ch=2 n=69 v=0
85056 On ch=2 n=71 v=79
85056 On ch=2 n=76 v=65
85120 Off ch=2 n=71 v=0
85120 On ch=2 n=73 v=73
85184 Off ch=2 n=50 v=0
85184 Off ch=2 n=76 v=0
85184 Off ch=2 n=73 v=0
85184 On ch=2 n=74 v=77
85184 On ch=2 n=74 v=66
85248 Off ch=2 n=74 v=0
85248 On ch=2 n=76 v=70
85312 Off ch=2 n=74 v=0
85312 Off ch=2 n=76 v=0
85312 On ch=2 n=45 v=64
85312 On ch=2 n=72 v=66
85312 On ch=2 n=77 v=68
85376 Off ch=2 n=77 v=0
85376 On ch=2 n=75 v=68
85440 Off ch=2 n=45 v=0
85440 Off ch=2 n=72 v=0
85440 Off ch=2 n=75 v=0
85440 On ch=2 n=46 v=73
85440 On ch=2 n=65 v=54
85440 On ch=2 n=74 v=67
85504 Off ch=2 n=74 v=0
85504 On ch=2 n=72 v=65
85568 Off ch=2 n=46 v=0
85568 Off ch=2 n=72 v=0
85568 On ch=2 n=43 v=68
85568 On ch=2 n=70 v=70
85632 Off ch=2 n=70 v=0
85632 On ch=2 n=69 v=68
85696 Off ch=2 n=43 v=0
85696 Off ch=2 n=69 v=0
85696 On ch=2 n=48 v=77
85696 On ch=2 n=67 v=63
85760 Off ch=2 n=67 v=0
85760 On ch=2 n=69 v=71
85824 Off ch=2 n=65 v=0
85824 Off ch=2 n=48 v=0
85824 Off ch=2 n=69 v=0
85824 On ch=2 n=36 v=60
85824 On ch=2 n=63 v=61
85824 On ch=2 n=70 v=78
85888 Off ch=2 n=70 v=0
85888 On ch=2 n=72 v=77
85952 Off ch=2 n=36 v=0
85952 Off ch=2 n=72 v=0
85952 On ch=2 n=41 v=74
85952 On ch=2 n=69 v=65
86016 Off ch=2 n=63 v=0
86016 On ch=2 n=60 v=64
86080 Off ch=2 n=60 v=0
86080 On ch=2 n=57 v=65
86144 Off ch=2 n=57 v=0
86144 On ch=2 n=53 v=66
86208 Off ch=2 n=41 v=0
86208 Off ch=2 n=69 v=0
86208 Off ch=2 n=53 v=0
86208 On ch=2 n=57 v=68
86272 Off ch=2 n=57 v=0
86272 On ch=2 n=60 v=75
86336 Off ch=2 n=60 v=0
86336 On ch=2 n=45 v=66
86336 On ch=2 n=63 v=75
86336 On ch=2 n=72 v=61
86400 Off ch=2 n=63 v=0
86400 On ch=2 n=60 v=70
86464 Off ch=2 n=45 v=0
86464 Off ch=2 n=60 v=0
86464 On ch=2 n=46 v=66
86464 On ch=2 n=62 v=78
86528 Off ch=2 n=62 v=0
86528 On ch=2 n=58 v=67
86592 Off ch=2 n=72 v=0
86592 Off ch=2 n=58 v=0
86592 On ch=2 n=55 v=65
86592 On ch=2 n=70 v=70
86656 Off ch=2 n=55 v=0
86656 On ch=2 n=50 v=62
86720 Off ch=2 n=46 v=0
86720 Off ch=2 n=70 v=0
86720 Off ch=2 n=50 v=0
86720 On ch=2 n=55 v=75
86784 Off ch=2 n=55 v=0
86784 On ch=2 n=58 v=68
86848 Off ch=2 n=58 v=0
86848 On ch=2 n=46 v=57
86848 On ch=2 n=62 v=79
86848 On ch=2 n=79 v=65
86912 Off ch=2 n=62 v=0
86912 On ch=2 n=67 v=81
86976 Off ch=2 n=46 v=0
86976 Off ch=2 n=79 v=0
86976 Off ch=2 n=67 v=0
86976 On ch=2 n=48 v=67
86976 On ch=2 n=72 v=86
86976 On ch=2 n=75 v=59
87040 Off ch=2 n=72 v=0
87040 Off ch=2 n=75 v=0
87040 On ch=2 n=74 v=78
87040 On ch=2 n=77 v=70
87104 Off ch=2 n=74 v=0
87104 Off ch=2 n=77 v=0
87104 On ch=2 n=70 v=63
87104 On ch=2 n=74 v=64
87168 Off ch=2 n=70 v=0
87168 Off ch=2 n=74 v=0
87168 On ch=2 n=72 v=73
87168 On ch=2 n=75 v=74
87232 Off ch=2 n=48 v=0
87232 Off ch=2 n=72 v=0
87232 Off ch=2 n=75 v=0
87232 On ch=2 n=69 v=64
87232 On ch=2 n=72 v=68
87296 Off ch=2 n=69 v=0
87296 Off ch=2 n=72 v=0
87296 On ch=2 n=67 v=70
87296 On ch=2 n=70 v=67
87360 Off ch=2 n=67 v=0
87360 Off ch=2 n=70 v=0
87360 On ch=2 n=45 v=65
87360 On ch=2 n=66 v=68
87360 On ch=2 n=69 v=68
87424 Off ch=2 n=66 v=0
87424 Off ch=2 n=69 v=0
87424 On ch=2 n=64 v=57
87424 On ch=2 n=67 v=65
87488 Off ch=2 n=45 v=0
87488 Off ch=2 n=64 v=0
87488 Off ch=2 n=67 v=0
87488 On ch=2 n=38 v=64
87488 On ch=2 n=62 v=68
87488 On ch=2 n=54 v=68
87552 Off ch=2 n=62 v=0
87552 Off ch=2 n=54 v=0
87552 On ch=2 n=50 v=63
87616 Off ch=2 n=50 v=0
87616 On ch=2 n=54 v=75
87680 Off ch=2 n=54 v=0
87680 On ch=2 n=55 v=73
87744 Off ch=2 n=38 v=0
87744 Off ch=2 n=55 v=0
87744 On ch=2 n=57 v=62
87808 Off ch=2 n=57 v=0
87808 On ch=2 n=62 v=81
87872 Off ch=2 n=62 v=0
87872 On ch=2 n=57 v=67
87936 Off ch=2 n=57 v=0
87936 On ch=2 n=55 v=70
88000 Off ch=2 n=55 v=0
88000 On ch=2 n=38 v=65
88000 On ch=2 n=54 v=68
88064 Off ch=2 n=54 v=0
88064 On ch=2 n=50 v=69
88128 Off ch=2 n=50 v=0
88128 On ch=2 n=54 v=67
88192 Off ch=2 n=54 v=0
88192 On ch=2 n=55 v=74
88256 Off ch=2 n=38 v=0
88256 Off ch=2 n=55 v=0
88256 On ch=2 n=57 v=64
88320 Off ch=2 n=57 v=0
88320 On ch=2 n=62 v=79
88384 Off ch=2 n=62 v=0
88384 On ch=2 n=57 v=68
88448 Off ch=2 n=57 v=0
88448 On ch=2 n=54 v=65
88512 Off ch=2 n=54 v=0
88512 On ch=2 n=38 v=64
88512 On ch=2 n=55 v=67
88576 Off ch=2 n=55 v=0
88576 On ch=2 n=50 v=64
88640 Off ch=2 n=50 v=0
88640 On ch=2 n=55 v=75
88704 Off ch=2 n=55 v=0
88704 On ch=2 n=57 v=73
88768 Off ch=2 n=38 v=0
88768 Off ch=2 n=57 v=0
88768 On ch=2 n=58 v=63
88832 Off ch=2 n=58 v=0
88832 On ch=2 n=62 v=80
88896 Off ch=2 n=62 v=0
88896 On ch=2 n=58 v=65
88960 Off ch=2 n=58 v=0
88960 On ch=2 n=57 v=69
89024 Off ch=2 n=57 v=0
89024 On ch=2 n=38 v=58
89024 On ch=2 n=55 v=67
89088 Off ch=2 n=55 v=0
89088 On ch=2 n=50 v=63
89152 Off ch=2 n=50 v=0
89152 On ch=2 n=55 v=78
89216 Off ch=2 n=55 v=0
89216 On ch=2 n=57 v=73
89280 Off ch=2 n=38 v=0
89280 Off ch=2 n=57 v=0
89280 On ch=2 n=58 v=68
89344 Off ch=2 n=58 v=0
89344 On ch=2 n=62 v=75
89408 Off ch=2 n=62 v=0
89408 On ch=2 n=60 v=68
89472 Off ch=2 n=60 v=0
89472 On ch=2 n=58 v=68
89536 Off ch=2 n=58 v=0
89536 On ch=2 n=38 v=62
89536 On ch=2 n=57 v=61
89600 Off ch=2 n=57 v=0
89600 On ch=2 n=54 v=68
89664 Off ch=2 n=54 v=0
89664 On ch=2 n=57 v=69
89728 Off ch=2 n=57 v=0
89728 On ch=2 n=58 v=72
89792 Off ch=2 n=38 v=0
89792 Off ch=2 n=58 v=0
89792 On ch=2 n=60 v=59
89856 Off ch=2 n=60 v=0
89856 On ch=2 n=63 v=75
89920 Off ch=2 n=63 v=0
89920 On ch=2 n=60 v=65
89984 Off ch=2 n=60 v=0
89984 On ch=2 n=58 v=67
90048 Off ch=2 n=58 v=0
90048 On ch=2 n=38 v=64
90048 On ch=2 n=57 v=63
90112 Off ch=2 n=57 v=0
90112 On ch=2 n=54 v=73
90176 Off ch=2 n=54 v=0
90176 On ch=2 n=57 v=70
90240 Off ch=2 n=57 v=0
90240 On ch=2 n=58 v=71
90304 Off ch=2 n=38 v=0
90304 Off ch=2 n=58 v=0
90304 On ch=2 n=60 v=63
90368 Off ch=2 n=60 v=0
90368 On ch=2 n=63 v=74
90432 Off ch=2 n=63 v=0
90432 On ch=2 n=60 v=63
90496 Off ch=2 n=60 v=0
90496 On ch=2 n=58 v=67
90560 Off ch=2 n=58 v=0
90560 On ch=2 n=38 v=65
90560 On ch=2 n=57 v=67
90624 Off ch=2 n=57 v=0
90624 On ch=2 n=58 v=73
90688 Off ch=2 n=58 v=0
90688 On ch=2 n=62 v=79
90752 Off ch=2 n=62 v=0
90752 On ch=2 n=66 v=79
90816 Off ch=2 n=38 v=0
90816 Off ch=2 n=66 v=0
90816 On ch=2 n=67 v=72
90880 Off ch=2 n=67 v=0
90880 On ch=2 n=70 v=79
90944 Off ch=2 n=70 v=0
90944 On ch=2 n=67 v=68
91008 Off ch=2 n=67 v=0
91008 On ch=2 n=62 v=58
91072 Off ch=2 n=62 v=0
91072 On ch=2 n=38 v=61
91072 On ch=2 n=58 v=68
91136 Off ch=2 n=58 v=0
91136 On ch=2 n=55 v=68
91200 Off ch=2 n=55 v=0
91200 On ch=2 n=58 v=72
91264 Off ch=2 n=58 v=0
91264 On ch=2 n=62 v=76
91328 Off ch=2 n=38 v=0
91328 Off ch=2 n=62 v=0
91328 On ch=2 n=67 v=78
91392 Off ch=2 n=67 v=0
91392 On ch=2 n=70 v=78
91456 Off ch=2 n=70 v=0
91456 On ch=2 n=67 v=65
91520 Off ch=2 n=67 v=0
91520 On ch=2 n=62 v=60
91584 Off ch=2 n=62 v=0
91584 On ch=2 n=38 v=66
91584 On ch=2 n=60 v=64
91648 Off ch=2 n=60 v=0
91648 On ch=2 n=57 v=66
91712 Off ch=2 n=57 v=0
91712 On ch=2 n=60 v=76
91776 Off ch=2 n=60 v=0
91776 On ch=2 n=63 v=77
91840 Off ch=2 n=38 v=0
91840 Off ch=2 n=63 v=0
91840 On ch=2 n=66 v=69
91904 Off ch=2 n=66 v=0
91904 On ch=2 n=69 v=74
91968 Off ch=2 n=69 v=0
91968 On ch=2 n=66 v=62
92032 Off ch=2 n=66 v=0
92032 On ch=2 n=63 v=66
92096 Off ch=2 n=63 v=0
92096 On ch=2 n=38 v=64
92096 On ch=2 n=60 v=61
92160 Off ch=2 n=60 v=0
92160 On ch=2 n=57 v=71
92224 Off ch=2 n=57 v=0
92224 On ch=2 n=60 v=76
92288 Off ch=2 n=60 v=0
92288 On ch=2 n=63 v=77
92352 Off ch=2 n=38 v=0
92352 Off ch=2 n=63 v=0
92352 On ch=2 n=66 v=67
92416 Off ch=2 n=66 v=0
92416 On ch=2 n=69 v=74
92480 Off ch=2 n=69 v=0
92480 On ch=2 n=66 v=65
92544 Off ch=2 n=66 v=0
92544 On ch=2 n=63 v=64
92608 Off ch=2 n=63 v=0
92608 On ch=2 n=62 v=60
92608 On ch=2 n=54 v=60
92672 On ch=2 n=50 v=64
92736 Off ch=2 n=62 v=0
92736 Off ch=2 n=54 v=0
92736 Off ch=2 n=50 v=0
92736 On ch=2 n=48 v=71
92800 Off ch=2 n=48 v=0
92800 On ch=2 n=50 v=72
92864 Off ch=2 n=50 v=0
92864 On ch=2 n=46 v=65
92864 On ch=2 n=67 v=63
92864 On ch=2 n=74 v=68
92928 Off ch=2 n=46 v=0
92928 On ch=2 n=50 v=72
92992 Off ch=2 n=67 v=0
92992 Off ch=2 n=74 v=0
92992 Off ch=2 n=50 v=0
92992 On ch=2 n=45 v=63
92992 On ch=2 n=69 v=73
92992 On ch=2 n=66 v=73
92992 On ch=2 n=72 v=62
93056 Off ch=2 n=45 v=0
93056 On ch=2 n=50 v=75
93120 Off ch=2 n=69 v=0
93120 Off ch=2 n=66 v=0
93120 Off ch=2 n=72 v=0
93120 Off ch=2 n=50 v=0
93120 On ch=2 n=43 v=64
93120 On ch=2 n=67 v=64
93120 On ch=2 n=70 v=64
93184 Off ch=2 n=43 v=0
93184 On ch=2 n=55 v=81
93248 Off ch=2 n=55 v=0
93248 On ch=2 n=53 v=66
93312 Off ch=2 n=53 v=0
93312 On ch=2 n=55 v=75
93376 Off ch=2 n=67 v=0
93376 Off ch=2 n=70 v=0
93376 Off ch=2 n=55 v=0
93376 On ch=2 n=51 v=70
93376 On ch=2 n=67 v=68
93376 On ch=2 n=63 v=68
93376 On ch=2 n=72 v=78
93440 Off ch=2 n=51 v=0
93440 On ch=2 n=55 v=78
93504 Off ch=2 n=67 v=0
93504 Off ch=2 n=63 v=0
93504 Off ch=2 n=72 v=0
93504 Off ch=2 n=55 v=0
93504 On ch=2 n=50 v=70
93504 On ch=2 n=71 v=79
93504 On ch=2 n=74 v=72
93568 Off ch=2 n=50 v=0
93568 On ch=2 n=55 v=76
93632 Off ch=2 n=71 v=0
93632 Off ch=2 n=74 v=0
93632 Off ch=2 n=55 v=0
93632 On ch=2 n=48 v=66
93632 On ch=2 n=72 v=77
93632 On ch=2 n=67 v=77
93632 On ch=2 n=75 v=76
93696 Off ch=2 n=48 v=0
93696 On ch=2 n=48 v=69
93760 Off ch=2 n=48 v=0
93760 On ch=2 n=46 v=72
93824 Off ch=2 n=46 v=0
93824 On ch=2 n=48 v=73
93888 Off ch=2 n=72 v=0
93888 Off ch=2 n=67 v=0
93888 Off ch=2 n=75 v=0
93888 Off ch=2 n=48 v=0
93888 On ch=2 n=45 v=70
93888 On ch=2 n=72 v=69
93888 On ch=2 n=77 v=70
93952 Off ch=2 n=45 v=0
93952 On ch=2 n=48 v=75
94016 Off ch=2 n=72 v=0
94016 Off ch=2 n=77 v=0
94016 Off ch=2 n=48 v=0
94016 On ch=2 n=43 v=68
94016 On ch=2 n=76 v=84
94016 On ch=2 n=70 v=84
94016 On ch=2 n=79 v=77
94080 Off ch=2 n=43 v=0
94080 On ch=2 n=48 v=75
94144 Off ch=2 n=76 v=0
94144 Off ch=2 n=70 v=0
94144 Off ch=2 n=79 v=0
94144 Off ch=2 n=48 v=0
94144 On ch=2 n=41 v=66
94144 On ch=2 n=77 v=77
94144 On ch=2 n=69 v=77
94144 On ch=2 n=81 v=73
94208 Off ch=2 n=41 v=0
94208 On ch=2 n=53 v=77
94272 Off ch=2 n=53 v=0
94272 On ch=2 n=51 v=71
94336 Off ch=2 n=51 v=0
94336 On ch=2 n=53 v=74
94400 Off ch=2 n=77 v=0
94400 Off ch=2 n=69 v=0
94400 Off ch=2 n=81 v=0
94400 Off ch=2 n=53 v=0
94400 On ch=2 n=50 v=67
94400 On ch=2 n=70 v=52
94400 On ch=2 n=77 v=63
94464 Off ch=2 n=50 v=0
94464 On ch=2 n=53 v=74
94528 Off ch=2 n=70 v=0
94528 Off ch=2 n=77 v=0
94528 Off ch=2 n=53 v=0
94528 On ch=2 n=48 v=65
94528 On ch=2 n=72 v=76
94528 On ch=2 n=69 v=76
94528 On ch=2 n=75 v=63
94592 Off ch=2 n=48 v=0
94592 On ch=2 n=53 v=73
94656 Off ch=2 n=72 v=0
94656 Off ch=2 n=69 v=0
94656 Off ch=2 n=75 v=0
94656 Off ch=2 n=53 v=0
94656 On ch=2 n=46 v=66
94656 On ch=2 n=70 v=67
94656 On ch=2 n=74 v=67
94720 Off ch=2 n=74 v=0
94720 On ch=2 n=75 v=73
94720 On ch=2 n=67 v=73
94784 Off ch=2 n=46 v=0
94784 Off ch=2 n=70 v=0
94784 Off ch=2 n=75 v=0
94784 Off ch=2 n=67 v=0
94784 On ch=2 n=51 v=75
94784 On ch=2 n=74 v=65
94784 On ch=2 n=65 v=65
94848 Off ch=2 n=74 v=0
94848 Off ch=2 n=65 v=0
94848 On ch=2 n=72 v=63
94848 On ch=2 n=63 v=63
94912 Off ch=2 n=51 v=0
94912 Off ch=2 n=72 v=0
94912 Off ch=2 n=63 v=0
94912 On ch=2 n=53 v=73
94912 On ch=2 n=70 v=62
94912 On ch=2 n=62 v=62
94976 Off ch=2 n=70 v=0
94976 Off ch=2 n=62 v=0
94976 On ch=2 n=72 v=76
94976 On ch=2 n=63 v=76
95040 Off ch=2 n=53 v=0
95040 Off ch=2 n=72 v=0
95040 Off ch=2 n=63 v=0
95040 On ch=2 n=41 v=63
95040 On ch=2 n=70 v=69
95040 On ch=2 n=62 v=69
95104 Off ch=2 n=70 v=0
95104 Off ch=2 n=62 v=0
95104 On ch=2 n=69 v=63
95104 On ch=2 n=60 v=63
95168 Off ch=2 n=41 v=0
95168 Off ch=2 n=69 v=0
95168 Off ch=2 n=60 v=0
95168 On ch=2 n=43 v=73
95168 On ch=2 n=67 v=65
95168 On ch=2 n=58 v=65
95232 Off ch=2 n=67 v=0
95232 Off ch=2 n=58 v=0
95232 On ch=2 n=72 v=83
95232 On ch=2 n=63 v=83
95296 Off ch=2 n=43 v=0
95296 Off ch=2 n=72 v=0
95296 Off ch=2 n=63 v=0
95296 On ch=2 n=48 v=75
95296 On ch=2 n=70 v=69
95296 On ch=2 n=62 v=69
95360 Off ch=2 n=70 v=0
95360 Off ch=2 n=62 v=0
95360 On ch=2 n=69 v=66
95360 On ch=2 n=60 v=66
95424 Off ch=2 n=48 v=0
95424 Off ch=2 n=69 v=0
95424 Off ch=2 n=60 v=0
95424 On ch=2 n=50 v=73
95424 On ch=2 n=67 v=66
95424 On ch=2 n=58 v=66
95488 Off ch=2 n=67 v=0
95488 Off ch=2 n=58 v=0
95488 On ch=2 n=69 v=78
95488 On ch=2 n=60 v=78
95552 Off ch=2 n=50 v=0
95552 Off ch=2 n=69 v=0
95552 Off ch=2 n=60 v=0
95552 On ch=2 n=38 v=59
95552 On ch=2 n=67 v=68
95552 On ch=2 n=58 v=68
95616 Off ch=2 n=67 v=0
95616 Off ch=2 n=58 v=0
95616 On ch=2 n=66 v=65
95616 On ch=2 n=57 v=65
95680 Off ch=2 n=38 v=0
95680 Off ch=2 n=66 v=0
95680 Off ch=2 n=57 v=0
95680 On ch=2 n=43 v=70
95680 On ch=2 n=67 v=75
95680 On ch=2 n=58 v=75
95744 Off ch=2 n=67 v=0
95744 Off ch=2 n=58 v=0
95744 On ch=2 n=65 v=64
95744 On ch=2 n=57 v=64
95808 Off ch=2 n=65 v=0
95808 Off ch=2 n=57 v=0
95808 On ch=2 n=64 v=66
95808 On ch=2 n=55 v=66
95872 Off ch=2 n=64 v=0
95872 Off ch=2 n=55 v=0
95872 On ch=2 n=62 v=66
95872 On ch=2 n=53 v=66
95936 Off ch=2 n=43 v=0
95936 Off ch=2 n=62 v=0
95936 Off ch=2 n=53 v=0
95936 On ch=2 n=61 v=67
95936 On ch=2 n=52 v=67
96000 On ch=2 n=45 v=66
96064 Off ch=2 n=61 v=0
96064 Off ch=2 n=52 v=0
96064 Off ch=2 n=45 v=0
96064 On ch=2 n=43 v=67
96064 On ch=2 n=64 v=77
96064 On ch=2 n=55 v=77
96128 Off ch=2 n=43 v=0
96128 On ch=2 n=45 v=70
96192 Off ch=2 n=64 v=0
96192 Off ch=2 n=55 v=0
96192 Off ch=2 n=45 v=0
96192 On ch=2 n=41 v=60
96192 On ch=2 n=65 v=77
96192 On ch=2 n=57 v=77
96256 Off ch=2 n=65 v=0
96256 Off ch=2 n=57 v=0
96256 On ch=2 n=67 v=76
96256 On ch=2 n=59 v=76
96320 Off ch=2 n=41 v=0
96320 Off ch=2 n=67 v=0
96320 Off ch=2 n=59 v=0
96320 On ch=2 n=38 v=66
96320 On ch=2 n=69 v=73
96320 On ch=2 n=61 v=73
96384 Off ch=2 n=69 v=0
96384 Off ch=2 n=61 v=0
96384 On ch=2 n=71 v=75
96384 On ch=2 n=62 v=75
96448 Off ch=2 n=38 v=0
96448 Off ch=2 n=71 v=0
96448 Off ch=2 n=62 v=0
96448 On ch=2 n=45 v=79
96448 On ch=2 n=73 v=72
96448 On ch=2 n=64 v=72
96512 Off ch=2 n=73 v=0
96512 Off ch=2 n=64 v=0
96512 On ch=2 n=74 v=71
96512 On ch=2 n=65 v=71
96576 Off ch=2 n=74 v=0
96576 Off ch=2 n=65 v=0
96576 On ch=2 n=76 v=76
96576 On ch=2 n=67 v=76
96640 Off ch=2 n=76 v=0
96640 Off ch=2 n=67 v=0
96640 On ch=2 n=77 v=75
96640 On ch=2 n=69 v=75
96704 Off ch=2 n=45 v=0
96704 Off ch=2 n=77 v=0
96704 Off ch=2 n=69 v=0
96704 On ch=2 n=38 v=71
96704 On ch=2 n=70 v=63
96704 On ch=2 n=79 v=74
96832 Off ch=2 n=70 v=0
96832 Off ch=2 n=79 v=0
96832 On ch=2 n=69 v=66
96832 On ch=2 n=77 v=65
96896 Off ch=2 n=69 v=0
96896 Off ch=2 n=77 v=0
96896 On ch=2 n=67 v=66
96896 On ch=2 n=76 v=64
96960 Off ch=2 n=67 v=0
96960 Off ch=2 n=76 v=0
96960 On ch=2 n=65 v=68
96960 On ch=2 n=74 v=72
97120 Off ch=2 n=65 v=0
97120 On ch=2 n=69 v=75
98176 Tempo 5000000
113856 Tempo 5000000
113856 Off ch=2 n=38 v=0
113856 Off ch=2 n=74 v=0
113856 Off ch=2 n=69 v=0
113856 On ch=2 n=64 v=59
113856 On ch=2 n=73 v=64
113856 On ch=2 n=69 v=77
113856 On ch=2 n=62 v=60
113856 On ch=2 n=74 v=80
113856 On ch=2 n=69 v=80
113856 On ch=2 n=61 v=57
113856 On ch=2 n=76 v=72
113856 On ch=2 n=69 v=74
113856 On ch=2 n=62 v=62
113856 On ch=2 n=77 v=74
113856 On ch=2 n=69 v=81
113856 On ch=2 n=64 v=67
113856 On ch=2 n=79 v=76
113856 On ch=2 n=69 v=81
113856 On ch=2 n=65 v=67
113856 On ch=2 n=81 v=79
113856 On ch=2 n=69 v=76
113856 On ch=2 n=57 v=63
113856 On ch=2 n=73 v=56
113856 On ch=2 n=69 v=90
113856 On ch=2 n=59 v=64
113856 On ch=2 n=74 v=71
113856 On ch=2 n=69 v=82
113856 On ch=2 n=61 v=55
113856 On ch=2 n=76 v=74
113856 On ch=2 n=69 v=84
113856 On ch=2 n=62 v=60
113856 On ch=2 n=77 v=74
113856 On ch=2 n=69 v=77
113856 On ch=2 n=61 v=59
113856 On ch=2 n=76 v=61
113856 On ch=2 n=69 v=85
113856 On ch=2 n=62 v=61
113856 On ch=2 n=77 v=76
113856 On ch=2 n=69 v=80
113856 On ch=2 n=59 v=63
113856 On ch=2 n=74 v=67
113856 On ch=2 n=69 v=90
113856 On ch=2 n=45 v=64
113856 On ch=2 n=73 v=80
113856 On ch=2 n=76 v=74
113856 On ch=2 n=41 v=66
113856 On ch=2 n=69 v=63
113856 On ch=2 n=74 v=68
113856 On ch=2 n=43 v=76
113856 On ch=2 n=70 v=73
113856 On ch=2 n=67 v=73
113856 On ch=2 n=74 v=69
113856 On ch=2 n=45 v=67
113856 On ch=2 n=69 v=66
113856 On ch=2 n=64 v=66
113856 On ch=2 n=73 v=65
113856 On ch=2 n=41 v=66
113856 On ch=2 n=69 v=71
113856 On ch=2 n=65 v=71
113856 On ch=2 n=74 v=69
113856 On ch=2 n=38 v=69
113856 On ch=2 n=74 v=79
113856 On ch=2 n=69 v=79
113856 On ch=2 n=77 v=75
113856 On ch=2 n=43 v=73
113856 On ch=2 n=74 v=70
113856 On ch=2 n=70 v=70
113856 On ch=2 n=76 v=68
113856 On ch=2 n=45 v=77
113856 On ch=2 n=72 v=66
113856 On ch=2 n=69 v=66
113856 On ch=2 n=53 v=75
113856 On ch=2 n=46 v=75
113856 On ch=2 n=62 v=90
113856 On ch=2 n=65 v=57
113856 On ch=2 n=74 v=60
113856 On ch=2 n=77 v=64
113856 On ch=2 n=79 v=74
113856 On ch=2 n=81 v=79
113856 On ch=2 n=82 v=75
113856 On ch=2 n=69 v=62
113856 On ch=2 n=70 v=72
113856 On ch=2 n=72 v=74
113856 On ch=2 n=74 v=80
113856 On ch=2 n=72 v=64
113856 On ch=2 n=74 v=74
113856 On ch=2 n=75 v=72
113856 On ch=2 n=77 v=76
113856 On ch=2 n=65 v=58
113856 On ch=2 n=67 v=72
113856 On ch=2 n=69 v=74
113856 On ch=2 n=70 v=70
113856 On ch=2 n=69 v=64
113856 On ch=2 n=70 v=74
113856 On ch=2 n=72 v=78
113856 On ch=2 n=74 v=75
113856 On ch=2 n=69 v=63
113856 On ch=2 n=67 v=64
113856 On ch=2 n=65 v=69
113856 On ch=2 n=63 v=68
113856 On ch=2 n=67 v=68
113856 On ch=2 n=69 v=79
113856 On ch=2 n=70 v=74
113856 On ch=2 n=72 v=84
113856 On ch=2 n=67 v=63
113856 On ch=2 n=65 v=66
113856 On ch=2 n=63 v=66
113856 On ch=2 n=62 v=66
113856 On ch=2 n=65 v=58
113856 On ch=2 n=67 v=75
113856 On ch=2 n=69 v=74
113856 On ch=2 n=70 v=70
113856 On ch=2 n=57 v=67
113856 On ch=2 n=58 v=68
113856 On ch=2 n=60 v=79
113856 On ch=2 n=62 v=74
113856 On ch=2 n=60 v=63
113856 On ch=2 n=62 v=75
113856 On ch=2 n=63 v=76
113856 On ch=2 n=65 v=76
113856 On ch=2 n=53 v=65
113856 On ch=2 n=55 v=71
113856 On ch=2 n=57 v=72
113856 On ch=2 n=58 v=62
113856 On ch=2 n=57 v=63
113856 On ch=2 n=58 v=72
113856 On ch=2 n=60 v=72
113856 On ch=2 n=62 v=77
113856 On ch=2 n=60 v=61
113856 On ch=2 n=58 v=65
113856 On ch=2 n=57 v=66
113856 On ch=2 n=55 v=68
113856 On ch=2 n=58 v=60
113856 On ch=2 n=60 v=75
113856 On ch=2 n=62 v=73
113856 On ch=2 n=63 v=76
113856 On ch=2 n=62 v=63
113856 On ch=2 n=60 v=61
113856 On ch=2 n=58 v=69
113856 On ch=2 n=57 v=65
113856 On ch=2 n=60 v=61
113856 On ch=2 n=62 v=78
113856 On ch=2 n=64 v=73
113856 On ch=2 n=66 v=77
113856 On ch=2 n=63 v=60
113856 On ch=2 n=62 v=62
113856 On ch=2 n=60 v=64
113856 On ch=2 n=58 v=68
113856 On ch=2 n=66 v=62
113856 On ch=2 n=67 v=73
113856 On ch=2 n=69 v=77
113856 On ch=2 n=70 v=67
113856 On ch=2 n=72 v=63
113856 On ch=2 n=55 v=61
113856 On ch=2 n=74 v=72
113856 On ch=2 n=67 v=58
113856 On ch=2 n=49 v=59
113856 On ch=2 n=61 v=108
113856 On ch=2 n=67 v=60
113856 On ch=2 n=64 v=60
113856 On ch=2 n=76 v=84
113856 On ch=2 n=70 v=84
113856 On ch=2 n=53 v=71
113856 On ch=2 n=62 v=77
113856 On ch=2 n=65 v=69
113856 On ch=2 n=74 v=65
113856 On ch=2 n=69 v=65
113856 On ch=2 n=50 v=67
113856 On ch=2 n=59 v=69
113856 On ch=2 n=44 v=69
113856 On ch=2 n=65 v=70
113856 On ch=2 n=62 v=70
113856 On ch=2 n=71 v=70
113856 On ch=2 n=56 v=59
113856 On ch=2 n=59 v=72
113856 On ch=2 n=53 v=61
113856 On ch=2 n=56 v=77
113856 On ch=2 n=50 v=68
113856 On ch=2 n=53 v=76
113856 On ch=2 n=47 v=64
113856 On ch=2 n=50 v=74
113856 On ch=2 n=44 v=68
113856 On ch=2 n=45 v=70
113856 On ch=2 n=40 v=67
113856 On ch=2 n=56 v=80
113856 On ch=2 n=52 v=80
113856 On ch=2 n=59 v=76
113856 On ch=2 n=68 v=64
113856 On ch=2 n=64 v=64
113856 On ch=2 n=74 v=61
113856 On ch=2 n=71 v=61
113856 On ch=2 n=57 v=69
113856 On ch=2 n=52 v=69
113856 On ch=2 n=60 v=79
113856 On ch=2 n=69 v=75
113856 On ch=2 n=72 v=64
113856 On ch=2 n=64 v=64
113856 On ch=2 n=67 v=65
113856 On ch=2 n=65 v=64
113856 On ch=2 n=55 v=67
113856 On ch=2 n=64 v=69
113856 On ch=2 n=67 v=66
113856 On ch=2 n=65 v=63
113856 On ch=2 n=67 v=74
113856 On ch=2 n=64 v=64
113856 On ch=2 n=64 v=66
113856 On ch=2 n=62 v=68
113856 On ch=2 n=64 v=73
113856 On ch=2 n=60 v=67
113856 On ch=2 n=69 v=61
113856 On ch=2 n=67 v=64
113856 On ch=2 n=69 v=77
113856 On ch=2 n=65 v=63
113856 On ch=2 n=65 v=61
113856 On ch=2 n=64 v=64
113856 On ch=2 n=65 v=73
113856 On ch=2 n=62 v=67
113856 On ch=2 n=71 v=65
113856 On ch=2 n=69 v=64
113856 On ch=2 n=71 v=73
113856 On ch=2 n=67 v=65
113856 On ch=2 n=67 v=65
113856 On ch=2 n=65 v=68
113856 On ch=2 n=67 v=72
113856 On ch=2 n=64 v=65
113856 On ch=2 n=72 v=65
113856 On ch=2 n=71 v=67
113856 On ch=2 n=72 v=73
113856 On ch=2 n=69 v=59
113856 On ch=2 n=74 v=64
113856 On ch=2 n=72 v=65
113856 On ch=2 n=74 v=74
113856 On ch=2 n=71 v=64
113856 On ch=2 n=76 v=65
113856 On ch=2 n=74 v=71
113856 On ch=2 n=76 v=73
113856 On ch=2 n=72 v=61
113856 On ch=2 n=77 v=65
113856 On ch=2 n=76 v=68
113856 On ch=2 n=77 v=70
113856 On ch=2 n=74 v=65
113856 On ch=2 n=79 v=63
113856 On ch=2 n=77 v=62
113856 On ch=2 n=79 v=74
113856 On ch=2 n=76 v=67
113856 On ch=2 n=72 v=63
113856 On ch=2 n=71 v=63
113856 On ch=2 n=72 v=74
113856 On ch=2 n=69 v=65
113856 On ch=2 n=74 v=66
113856 On ch=2 n=72 v=64
113856 On ch=2 n=74 v=76
113856 On ch=2 n=71 v=65
113856 On ch=2 n=68 v=61
113856 On ch=2 n=66 v=63
113856 On ch=2 n=68 v=77
113856 On ch=2 n=64 v=68
113856 On ch=2 n=72 v=58
113856 On ch=2 n=71 v=69
113856 On ch=2 n=72 v=68
113856 On ch=2 n=69 v=61
113856 On ch=2 n=65 v=68
113856 On ch=2 n=64 v=67
113856 On ch=2 n=65 v=72
113856 On ch=2 n=62 v=66
113856 On ch=2 n=71 v=62
113856 On ch=2 n=69 v=66
113856 On ch=2 n=71 v=74
113856 On ch=2 n=60 v=62
113856 On ch=2 n=69 v=60
113856 On ch=2 n=67 v=61
113856 On ch=2 n=69 v=82
113856 On ch=2 n=59 v=62
113856 On ch=2 n=68 v=64
113856 On ch=2 n=66 v=62
113856 On ch=2 n=68 v=72
113856 On ch=2 n=64 v=64
113856 On ch=2 n=60 v=64
113856 On ch=2 n=59 v=63
113856 On ch=2 n=57 v=71
113856 On ch=2 n=56 v=70
113856 On ch=2 n=62 v=67
113856 On ch=2 n=60 v=68
113856 On ch=2 n=59 v=71
113856 On ch=2 n=57 v=63
113856 On ch=2 n=64 v=65
113856 On ch=2 n=62 v=64
113856 On ch=2 n=60 v=67
113856 On ch=2 n=59 v=65
113856 On ch=2 n=65 v=62
113856 On ch=2 n=64 v=68
113856 On ch=2 n=62 v=67
113856 On ch=2 n=60 v=66
113856 On ch=2 n=67 v=62
113856 On ch=2 n=65 v=60
113856 On ch=2 n=64 v=67
113856 On ch=2 n=62 v=61
113856 On ch=2 n=69 v=64
113856 On ch=2 n=67 v=63
113856 On ch=2 n=65 v=66
113856 On ch=2 n=64 v=63
113856 On ch=2 n=67 v=62
113856 On ch=2 n=69 v=74
113856 On ch=2 n=71 v=76
113856 On ch=2 n=72 v=71
113856 On ch=2 n=55 v=65
113856 On ch=2 n=52 v=65
113856 On ch=2 n=67 v=63
113856 On ch=2 n=64 v=63
113856 On ch=2 n=60 v=63
113856 On ch=2 n=57 v=70
113856 On ch=2 n=55 v=70
113856 On ch=2 n=69 v=73
113856 On ch=2 n=64 v=73
113856 On ch=2 n=73 v=75
113856 On ch=2 n=57 v=63
113856 On ch=2 n=61 v=78
113856 On ch=2 n=64 v=77
113856 On ch=2 n=69 v=61
113856 On ch=2 n=73 v=74
113856 On ch=2 n=57 v=62
113856 On ch=2 n=55 v=62
113856 On ch=2 n=69 v=63
113856 On ch=2 n=64 v=63
113856 On ch=2 n=73 v=71
113856 On ch=2 n=57 v=71
113856 On ch=2 n=53 v=71
113856 On ch=2 n=69 v=72
113856 On ch=2 n=65 v=72
113856 On ch=2 n=62 v=72
113856 On ch=2 n=74 v=76
113856 On ch=2 n=57 v=63
113856 On ch=2 n=62 v=79
113856 On ch=2 n=65 v=75
113856 On ch=2 n=69 v=66
113856 On ch=2 n=74 v=78
113856 On ch=2 n=57 v=64
113856 On ch=2 n=53 v=64
113856 On ch=2 n=69 v=62
113856 On ch=2 n=65 v=62
113856 On ch=2 n=74 v=70
113856 On ch=2 n=55 v=72
113856 On ch=2 n=53 v=72
113856 On ch=2 n=67 v=64
113856 On ch=2 n=62 v=64
113856 On ch=2 n=71 v=70
113856 On ch=2 n=55 v=68
113856 On ch=2 n=59 v=77
113856 On ch=2 n=62 v=76
113856 On ch=2 n=67 v=63
113856 On ch=2 n=71 v=80
113856 On ch=2 n=55 v=69
113856 On ch=2 n=53 v=69
113856 On ch=2 n=67 v=64
113856 On ch=2 n=62 v=64
113856 On ch=2 n=71 v=73
113856 On ch=2 n=55 v=73
113856 On ch=2 n=52 v=73
113856 On ch=2 n=67 v=72
113856 On ch=2 n=64 v=72
113856 On ch=2 n=72 v=76
113856 On ch=2 n=55 v=59
113856 On ch=2 n=60 v=77
113856 On ch=2 n=64 v=77
113856 On ch=2 n=67 v=64
113856 On ch=2 n=72 v=80
113856 On ch=2 n=55 v=60
113856 On ch=2 n=52 v=60
113856 On ch=2 n=67 v=63
113856 On ch=2 n=64 v=63
113856 On ch=2 n=72 v=72
113856 On ch=2 n=57 v=69
113856 On ch=2 n=52 v=69
113856 On ch=2 n=65 v=65
113856 On ch=2 n=60 v=65
113856 On ch=2 n=69 v=60
113856 On ch=2 n=53 v=66
113856 On ch=2 n=57 v=77
113856 On ch=2 n=60 v=80
113856 On ch=2 n=65 v=62
113856 On ch=2 n=69 v=77
113856 On ch=2 n=53 v=62
113856 On ch=2 n=52 v=62
113856 On ch=2 n=65 v=60
113856 On ch=2 n=60 v=60
113856 On ch=2 n=69 v=72
113856 On ch=2 n=53 v=69
113856 On ch=2 n=50 v=69
113856 On ch=2 n=65 v=69
113856 On ch=2 n=62 v=69
113856 On ch=2 n=70 v=78
113856 On ch=2 n=53 v=70
113856 On ch=2 n=58 v=77
113856 On ch=2 n=62 v=80
113856 On ch=2 n=65 v=61
113856 On ch=2 n=70 v=79
113856 On ch=2 n=53 v=65
113856 On ch=2 n=50 v=65
113856 On ch=2 n=65 v=64
113856 On ch=2 n=62 v=64
113856 On ch=2 n=70 v=69
113856 On ch=2 n=52 v=69
113856 On ch=2 n=49 v=69
113856 On ch=2 n=67 v=75
113856 On ch=2 n=70 v=71
113856 On ch=2 n=52 v=70
113856 On ch=2 n=55 v=74
113856 On ch=2 n=58 v=73
113856 On ch=2 n=61 v=66
113856 On ch=2 n=70 v=85
113856 On ch=2 n=52 v=63
113856 On ch=2 n=49 v=63
113856 On ch=2 n=67 v=65
113856 On ch=2 n=64 v=65
113856 On ch=2 n=61 v=65
113856 On ch=2 n=70 v=75
113856 On ch=2 n=54 v=71
113856 On ch=2 n=48 v=71
113856 On ch=2 n=66 v=73
113856 On ch=2 n=62 v=73
113856 On ch=2 n=69 v=65
113856 On ch=2 n=50 v=62
113856 On ch=2 n=57 v=78
113856 On ch=2 n=62 v=77
113856 On ch=2 n=66 v=65
113856 On ch=2 n=69 v=76
113856 On ch=2 n=54 v=66
113856 On ch=2 n=48 v=66
113856 On ch=2 n=66 v=61
113856 On ch=2 n=62 v=61
113856 On ch=2 n=69 v=74
113856 On ch=2 n=43 v=62
113856 On ch=2 n=55 v=65
113856 On ch=2 n=62 v=61
113856 On ch=2 n=58 v=61
113856 On ch=2 n=46 v=77
113856 On ch=2 n=67 v=68
113856 On ch=2 n=40 v=60
113856 On ch=2 n=58 v=75
113856 On ch=2 n=64 v=73
113856 On ch=2 n=61 v=73
113888 Tempo 5000000
113888 Tempo 5000000
113888 Off ch=2 n=64 v=0
113888 Off ch=2 n=73 v=0
113888 Off ch=2 n=69 v=0
113888 Off ch=2 n=62 v=0
113888 Off ch=2 n=74 v=0
113888 Off ch=2 n=69 v=0
113888 Off ch=2 n=61 v=0
113888 Off ch=2 n=76 v=0
113888 Off ch=2 n=69 v=0
113888 Off ch=2 n=62 v=0
113888 Off ch=2 n=77 v=0
113888 Off ch=2 n=69 v=0
113888 Off ch=2 n=64 v=0
113888 Off ch=2 n=79 v=0
113888 Off ch=2 n=69 v=0
113888 Off ch=2 n=65 v=0
113888 Off ch=2 n=81 v=0
113888 Off ch=2 n=69 v=0
113888 Off ch=2 n=57 v=0
113888 Off ch=2 n=73 v=0
113888 Off ch=2 n=69 v=0
113888 Off ch=2 n=59 v=0
113888 Off ch=2 n=74 v=0
113888 Off ch=2 n=69 v=0
113888 Off ch=2 n=61 v=0
113888 Off ch=2 n=76 v=0
113888 Off ch=2 n=69 v=0
113888 Off ch=2 n=62 v=0
113888 Off ch=2 n=77 v=0
113888 Off ch=2 n=69 v=0
113888 Off ch=2 n=61 v=0
113888 Off ch=2 n=76 v=0
113888 Off ch=2 n=69 v=0
113888 Off ch=2 n=62 v=0
113888 Off ch=2 n=77 v=0
113888 Off ch=2 n=69 v=0
113888 Off ch=2 n=59 v=0
113888 Off ch=2 n=74 v=0
113888 Off ch=2 n=69 v=0
113888 Off ch=2 n=45 v=0
113888 Off ch=2 n=73 v=0
113888 Off ch=2 n=76 v=0
113888 Off ch=2 n=41 v=0
113888 Off ch=2 n=69 v=0
113888 Off ch=2 n=74 v=0
113888 Off ch=2 n=43 v=0
113888 Off ch=2 n=70 v=0
113888 Off ch=2 n=67 v=0
113888 Off ch=2 n=74 v=0
113888 Off ch=2 n=45 v=0
113888 Off ch=2 n=69 v=0
113888 Off ch=2 n=64 v=0
113888 Off ch=2 n=73 v=0
113888 Off ch=2 n=41 v=0
113888 Off ch=2 n=69 v=0
113888 Off ch=2 n=65 v=0
113888 Off ch=2 n=74 v=0
113888 Off ch=2 n=38 v=0
113888 Off ch=2 n=74 v=0
113888 Off ch=2 n=69 v=0
113888 Off ch=2 n=77 v=0
113888 Off ch=2 n=43 v=0
113888 Off ch=2 n=74 v=0
113888 Off ch=2 n=70 v=0
113888 Off ch=2 n=76 v=0
113888 Off ch=2 n=45 v=0
113888 Off ch=2 n=72 v=0
113888 Off ch=2 n=69 v=0
113888 Off ch=2 n=53 v=0
113888 Off ch=2 n=46 v=0
113888 Off ch=2 n=62 v=0
113888 Off ch=2 n=65 v=0
113888 Off ch=2 n=74 v=0
113888 Off ch=2 n=77 v=0
113888 Off ch=2 n=79 v=0
113888 Off ch=2 n=81 v=0
113888 Off ch=2 n=82 v=0
113888 Off ch=2 n=69 v=0
113888 Off ch=2 n=70 v=0
113888 Off ch=2 n=72 v=0
113888 Off ch=2 n=74 v=0
113888 Off ch=2 n=72 v=0
113888 Off ch=2 n=74 v=0
113888 Off ch=2 n=75 v=0
113888 Off ch=2 n=77 v=0
113888 Off ch=2 n=65 v=0
113888 Off ch=2 n=67 v=0
113888 Off ch=2 n=69 v=0
113888 Off ch=2 n=70 v=0
113888 Off ch=2 n=69 v=0
113888 Off ch=2 n=70 v=0
113888 Off ch=2 n=72 v=0
113888 Off ch=2 n=74 v=0
113888 Off ch=2 n=69 v=0
113888 Off ch=2 n=67 v=0
113888 Off ch=2 n=65 v=0
113888 Off ch=2 n=63 v=0
113888 Off ch=2 n=67 v=0
113888 Off ch=2 n=69 v=0
113888 Off ch=2 n=70 v=0
113888 Off ch=2 n=72 v=0
113888 Off ch=2 n=67 v=0
113888 Off ch=2 n=65 v=0
113888 Off ch=2 n=63 v=0
113888 Off ch=2 n=62 v=0
113888 Off ch=2 n=65 v=0
113888 Off ch=2 n=67 v=0
113888 Off ch=2 n=69 v=0
113888 Off ch=2 n=70 v=0
113888 Off ch=2 n=57 v=0
113888 Off ch=2 n=58 v=0
113888 Off ch=2 n=60 v=0
113888 Off ch=2 n=62 v=0
113888 Off ch=2 n=60 v=0
113888 Off ch=2 n=62 v=0
113888 Off ch=2 n=63 v=0
113888 Off ch=2 n=65 v=0
113888 Off ch=2 n=53 v=0
113888 Off ch=2 n=55 v=0
113888 Off ch=2 n=57 v=0
113888 Off ch=2 n=58 v=0
113888 Off ch=2 n=57 v=0
113888 Off ch=2 n=58 v=0
113888 Off ch=2 n=60 v=0
113888 Off ch=2 n=62 v=0
113888 Off ch=2 n=60 v=0
113888 Off ch=2 n=58 v=0
113888 Off ch=2 n=57 v=0
113888 Off ch=2 n=55 v=0
113888 Off ch=2 n=58 v=0
113888 Off ch=2 n=60 v=0
113888 Off ch=2 n=62 v=0
113888 Off ch=2 n=63 v=0
113888 Off ch=2 n=62 v=0
113888 Off ch=2 n=60 v=0
113888 Off ch=2 n=58 v=0
113888 Off ch=2 n=57 v=0
113888 Off ch=2 n=60 v=0
113888 Off ch=2 n=62 v=0
113888 Off ch=2 n=64 v=0
113888 Off ch=2 n=66 v=0
113888 Off ch=2 n=63 v=0
113888 Off ch=2 n=62 v=0
113888 Off ch=2 n=60 v=0
113888 Off ch=2 n=58 v=0
113888 Off ch=2 n=66 v=0
113888 Off ch=2 n=67 v=0
113888 Off ch=2 n=69 v=0
113888 Off ch=2 n=70 v=0
113888 Off ch=2 n=72 v=0
113888 Off ch=2 n=55 v=0
113888 Off ch=2 n=74 v=0
113888 Off ch=2 n=67 v=0
113888 Off ch=2 n=49 v=0
113888 Off ch=2 n=61 v=0
113888 Off ch=2 n=67 v=0
113888 Off ch=2 n=64 v=0
113888 Off ch=2 n=76 v=0
113888 Off ch=2 n=70 v=0
113888 Off ch=2 n=53 v=0
113888 Off ch=2 n=62 v=0
113888 Off ch=2 n=65 v=0
113888 Off ch=2 n=74 v=0
113888 Off ch=2 n=69 v=0
113888 Off ch=2 n=50 v=0
113888 Off ch=2 n=59 v=0
113888 Off ch=2 n=44 v=0
113888 Off ch=2 n=65 v=0
113888 Off ch=2 n=62 v=0
113888 Off ch=2 n=71 v=0
113888 Off ch=2 n=56 v=0
113888 Off ch=2 n=59 v=0
113888 Off ch=2 n=53 v=0
113888 Off ch=2 n=56 v=0
113888 Off ch=2 n=50 v=0
113888 Off ch=2 n=53 v=0
113888 Off ch=2 n=47 v=0
113888 Off ch=2 n=50 v=0
113888 Off ch=2 n=44 v=0
113888 Off ch=2 n=45 v=0
113888 Off ch=2 n=40 v=0
113888 Off ch=2 n=56 v=0
113888 Off ch=2 n=52 v=0
113888 Off ch=2 n=59 v=0
113888 Off ch=2 n=68 v=0
113888 Off ch=2 n=64 v=0
113888 Off ch=2 n=74 v=0
113888 Off ch=2 n=71 v=0
113888 Off ch=2 n=57 v=0
113888 Off ch=2 n=52 v=0
113888 Off ch=2 n=60 v=0
113888 Off ch=2 n=69 v=0
113888 Off ch=2 n=72 v=0
113888 Off ch=2 n=64 v=0
113888 Off ch=2 n=67 v=0
113888 Off ch=2 n=65 v=0
113888 Off ch=2 n=55 v=0
113888 Off ch=2 n=64 v=0
113888 Off ch=2 n=67 v=0
113888 Off ch=2 n=65 v=0
113888 Off ch=2 n=67 v=0
113888 Off ch=2 n=64 v=0
113888 Off ch=2 n=64 v=0
113888 Off ch=2 n=62 v=0
113888 Off ch=2 n=64 v=0
113888 Off ch=2 n=60 v=0
113888 Off ch=2 n=69 v=0
113888 Off ch=2 n=67 v=0
113888 Off ch=2 n=69 v=0
113888 Off ch=2 n=65 v=0
113888 Off ch=2 n=65 v=0
113888 Off ch=2 n=64 v=0
113888 Off ch=2 n=65 v=0
113888 Off ch=2 n=62 v=0
113888 Off ch=2 n=71 v=0
113888 Off ch=2 n=69 v=0
113888 Off ch=2 n=71 v=0
113888 Off ch=2 n=67 v=0
113888 Off ch=2 n=67 v=0
113888 Off ch=2 n=65 v=0
113888 Off ch=2 n=67 v=0
113888 Off ch=2 n=64 v=0
113888 Off ch=2 n=72 v=0
113888 Off ch=2 n=71 v=0
113888 Off ch=2 n=72 v=0
113888 Off ch=2 n=69 v=0
113888 Off ch=2 n=74 v=0
113888 Off ch=2 n=72 v=0
113888 Off ch=2 n=74 v=0
113888 Off ch=2 n=71 v=0
113888 Off ch=2 n=76 v=0
113888 Off ch=2 n=74 v=0
113888 Off ch=2 n=76 v=0
113888 Off ch=2 n=72 v=0
113888 Off ch=2 n=77 v=0
113888 Off ch=2 n=76 v=0
113888 Off ch=2 n=77 v=0
113888 Off ch=2 n=74 v=0
113888 Off ch=2 n=79 v=0
113888 Off ch=2 n=77 v=0
113888 Off ch=2 n=79 v=0
113888 Off ch=2 n=76 v=0
113888 Off ch=2 n=72 v=0
113888 Off ch=2 n=71 v=0
113888 Off ch=2 n=72 v=0
113888 Off ch=2 n=69 v=0
113888 Off ch=2 n=74 v=0
113888 Off ch=2 n=72 v=0
113888 Off ch=2 n=74 v=0
113888 Off ch=2 n=71 v=0
113888 Off ch=2 n=68 v=0
113888 Off ch=2 n=66 v=0
113888 Off ch=2 n=68 v=0
113888 Off ch=2 n=64 v=0
113888 Off ch=2 n=72 v=0
113888 Off ch=2 n=71 v=0
113888 Off ch=2 n=72 v=0
113888 Off ch=2 n=69 v=0
113888 Off ch=2 n=65 v=0
113888 Off ch=2 n=64 v=0
113888 Off ch=2 n=65 v=0
113888 Off ch=2 n=62 v=0
113888 Off ch=2 n=71 v=0
113888 Off ch=2 n=69 v=0
113888 Off ch=2 n=71 v=0
113888 Off ch=2 n=60 v=0
113888 Off ch=2 n=69 v=0
113888 Off ch=2 n=67 v=0
113888 Off ch=2 n=69 v=0
113888 Off ch=2 n=59 v=0
113888 Off ch=2 n=68 v=0
113888 Off ch=2 n=66 v=0
113888 Off ch=2 n=68 v=0
113888 Off ch=2 n=64 v=0
113888 Off ch=2 n=60 v=0
113888 Off ch=2 n=59 v=0
113888 Off ch=2 n=57 v=0
113888 Off ch=2 n=56 v=0
113888 Off ch=2 n=62 v=0
113888 Off ch=2 n=60 v=0
113888 Off ch=2 n=59 v=0
113888 Off ch=2 n=57 v=0
113888 Off ch=2 n=64 v=0
113888 Off ch=2 n=62 v=0
113888 Off ch=2 n=60 v=0
113888 Off ch=2 n=59 v=0
113888 Off ch=2 n=65 v=0
113888 Off ch=2 n=64 v=0
113888 Off ch=2 n=62 v=0
113888 Off ch=2 n=60 v=0
113888 Off ch=2 n=67 v=0
113888 Off ch=2 n=65 v=0
113888 Off ch=2 n=64 v=0
113888 Off ch=2 n=62 v=0
113888 Off ch=2 n=69 v=0
113888 Off ch=2 n=67 v=0
113888 Off ch=2 n=65 v=0
113888 Off ch=2 n=64 v=0
113888 Off ch=2 n=67 v=0
113888 Off ch=2 n=69 v=0
113888 Off ch=2 n=71 v=0
113888 Off ch=2 n=72 v=0
113888 Off ch=2 n=55 v=0
113888 Off ch=2 n=52 v=0
113888 Off ch=2 n=67 v=0
113888 Off ch=2 n=64 v=0
113888 Off ch=2 n=60 v=0
113888 Off ch=2 n=57 v=0
113888 Off ch=2 n=55 v=0
113888 Off ch=2 n=69 v=0
113888 Off ch=2 n=64 v=0
113888 Off ch=2 n=73 v=0
113888 Off ch=2 n=57 v=0
113888 Off ch=2 n=61 v=0
113888 Off ch=2 n=64 v=0
113888 Off ch=2 n=69 v=0
113888 Off ch=2 n=73 v=0
113888 Off ch=2 n=57 v=0
113888 Off ch=2 n=55 v=0
113888 Off ch=2 n=69 v=0
113888 Off ch=2 n=64 v=0
113888 Off ch=2 n=73 v=0
113888 Off ch=2 n=57 v=0
113888 Off ch=2 n=53 v=0
113888 Off ch=2 n=69 v=0
113888 Off ch=2 n=65 v=0
113888 Off ch=2 n=62 v=0
113888 Off ch=2 n=74 v=0
113888 Off ch=2 n=57 v=0
113888 Off ch=2 n=62 v=0
113888 Off ch=2 n=65 v=0
113888 Off ch=2 n=69 v=0
113888 Off ch=2 n=74 v=0
113888 Off ch=2 n=57 v=0
113888 Off ch=2 n=53 v=0
113888 Off ch=2 n=69 v=0
113888 Off ch=2 n=65 v=0
113888 Off ch=2 n=74 v=0
113888 Off ch=2 n=55 v=0
113888 Off ch=2 n=53 v=0
113888 Off ch=2 n=67 v=0
113888 Off ch=2 n=62 v=0
113888 Off ch=2 n=71 v=0
113888 Off ch=2 n=55 v=0
113888 Off ch=2 n=59 v=0
113888 Off ch=2 n=62 v=0
113888 Off ch=2 n=67 v=0
113888 Off ch=2 n=71 v=0
113888 Off ch=2 n=55 v=0
113888 Off ch=2 n=53 v=0
113888 Off ch=2 n=67 v=0
113888 Off ch=2 n=62 v=0
113888 Off ch=2 n=71 v=0
113888 Off ch=2 n=55 v=0
113888 Off ch=2 n=52 v=0
113888 Off ch=2 n=67 v=0
113888 Off ch=2 n=64 v=0
113888 Off ch=2 n=72 v=0
113888 Off ch=2 n=55 v=0
113888 Off ch=2 n=60 v=0
113888 Off ch=2 n=64 v=0
113888 Off ch=2 n=67 v=0
113888 Off ch=2 n=72 v=0
113888 Off ch=2 n=55 v=0
113888 Off ch=2 n=52 v=0
113888 Off ch=2 n=67 v=0
113888 Off ch=2 n=64 v=0
113888 Off ch=2 n=72 v=0
113888 Off ch=2 n=57 v=0
113888 Off ch=2 n=52 v=0
113888 Off ch=2 n=65 v=0
113888 Off ch=2 n=60 v=0
113888 Off ch=2 n=69 v=0
113888 Off ch=2 n=53 v=0
113888 Off ch=2 n=57 v=0
113888 Off ch=2 n=60 v=0
113888 Off ch=2 n=65 v=0
113888 Off ch=2 n=69 v=0
113888 Off ch=2 n=53 v=0
113888 Off ch=2 n=52 v=0
113888 Off ch=2 n=65 v=0
113888 Off ch=2 n=60 v=0
113888 Off ch=2 n=69 v=0
113888 Off ch=2 n=53 v=0
113888 Off ch=2 n=50 v=0
113888 Off ch=2 n=65 v=0
113888 Off ch=2 n=62 v=0
113888 Off ch=2 n=70 v=0
113888 Off ch=2 n=53 v=0
113888 Off ch=2 n=58 v=0
113888 Off ch=2 n=62 v=0
113888 Off ch=2 n=65 v=0
113888 Off ch=2 n=70 v=0
113888 Off ch=2 n=53 v=0
113888 Off ch=2 n=50 v=0
113888 Off ch=2 n=65 v=0
113888 Off ch=2 n=62 v=0
113888 Off ch=2 n=70 v=0
113888 Off ch=2 n=52 v=0
113888 Off ch=2 n=49 v=0
113888 Off ch=2 n=67 v=0
113888 Off ch=2 n=70 v=0
113888 Off ch=2 n=52 v=0
113888 Off ch=2 n=55 v=0
113888 Off ch=2 n=58 v=0
113888 Off ch=2 n=61 v=0
113888 Off ch=2 n=70 v=0
113888 Off ch=2 n=52 v=0
113888 Off ch=2 n=49 v=0
113888 Off ch=2 n=67 v=0
113888 Off ch=2 n=64 v=0
113888 Off ch=2 n=61 v=0
113888 Off ch=2 n=70 v=0
113888 Off ch=2 n=54 v=0
113888 Off ch=2 n=48 v=0
113888 Off ch=2 n=66 v=0
113888 Off ch=2 n=62 v=0
113888 Off ch=2 n=69 v=0
113888 Off ch=2 n=50 v=0
113888 Off ch=2 n=57 v=0
113888 Off ch=2 n=62 v=0
113888 Off ch=2 n=66 v=0
113888 Off ch=2 n=69 v=0
113888 Off ch=2 n=54 v=0
113888 Off ch=2 n=48 v=0
113888 Off ch=2 n=66 v=0
113888 Off ch=2 n=62 v=0
113888 Off ch=2 n=69 v=0
113888 Off ch=2 n=43 v=0
113888 Off ch=2 n=55 v=0
113888 Off ch=2 n=62 v=0
113888 Off ch=2 n=58 v=0
113888 Off ch=2 n=46 v=0
114144 Tempo 857142
114144 Tempo 857142
114240 Tempo 5000000
114496 Tempo 857142
114496 Tempo 857142
118976 Tempo 5000000
132096 Off ch=2 n=67 v=0
132096 Off ch=2 n=40 v=0
132096 Off ch=2 n=58 v=0
132096 Off ch=2 n=64 v=0
132096 Off ch=2 n=61 v=0
132096 On ch=2 n=41 v=77
132096 On ch=2 n=57 v=73
132096 On ch=2 n=62 v=62
132096 On ch=2 n=62 v=66
132096 On ch=2 n=65 v=65
132448 Off ch=2 n=41 v=0
132448 Off ch=2 n=57 v=0
132448 Off ch=2 n=62 v=0
132448 Off ch=2 n=62 v=0
132448 Off ch=2 n=65 v=0
132448 On ch=2 n=57 v=75
132448 On ch=2 n=45 v=75
132448 On ch=2 n=64 v=63
132448 On ch=2 n=60 v=69
132448 On ch=2 n=53 v=66
132448 On ch=2 n=46 v=66
132448 On ch=2 n=62 v=65
132448 On ch=2 n=43 v=61
132448 On ch=2 n=58 v=66
132448 On ch=2 n=53 v=77
132448 On ch=2 n=38 v=77
132448 On ch=2 n=57 v=71
132480 Off ch=2 n=57 v=0
132480 Off ch=2 n=45 v=0
132480 Off ch=2 n=64 v=0
132480 Off ch=2 n=60 v=0
132480 Off ch=2 n=53 v=0
132480 Off ch=2 n=46 v=0
132480 Off ch=2 n=62 v=0
132480 Off ch=2 n=43 v=0
132480 Off ch=2 n=58 v=0
132480 Off ch=2 n=53 v=0
132480 Off ch=2 n=38 v=0
132480 Off ch=2 n=57 v=0
133568 Tempo 1000000
133792 Tempo 1000000
147717 Meta TrkEnd
TrkEnd