MFile 1 2 256
MTrk
0 TimeSig 4/4 24 8
0 KeySig 2 major
0 Tempo 1250000
0 Meta TrkName "Sweden"
0 Meta Text "C418"
0 Meta Copyright "Copyright © C418"
17856 Tempo 1250000
17872 Tempo 1290322
17888 Tempo 1333332
17904 Tempo 1379309
17920 Tempo 1428571
17936 Tempo 1481481
17952 Tempo 1538460
17968 Tempo 1600000
17969 Meta TrkEnd
TrkEnd
MTrk
0 PrCh ch=1 p=0
0 Par ch=1 c=121 v=0
0 Par ch=1 c=64 v=0
0 Par ch=1 c=91 v=48
0 Par ch=1 c=10 v=51
0 Par ch=1 c=7 v=100
0 On ch=1 n=52 v=55
0 On ch=1 n=55 v=55
0 Par ch=1 c=121 v=0
0 Par ch=1 c=64 v=0
0 Par ch=1 c=91 v=48
0 Par ch=1 c=10 v=51
0 Par ch=1 c=7 v=100
0 Meta TrkName "Piano"
0 On ch=1 n=40 v=55
256 Off ch=1 n=40 v=0
256 On ch=1 n=42 v=69
512 Off ch=1 n=52 v=0
512 Off ch=1 n=55 v=0
512 On ch=1 n=57 v=68
512 On ch=1 n=62 v=68
512 Off ch=1 n=42 v=0
512 On ch=1 n=43 v=63
768 Off ch=1 n=43 v=0
768 On ch=1 n=47 v=68
1024 Off ch=1 n=57 v=0
1024 Off ch=1 n=62 v=0
1024 On ch=1 n=54 v=58
1024 On ch=1 n=57 v=58
1024 Off ch=1 n=47 v=0
1024 On ch=1 n=45 v=59
1280 Off ch=1 n=45 v=0
1280 On ch=1 n=43 v=58
1536 Off ch=1 n=54 v=0
1536 Off ch=1 n=57 v=0
1536 On ch=1 n=57 v=65
1536 On ch=1 n=61 v=65
1536 Off ch=1 n=43 v=0
1536 On ch=1 n=38 v=57
2048 Off ch=1 n=57 v=0
2048 Off ch=1 n=61 v=0
2048 On ch=1 n=52 v=58
2048 On ch=1 n=55 v=58
2048 On ch=1 n=59 v=58
2048 Off ch=1 n=38 v=0
2048 On ch=1 n=40 v=61
2304 Off ch=1 n=40 v=0
2304 On ch=1 n=42 v=67
2560 Off ch=1 n=52 v=0
2560 Off ch=1 n=55 v=0
2560 Off ch=1 n=59 v=0
2560 On ch=1 n=57 v=72
2560 On ch=1 n=62 v=72
2560 On ch=1 n=66 v=72
2560 Off ch=1 n=42 v=0
2560 On ch=1 n=43 v=62
2816 Off ch=1 n=43 v=0
2816 On ch=1 n=47 v=71
3072 Off ch=1 n=57 v=0
3072 Off ch=1 n=62 v=0
3072 Off ch=1 n=66 v=0
3072 On ch=1 n=54 v=56
3072 On ch=1 n=57 v=56
3072 On ch=1 n=61 v=56
3072 Off ch=1 n=47 v=0
3072 On ch=1 n=45 v=62
3328 Off ch=1 n=45 v=0
3328 On ch=1 n=43 v=61
3584 Off ch=1 n=54 v=0
3584 Off ch=1 n=57 v=0
3584 Off ch=1 n=61 v=0
3584 On ch=1 n=57 v=66
3584 On ch=1 n=61 v=66
3584 On ch=1 n=64 v=66
3584 Off ch=1 n=43 v=0
3584 On ch=1 n=38 v=56
4096 Off ch=1 n=57 v=0
4096 Off ch=1 n=61 v=0
4096 Off ch=1 n=64 v=0
4096 On ch=1 n=52 v=60
4096 On ch=1 n=55 v=60
4096 On ch=1 n=59 v=60
4096 Off ch=1 n=38 v=0
4096 On ch=1 n=40 v=64
4352 Off ch=1 n=40 v=0
4352 On ch=1 n=42 v=67
4608 Off ch=1 n=52 v=0
4608 Off ch=1 n=55 v=0
4608 Off ch=1 n=59 v=0
4608 On ch=1 n=57 v=69
4608 On ch=1 n=62 v=69
4608 On ch=1 n=66 v=69
4608 Off ch=1 n=42 v=0
4608 On ch=1 n=43 v=63
4864 Off ch=1 n=43 v=0
4864 On ch=1 n=47 v=63
5120 Off ch=1 n=57 v=0
5120 Off ch=1 n=62 v=0
5120 Off ch=1 n=66 v=0
5120 On ch=1 n=54 v=57
5120 On ch=1 n=57 v=57
5120 On ch=1 n=61 v=57
5120 Off ch=1 n=47 v=0
5120 On ch=1 n=45 v=63
5376 Off ch=1 n=45 v=0
5376 On ch=1 n=43 v=57
5632 Off ch=1 n=54 v=0
5632 Off ch=1 n=57 v=0
5632 Off ch=1 n=61 v=0
5632 On ch=1 n=57 v=61
5632 On ch=1 n=61 v=61
5632 On ch=1 n=64 v=61
5632 Off ch=1 n=43 v=0
5632 On ch=1 n=38 v=60
6144 Off ch=1 n=57 v=0
6144 Off ch=1 n=61 v=0
6144 Off ch=1 n=64 v=0
6144 On ch=1 n=52 v=66
6144 On ch=1 n=55 v=66
6144 On ch=1 n=59 v=66
6144 Off ch=1 n=38 v=0
6144 On ch=1 n=40 v=87
6400 On ch=1 n=69 v=73
6400 Off ch=1 n=40 v=0
6400 On ch=1 n=42 v=83
6528 On ch=1 n=71 v=77
6530 Off ch=1 n=69 v=0
6656 Off ch=1 n=52 v=0
6656 Off ch=1 n=55 v=0
6656 Off ch=1 n=59 v=0
6656 On ch=1 n=66 v=75
6656 On ch=1 n=57 v=83
6656 On ch=1 n=62 v=83
6656 Off ch=1 n=42 v=0
6656 On ch=1 n=43 v=90
6658 Off ch=1 n=71 v=0
6912 Off ch=1 n=43 v=0
6912 On ch=1 n=47 v=87
7020 Off ch=1 n=66 v=0
7040 On ch=1 n=62 v=75
7104 On ch=1 n=64 v=83
7105 Off ch=1 n=62 v=0
7142 Off ch=1 n=57 v=0
7142 Off ch=1 n=62 v=0
7168 On ch=1 n=61 v=83
7168 On ch=1 n=54 v=71
7168 On ch=1 n=57 v=71
7168 Off ch=1 n=47 v=0
7168 On ch=1 n=45 v=80
7169 Off ch=1 n=64 v=0
7424 Off ch=1 n=45 v=0
7424 On ch=1 n=43 v=80
7532 Off ch=1 n=61 v=0
7552 On ch=1 n=66 v=95
7616 On ch=1 n=69 v=108
7617 Off ch=1 n=66 v=0
7654 Off ch=1 n=54 v=0
7654 Off ch=1 n=57 v=0
7680 On ch=1 n=64 v=75
7680 On ch=1 n=57 v=88
7680 On ch=1 n=61 v=88
7680 Off ch=1 n=43 v=0
7680 On ch=1 n=38 v=78
7681 Off ch=1 n=69 v=0
8166 Off ch=1 n=64 v=0
8166 Off ch=1 n=57 v=0
8166 Off ch=1 n=61 v=0
8192 On ch=1 n=52 v=77
8192 On ch=1 n=55 v=77
8192 On ch=1 n=59 v=77
8192 Off ch=1 n=38 v=0
8192 On ch=1 n=40 v=88
8320 On ch=1 n=74 v=73
8448 On ch=1 n=71 v=63
8448 Off ch=1 n=40 v=0
8448 On ch=1 n=42 v=87
8450 Off ch=1 n=74 v=0
8576 On ch=1 n=69 v=72
8578 Off ch=1 n=71 v=0
8704 Off ch=1 n=52 v=0
8704 Off ch=1 n=55 v=0
8704 Off ch=1 n=59 v=0
8704 On ch=1 n=66 v=68
8704 On ch=1 n=57 v=84
8704 On ch=1 n=62 v=84
8704 Off ch=1 n=42 v=0
8704 On ch=1 n=43 v=91
8706 Off ch=1 n=69 v=0
8960 Off ch=1 n=43 v=0
8960 On ch=1 n=47 v=88
9068 Off ch=1 n=66 v=0
9088 On ch=1 n=62 v=70
9152 On ch=1 n=64 v=75
9153 Off ch=1 n=62 v=0
9190 Off ch=1 n=57 v=0
9190 Off ch=1 n=62 v=0
9216 On ch=1 n=61 v=79
9216 On ch=1 n=54 v=69
9216 On ch=1 n=57 v=69
9216 Off ch=1 n=47 v=0
9216 On ch=1 n=45 v=85
9217 Off ch=1 n=64 v=0
9472 Off ch=1 n=45 v=0
9472 On ch=1 n=43 v=81
9580 Off ch=1 n=61 v=0
9600 On ch=1 n=69 v=99
9664 On ch=1 n=66 v=90
9665 Off ch=1 n=69 v=0
9702 Off ch=1 n=54 v=0
9702 Off ch=1 n=57 v=0
9728 On ch=1 n=64 v=78
9728 On ch=1 n=57 v=88
9728 On ch=1 n=61 v=88
9728 Off ch=1 n=43 v=0
9728 On ch=1 n=38 v=79
9729 Off ch=1 n=66 v=0
10214 Off ch=1 n=64 v=0
10214 Off ch=1 n=57 v=0
10214 Off ch=1 n=61 v=0
10240 On ch=1 n=52 v=78
10240 On ch=1 n=55 v=78
10240 On ch=1 n=59 v=78
10240 Off ch=1 n=38 v=0
10240 On ch=1 n=40 v=70
10496 On ch=1 n=69 v=71
10496 Off ch=1 n=40 v=0
10496 On ch=1 n=42 v=78
10624 On ch=1 n=71 v=76
10626 Off ch=1 n=69 v=0
10752 Off ch=1 n=52 v=0
10752 Off ch=1 n=55 v=0
10752 Off ch=1 n=59 v=0
10752 On ch=1 n=74 v=92
10752 On ch=1 n=62 v=92
10752 On ch=1 n=66 v=92
10752 Off ch=1 n=42 v=0
10752 On ch=1 n=57 v=77
10752 On ch=1 n=43 v=78
10754 Off ch=1 n=71 v=0
11008 Off ch=1 n=57 v=0
11008 Off ch=1 n=43 v=0
11008 On ch=1 n=47 v=79
11116 Off ch=1 n=74 v=0
11116 Off ch=1 n=62 v=0
11116 Off ch=1 n=66 v=0
11136 On ch=1 n=78 v=93
11136 On ch=1 n=62 v=69
11200 On ch=1 n=76 v=88
11200 On ch=1 n=64 v=72
11201 Off ch=1 n=78 v=0
11201 Off ch=1 n=62 v=0
11264 On ch=1 n=62 v=76
11264 On ch=1 n=73 v=76
11264 On ch=1 n=61 v=68
11264 Off ch=1 n=47 v=0
11264 On ch=1 n=54 v=79
11264 On ch=1 n=57 v=79
11264 On ch=1 n=45 v=75
11265 Off ch=1 n=76 v=0
11265 Off ch=1 n=64 v=0
11520 Off ch=1 n=54 v=0
11520 Off ch=1 n=57 v=0
11520 Off ch=1 n=45 v=0
11520 On ch=1 n=43 v=73
11628 Off ch=1 n=62 v=0
11628 Off ch=1 n=73 v=0
11648 On ch=1 n=66 v=84
11648 On ch=1 n=74 v=84
11712 On ch=1 n=73 v=81
11713 Off ch=1 n=66 v=0
11713 Off ch=1 n=74 v=0
11750 Off ch=1 n=61 v=0
11776 On ch=1 n=69 v=74
11776 On ch=1 n=57 v=85
11776 On ch=1 n=61 v=85
11776 On ch=1 n=64 v=85
11776 Off ch=1 n=43 v=0
11776 On ch=1 n=38 v=70
11777 Off ch=1 n=73 v=0
12262 Off ch=1 n=69 v=0
12262 Off ch=1 n=57 v=0
12262 Off ch=1 n=61 v=0
12262 Off ch=1 n=64 v=0
12288 On ch=1 n=52 v=74
12288 On ch=1 n=55 v=74
12288 On ch=1 n=59 v=74
12288 Off ch=1 n=38 v=0
12288 On ch=1 n=40 v=80
12544 On ch=1 n=71 v=91
12544 Off ch=1 n=40 v=0
12544 On ch=1 n=42 v=98
12672 On ch=1 n=69 v=83
12674 Off ch=1 n=71 v=0
12800 Off ch=1 n=52 v=0
12800 Off ch=1 n=55 v=0
12800 Off ch=1 n=59 v=0
12800 On ch=1 n=66 v=90
12800 On ch=1 n=57 v=83
12800 On ch=1 n=62 v=83
12800 Off ch=1 n=42 v=0
12800 On ch=1 n=43 v=103
12802 Off ch=1 n=69 v=0
13056 Off ch=1 n=43 v=0
13056 On ch=1 n=47 v=104
13164 Off ch=1 n=66 v=0
13184 On ch=1 n=62 v=90
13248 On ch=1 n=64 v=92
13249 Off ch=1 n=62 v=0
13286 Off ch=1 n=57 v=0
13286 Off ch=1 n=62 v=0
13312 On ch=1 n=61 v=91
13312 On ch=1 n=54 v=71
13312 On ch=1 n=57 v=71
13312 Off ch=1 n=47 v=0
13312 On ch=1 n=45 v=89
13313 Off ch=1 n=64 v=0
13568 Off ch=1 n=45 v=0
13568 On ch=1 n=43 v=98
13676 Off ch=1 n=61 v=0
13696 On ch=1 n=66 v=109
13760 On ch=1 n=69 v=123
13761 Off ch=1 n=66 v=0
13798 Off ch=1 n=54 v=0
13798 Off ch=1 n=57 v=0
13824 On ch=1 n=64 v=87
13824 On ch=1 n=57 v=84
13824 On ch=1 n=61 v=84
13824 Off ch=1 n=43 v=0
13824 On ch=1 n=38 v=92
13825 Off ch=1 n=69 v=0
14310 Off ch=1 n=64 v=0
14310 Off ch=1 n=57 v=0
14310 Off ch=1 n=61 v=0
14336 On ch=1 n=52 v=71
14336 On ch=1 n=55 v=71
14336 On ch=1 n=59 v=71
14336 Off ch=1 n=38 v=0
14336 On ch=1 n=40 v=98
14592 On ch=1 n=69 v=91
14592 Off ch=1 n=40 v=0
14592 On ch=1 n=42 v=97
14720 On ch=1 n=71 v=88
14722 Off ch=1 n=69 v=0
14848 Off ch=1 n=52 v=0
14848 Off ch=1 n=55 v=0
14848 Off ch=1 n=59 v=0
14848 On ch=1 n=66 v=84
14848 On ch=1 n=57 v=83
14848 On ch=1 n=62 v=83
14848 Off ch=1 n=42 v=0
14848 On ch=1 n=43 v=106
14850 Off ch=1 n=71 v=0
15104 Off ch=1 n=43 v=0
15104 On ch=1 n=47 v=103
15212 Off ch=1 n=66 v=0
15232 On ch=1 n=62 v=85
15296 On ch=1 n=64 v=91
15297 Off ch=1 n=62 v=0
15334 Off ch=1 n=57 v=0
15334 Off ch=1 n=62 v=0
15360 On ch=1 n=61 v=88
15360 On ch=1 n=54 v=72
15360 On ch=1 n=57 v=72
15360 Off ch=1 n=47 v=0
15360 On ch=1 n=45 v=97
15361 Off ch=1 n=64 v=0
15616 Off ch=1 n=45 v=0
15616 On ch=1 n=43 v=97
15724 Off ch=1 n=61 v=0
15744 On ch=1 n=66 v=109
15808 On ch=1 n=69 v=120
15809 Off ch=1 n=66 v=0
15846 Off ch=1 n=54 v=0
15846 Off ch=1 n=57 v=0
15872 On ch=1 n=64 v=87
15872 On ch=1 n=57 v=86
15872 On ch=1 n=61 v=86
15872 Off ch=1 n=43 v=0
15872 On ch=1 n=38 v=91
15873 Off ch=1 n=69 v=0
16358 Off ch=1 n=64 v=0
16358 Off ch=1 n=57 v=0
16358 Off ch=1 n=61 v=0
16384 On ch=1 n=52 v=72
16384 On ch=1 n=55 v=72
16384 On ch=1 n=59 v=72
16384 Off ch=1 n=38 v=0
16384 On ch=1 n=40 v=80
16640 On ch=1 n=69 v=92
16640 Off ch=1 n=40 v=0
16640 On ch=1 n=42 v=81
16768 On ch=1 n=71 v=96
16770 Off ch=1 n=69 v=0
16896 Off ch=1 n=52 v=0
16896 Off ch=1 n=55 v=0
16896 Off ch=1 n=59 v=0
16896 On ch=1 n=66 v=105
16896 On ch=1 n=74 v=105
16896 On ch=1 n=62 v=77
16896 Off ch=1 n=42 v=0
16896 On ch=1 n=57 v=86
16896 On ch=1 n=43 v=78
16898 Off ch=1 n=71 v=0
17152 Off ch=1 n=43 v=0
17152 On ch=1 n=47 v=78
17260 Off ch=1 n=66 v=0
17260 Off ch=1 n=74 v=0
17280 On ch=1 n=62 v=72
17344 On ch=1 n=64 v=77
17345 Off ch=1 n=62 v=0
17382 Off ch=1 n=62 v=0
17408 On ch=1 n=61 v=88
17408 On ch=1 n=54 v=70
17408 On ch=1 n=57 v=70
17408 Off ch=1 n=57 v=0
17408 Off ch=1 n=47 v=0
17408 On ch=1 n=45 v=79
17409 Off ch=1 n=64 v=0
17651 Off ch=1 n=61 v=0
17664 On ch=1 n=78 v=126
17664 Off ch=1 n=45 v=0
17664 On ch=1 n=43 v=89
17792 On ch=1 n=66 v=95
17794 Off ch=1 n=78 v=0
17856 On ch=1 n=69 v=102
17857 Off ch=1 n=66 v=0
17894 Off ch=1 n=54 v=0
17894 Off ch=1 n=57 v=0
17920 On ch=1 n=64 v=82
17920 On ch=1 n=57 v=83
17920 On ch=1 n=61 v=83
17920 Off ch=1 n=43 v=0
17920 On ch=1 n=38 v=88
17921 Off ch=1 n=69 v=0
18406 Off ch=1 n=64 v=0
18406 Off ch=1 n=57 v=0
18406 Off ch=1 n=61 v=0
18432 On ch=1 n=66 v=76
18432 On ch=1 n=59 v=83
18432 On ch=1 n=62 v=83
18432 Off ch=1 n=38 v=0
18432 On ch=1 n=35 v=77
18432 On ch=1 n=47 v=77
18816 Off ch=1 n=66 v=0
18816 On ch=1 n=71 v=76
18880 On ch=1 n=69 v=72
18881 Off ch=1 n=71 v=0
18944 Off ch=1 n=59 v=0
18944 Off ch=1 n=62 v=0
18944 On ch=1 n=64 v=67
18944 On ch=1 n=56 v=76
18944 On ch=1 n=59 v=76
18944 Off ch=1 n=35 v=0
18944 Off ch=1 n=47 v=0
18944 On ch=1 n=40 v=76
18944 On ch=1 n=52 v=76
18945 Off ch=1 n=69 v=0
19187 Off ch=1 n=64 v=0
19200 On ch=1 n=64 v=69
19328 On ch=1 n=62 v=61
19330 Off ch=1 n=64 v=0
19430 Off ch=1 n=56 v=0
19430 Off ch=1 n=59 v=0
19456 On ch=1 n=61 v=64
19456 On ch=1 n=52 v=73
19456 On ch=1 n=57 v=73
19456 Off ch=1 n=40 v=0
19456 Off ch=1 n=52 v=0
19456 On ch=1 n=33 v=67
19456 On ch=1 n=45 v=67
19458 Off ch=1 n=62 v=0
19820 Off ch=1 n=61 v=0
19840 On ch=1 n=62 v=75
19904 On ch=1 n=64 v=77
19905 Off ch=1 n=62 v=0
19942 Off ch=1 n=52 v=0
19942 Off ch=1 n=57 v=0
19968 On ch=1 n=59 v=68
19968 On ch=1 n=50 v=74
19968 On ch=1 n=55 v=74
19968 Off ch=1 n=33 v=0
19968 Off ch=1 n=45 v=0
19968 On ch=1 n=31 v=69
19968 On ch=1 n=43 v=69
19969 Off ch=1 n=64 v=0
20454 Off ch=1 n=59 v=0
20454 Off ch=1 n=50 v=0
20454 Off ch=1 n=55 v=0
20480 On ch=1 n=74 v=88
20480 On ch=1 n=59 v=96
20480 On ch=1 n=62 v=96
20480 On ch=1 n=66 v=96
20480 Off ch=1 n=31 v=0
20480 Off ch=1 n=43 v=0
20480 On ch=1 n=35 v=73
20480 On ch=1 n=47 v=73
20864 Off ch=1 n=74 v=0
20864 Off ch=1 n=59 v=0
20864 Off ch=1 n=62 v=0
20864 Off ch=1 n=66 v=0
20864 On ch=1 n=71 v=73
20928 On ch=1 n=69 v=67
20929 Off ch=1 n=71 v=0
20992 On ch=1 n=64 v=64
20992 On ch=1 n=56 v=79
20992 On ch=1 n=59 v=79
20992 Off ch=1 n=35 v=0
20992 Off ch=1 n=47 v=0
20992 On ch=1 n=40 v=74
20992 On ch=1 n=52 v=74
20993 Off ch=1 n=69 v=0
21235 Off ch=1 n=64 v=0
21235 Off ch=1 n=56 v=0
21235 Off ch=1 n=59 v=0
21248 On ch=1 n=64 v=88
21376 On ch=1 n=76 v=67
21376 On ch=1 n=62 v=82
21378 Off ch=1 n=64 v=0
21504 On ch=1 n=73 v=62
21504 On ch=1 n=52 v=73
21504 On ch=1 n=57 v=73
21504 On ch=1 n=61 v=73
21504 Off ch=1 n=40 v=0
21504 Off ch=1 n=52 v=0
21504 On ch=1 n=33 v=64
21504 On ch=1 n=45 v=64
21506 Off ch=1 n=76 v=0
21506 Off ch=1 n=62 v=0
21747 Off ch=1 n=73 v=0
21760 On ch=1 n=74 v=73
21868 Off ch=1 n=52 v=0
21868 Off ch=1 n=57 v=0
21868 Off ch=1 n=61 v=0
21888 On ch=1 n=78 v=78
21888 On ch=1 n=62 v=74
21890 Off ch=1 n=74 v=0
21952 On ch=1 n=64 v=80
21954 Off ch=1 n=62 v=0
22016 On ch=1 n=71 v=58
22016 On ch=1 n=59 v=72
22016 Off ch=1 n=33 v=0
22016 Off ch=1 n=45 v=0
22016 On ch=1 n=50 v=82
22016 On ch=1 n=31 v=69
22018 Off ch=1 n=64 v=0
22020 Off ch=1 n=78 v=0
22028 On ch=1 n=55 v=82
22040 On ch=1 n=59 v=82
22477 Off ch=1 n=71 v=0
22477 Off ch=1 n=59 v=0
22528 Off ch=1 n=50 v=0
22528 Off ch=1 n=55 v=0
22528 Off ch=1 n=59 v=0
22528 Off ch=1 n=31 v=0
22529 Meta TrkEnd
TrkEnd