MFile 1 2 256
MTrk
0 TimeSig 4/4 24 8
0 KeySig 3 major
0 Tempo 833332
0 Meta TrkName "Wet Hands"
0 Meta Text "C418"
0 Meta Copyright "Copyright © C418"
13312 TimeSig 17/16 6 8
14400 TimeSig 4/4 24 8
14401 Meta TrkEnd
TrkEnd
MTrk
0 PrCh ch=1 p=0
0 Par ch=1 c=121 v=0
0 Par ch=1 c=64 v=0
0 Par ch=1 c=91 v=48
0 Par ch=1 c=10 v=51
0 Par ch=1 c=7 v=100
0 Par ch=1 c=121 v=0
0 Par ch=1 c=64 v=0
0 Par ch=1 c=91 v=48
0 Par ch=1 c=10 v=51
0 Par ch=1 c=7 v=100
0 Meta TrkName "Piano"
0 On ch=1 n=45 v=56
128 On ch=1 n=49 v=56
130 Off ch=1 n=45 v=0
256 On ch=1 n=57 v=69
258 Off ch=1 n=49 v=0
384 On ch=1 n=59 v=73
386 Off ch=1 n=57 v=0
512 On ch=1 n=61 v=64
514 Off ch=1 n=59 v=0
640 On ch=1 n=59 v=62
642 Off ch=1 n=61 v=0
768 On ch=1 n=57 v=62
770 Off ch=1 n=59 v=0
896 On ch=1 n=52 v=57
898 Off ch=1 n=57 v=0
1017 Off ch=1 n=52 v=0
1024 On ch=1 n=50 v=59
1152 On ch=1 n=54 v=61
1154 Off ch=1 n=50 v=0
1280 On ch=1 n=61 v=73
1282 Off ch=1 n=54 v=0
1408 On ch=1 n=64 v=81
1410 Off ch=1 n=61 v=0
1536 On ch=1 n=61 v=55
1538 Off ch=1 n=64 v=0
1664 On ch=1 n=57 v=53
1666 Off ch=1 n=61 v=0
2028 Off ch=1 n=57 v=0
2048 On ch=1 n=45 v=51
2176 On ch=1 n=49 v=55
2178 Off ch=1 n=45 v=0
2304 On ch=1 n=57 v=67
2306 Off ch=1 n=49 v=0
2432 On ch=1 n=59 v=74
2434 Off ch=1 n=57 v=0
2560 On ch=1 n=61 v=64
2562 Off ch=1 n=59 v=0
2688 On ch=1 n=59 v=58
2690 Off ch=1 n=61 v=0
2816 On ch=1 n=57 v=62
2818 Off ch=1 n=59 v=0
2944 On ch=1 n=52 v=59
2946 Off ch=1 n=57 v=0
3065 Off ch=1 n=52 v=0
3072 On ch=1 n=50 v=58
3200 On ch=1 n=54 v=62
3202 Off ch=1 n=50 v=0
3328 On ch=1 n=61 v=72
3330 Off ch=1 n=54 v=0
3456 On ch=1 n=64 v=82
3458 Off ch=1 n=61 v=0
3584 On ch=1 n=61 v=53
3586 Off ch=1 n=64 v=0
3712 On ch=1 n=57 v=50
3714 Off ch=1 n=61 v=0
4076 Off ch=1 n=57 v=0
4096 On ch=1 n=68 v=49
4096 On ch=1 n=45 v=52
4224 On ch=1 n=49 v=56
4226 Off ch=1 n=45 v=0
4352 On ch=1 n=57 v=66
4354 Off ch=1 n=49 v=0
4480 On ch=1 n=59 v=66
4482 Off ch=1 n=57 v=0
4608 On ch=1 n=61 v=70
4610 Off ch=1 n=59 v=0
4736 On ch=1 n=59 v=68
4738 Off ch=1 n=61 v=0
4864 Off ch=1 n=68 v=0
4864 On ch=1 n=69 v=63
4864 On ch=1 n=57 v=53
4866 Off ch=1 n=59 v=0
4992 On ch=1 n=52 v=48
4994 Off ch=1 n=57 v=0
5113 Off ch=1 n=52 v=0
5120 Off ch=1 n=69 v=0
5120 On ch=1 n=66 v=78
5120 On ch=1 n=50 v=80
5248 On ch=1 n=54 v=85
5250 Off ch=1 n=50 v=0
5376 On ch=1 n=61 v=98
5378 Off ch=1 n=54 v=0
5504 On ch=1 n=64 v=110
5506 Off ch=1 n=61 v=0
5632 On ch=1 n=61 v=81
5634 Off ch=1 n=64 v=0
5760 On ch=1 n=57 v=73
5762 Off ch=1 n=61 v=0
5888 Off ch=1 n=66 v=0
5888 On ch=1 n=64 v=78
6016 Off ch=1 n=64 v=0
6016 On ch=1 n=66 v=87
6124 Off ch=1 n=57 v=0
6144 Off ch=1 n=66 v=0
6144 On ch=1 n=68 v=92
6144 On ch=1 n=45 v=72
6272 On ch=1 n=49 v=74
6274 Off ch=1 n=45 v=0
6400 On ch=1 n=57 v=88
6402 Off ch=1 n=49 v=0
6528 On ch=1 n=59 v=93
6530 Off ch=1 n=57 v=0
6656 On ch=1 n=61 v=92
6658 Off ch=1 n=59 v=0
6784 On ch=1 n=59 v=90
6786 Off ch=1 n=61 v=0
6912 Off ch=1 n=68 v=0
6912 On ch=1 n=71 v=95
6912 On ch=1 n=57 v=85
6914 Off ch=1 n=59 v=0
7040 Off ch=1 n=71 v=0
7040 On ch=1 n=73 v=89
7040 On ch=1 n=52 v=81
7042 Off ch=1 n=57 v=0
7161 Off ch=1 n=52 v=0
7168 Off ch=1 n=73 v=0
7168 On ch=1 n=50 v=79
7296 On ch=1 n=66 v=72
7296 On ch=1 n=54 v=85
7298 Off ch=1 n=50 v=0
7424 On ch=1 n=61 v=98
7426 Off ch=1 n=54 v=0
7552 On ch=1 n=64 v=108
7554 Off ch=1 n=61 v=0
7680 On ch=1 n=61 v=79
7682 Off ch=1 n=64 v=0
7808 On ch=1 n=57 v=70
7810 Off ch=1 n=61 v=0
7929 Off ch=1 n=57 v=0
7936 Off ch=1 n=66 v=0
7936 On ch=1 n=73 v=104
8064 Off ch=1 n=73 v=0
8064 On ch=1 n=76 v=93
8192 Off ch=1 n=76 v=0
8192 On ch=1 n=79 v=96
8192 On ch=1 n=43 v=74
8320 On ch=1 n=47 v=78
8322 Off ch=1 n=43 v=0
8448 On ch=1 n=50 v=87
8450 Off ch=1 n=47 v=0
8576 Off ch=1 n=79 v=0
8576 On ch=1 n=78 v=81
8576 On ch=1 n=54 v=88
8578 Off ch=1 n=50 v=0
8704 Off ch=1 n=78 v=0
8704 On ch=1 n=74 v=75
8704 On ch=1 n=57 v=85
8706 Off ch=1 n=54 v=0
8832 On ch=1 n=54 v=80
8834 Off ch=1 n=57 v=0
8960 Off ch=1 n=74 v=0
8960 On ch=1 n=69 v=72
8960 On ch=1 n=50 v=76
8962 Off ch=1 n=54 v=0
9088 Off ch=1 n=69 v=0
9088 On ch=1 n=71 v=87
9088 On ch=1 n=47 v=74
9090 Off ch=1 n=50 v=0
9209 Off ch=1 n=47 v=0
9216 On ch=1 n=43 v=80
9344 On ch=1 n=47 v=88
9346 Off ch=1 n=43 v=0
9472 On ch=1 n=50 v=89
9474 Off ch=1 n=47 v=0
9600 On ch=1 n=54 v=92
9602 Off ch=1 n=50 v=0
9728 On ch=1 n=57 v=95
9730 Off ch=1 n=54 v=0
10214 Off ch=1 n=57 v=0
10240 Off ch=1 n=71 v=0
10240 On ch=1 n=79 v=119
10240 On ch=1 n=43 v=86
10368 On ch=1 n=47 v=93
10370 Off ch=1 n=43 v=0
10496 Off ch=1 n=79 v=0
10496 On ch=1 n=78 v=95
10496 On ch=1 n=50 v=102
10498 Off ch=1 n=47 v=0
10624 On ch=1 n=54 v=100
10626 Off ch=1 n=50 v=0
10752 Off ch=1 n=78 v=0
10752 On ch=1 n=74 v=92
10752 On ch=1 n=57 v=104
10754 Off ch=1 n=54 v=0
10880 On ch=1 n=54 v=101
10882 Off ch=1 n=57 v=0
11008 Off ch=1 n=74 v=0
11008 On ch=1 n=69 v=83
11008 On ch=1 n=50 v=93
11010 Off ch=1 n=54 v=0
11136 Off ch=1 n=69 v=0
11136 On ch=1 n=71 v=98
11136 On ch=1 n=47 v=94
11138 Off ch=1 n=50 v=0
11257 Off ch=1 n=47 v=0
11264 On ch=1 n=43 v=95
11392 On ch=1 n=47 v=103
11394 Off ch=1 n=43 v=0
11520 On ch=1 n=50 v=101
11522 Off ch=1 n=47 v=0
11648 On ch=1 n=54 v=108
11650 Off ch=1 n=50 v=0
11776 On ch=1 n=57 v=103
11778 Off ch=1 n=54 v=0
12032 Off ch=1 n=71 v=0
12032 On ch=1 n=69 v=91
12262 Off ch=1 n=57 v=0
12288 Off ch=1 n=69 v=0
12288 On ch=1 n=64 v=81
12288 On ch=1 n=45 v=83
12416 On ch=1 n=49 v=84
12418 Off ch=1 n=45 v=0
12544 Off ch=1 n=64 v=0
12544 On ch=1 n=57 v=86
12544 On ch=1 n=57 v=109
12546 Off ch=1 n=49 v=0
12672 On ch=1 n=59 v=118
12674 Off ch=1 n=57 v=0
12800 Off ch=1 n=57 v=0
12800 On ch=1 n=61 v=105
12802 Off ch=1 n=59 v=0
12928 On ch=1 n=59 v=100
12930 Off ch=1 n=61 v=0
13056 On ch=1 n=57 v=91
13058 Off ch=1 n=59 v=0
13184 On ch=1 n=52 v=83
13186 Off ch=1 n=57 v=0
13305 Off ch=1 n=52 v=0
13312 On ch=1 n=45 v=88
13440 On ch=1 n=49 v=88
13442 Off ch=1 n=45 v=0
13568 On ch=1 n=52 v=107
13570 Off ch=1 n=49 v=0
13696 On ch=1 n=59 v=119
13698 Off ch=1 n=52 v=0
13824 On ch=1 n=61 v=106
13826 Off ch=1 n=59 v=0
13952 On ch=1 n=64 v=113
13954 Off ch=1 n=61 v=0
14080 On ch=1 n=69 v=121
14082 Off ch=1 n=64 v=0
14208 On ch=1 n=73 v=127
14210 Off ch=1 n=69 v=0
14390 Off ch=1 n=73 v=0
14400 On ch=1 n=66 v=91
14400 On ch=1 n=71 v=91
14400 On ch=1 n=74 v=91
14400 On ch=1 n=47 v=81
14528 On ch=1 n=50 v=87
14530 Off ch=1 n=47 v=0
14656 On ch=1 n=54 v=105
14658 Off ch=1 n=50 v=0
14784 Off ch=1 n=66 v=0
14784 Off ch=1 n=71 v=0
14784 Off ch=1 n=74 v=0
14784 On ch=1 n=73 v=97
14784 On ch=1 n=57 v=108
14786 Off ch=1 n=54 v=0
14912 Off ch=1 n=73 v=0
14912 On ch=1 n=66 v=84
14912 On ch=1 n=69 v=84
14912 On ch=1 n=61 v=112
14914 Off ch=1 n=57 v=0
15168 Off ch=1 n=66 v=0
15168 Off ch=1 n=69 v=0
15168 On ch=1 n=64 v=120
15168 On ch=1 n=76 v=120
15296 Off ch=1 n=64 v=0
15296 Off ch=1 n=76 v=0
15296 On ch=1 n=66 v=105
15296 On ch=1 n=78 v=105
15398 Off ch=1 n=61 v=0
15424 Off ch=1 n=66 v=0
15424 Off ch=1 n=78 v=0
15424 On ch=1 n=47 v=84
15552 On ch=1 n=74 v=88
15552 On ch=1 n=50 v=85
15554 Off ch=1 n=47 v=0
15680 On ch=1 n=54 v=108
15682 Off ch=1 n=50 v=0
15808 On ch=1 n=57 v=115
15810 Off ch=1 n=54 v=0
15936 On ch=1 n=61 v=106
15938 Off ch=1 n=57 v=0
16192 Off ch=1 n=74 v=0
16192 On ch=1 n=71 v=88
16320 Off ch=1 n=71 v=0
16320 On ch=1 n=73 v=101
16422 Off ch=1 n=61 v=0
16448 Off ch=1 n=73 v=0
16448 On ch=1 n=74 v=102
16448 On ch=1 n=43 v=86
16576 Off ch=1 n=43 v=0
16576 On ch=1 n=47 v=100
16704 Off ch=1 n=74 v=0
16704 On ch=1 n=73 v=92
16704 Off ch=1 n=47 v=0
16704 On ch=1 n=50 v=96
16832 Off ch=1 n=73 v=0
16832 On ch=1 n=74 v=102
16832 Off ch=1 n=50 v=0
16832 On ch=1 n=55 v=102
16960 Off ch=1 n=55 v=0
16960 On ch=1 n=57 v=105
17088 Off ch=1 n=74 v=0
17088 On ch=1 n=78 v=111
17472 Off ch=1 n=78 v=0
17472 On ch=1 n=73 v=62
17472 On ch=1 n=64 v=74
17472 Off ch=1 n=57 v=0
17472 On ch=1 n=45 v=65
17472 On ch=1 n=52 v=65
18240 Off ch=1 n=73 v=0
18240 Off ch=1 n=64 v=0
18240 On ch=1 n=71 v=68
18240 On ch=1 n=59 v=78
18368 Off ch=1 n=59 v=0
18368 On ch=1 n=57 v=83
18496 Off ch=1 n=71 v=0
18496 Off ch=1 n=57 v=0
18496 On ch=1 n=52 v=62
18496 On ch=1 n=56 v=62
18496 On ch=1 n=59 v=62
18496 Off ch=1 n=45 v=0
18496 Off ch=1 n=52 v=0
18496 On ch=1 n=40 v=60
18624 On ch=1 n=44 v=58
18626 Off ch=1 n=40 v=0
18752 On ch=1 n=47 v=73
18754 Off ch=1 n=44 v=0
18880 On ch=1 n=52 v=74
18882 Off ch=1 n=47 v=0
19008 On ch=1 n=56 v=79
19010 Off ch=1 n=52 v=0
19136 On ch=1 n=52 v=75
19138 Off ch=1 n=56 v=0
19264 On ch=1 n=47 v=64
19266 Off ch=1 n=52 v=0
19392 On ch=1 n=44 v=60
19394 Off ch=1 n=47 v=0
19513 Off ch=1 n=44 v=0
19520 Off ch=1 n=52 v=0
19520 Off ch=1 n=56 v=0
19520 Off ch=1 n=59 v=0
19520 On ch=1 n=52 v=64
19520 On ch=1 n=40 v=67
19648 On ch=1 n=44 v=72
19650 Off ch=1 n=40 v=0
19776 On ch=1 n=47 v=75
19778 Off ch=1 n=44 v=0
19904 On ch=1 n=52 v=82
19906 Off ch=1 n=47 v=0
20032 On ch=1 n=56 v=76
20034 Off ch=1 n=52 v=0
20160 On ch=1 n=52 v=74
20162 Off ch=1 n=56 v=0
20288 On ch=1 n=45 v=69
20290 Off ch=1 n=52 v=0
20531 Off ch=1 n=45 v=0
20544 Off ch=1 n=52 v=0
20544 On ch=1 n=79 v=74
20544 On ch=1 n=43 v=59
20672 On ch=1 n=78 v=71
20672 On ch=1 n=47 v=61
20674 Off ch=1 n=79 v=0
20674 Off ch=1 n=43 v=0
20800 On ch=1 n=76 v=57
20800 On ch=1 n=50 v=68
20802 Off ch=1 n=78 v=0
20802 Off ch=1 n=47 v=0
20928 On ch=1 n=74 v=53
20928 On ch=1 n=54 v=71
20930 Off ch=1 n=76 v=0
20930 Off ch=1 n=50 v=0
21056 On ch=1 n=76 v=67
21056 On ch=1 n=57 v=64
21058 Off ch=1 n=74 v=0
21058 Off ch=1 n=54 v=0
21184 On ch=1 n=74 v=65
21184 On ch=1 n=54 v=60
21186 Off ch=1 n=76 v=0
21186 Off ch=1 n=57 v=0
21312 On ch=1 n=76 v=62
21312 On ch=1 n=50 v=56
21314 Off ch=1 n=74 v=0
21314 Off ch=1 n=54 v=0
21440 On ch=1 n=78 v=72
21440 On ch=1 n=47 v=57
21442 Off ch=1 n=76 v=0
21442 Off ch=1 n=50 v=0
21561 Off ch=1 n=78 v=0
21561 Off ch=1 n=47 v=0
21568 On ch=1 n=45 v=55
21696 On ch=1 n=76 v=53
21696 On ch=1 n=49 v=54
21698 Off ch=1 n=45 v=0
21824 On ch=1 n=52 v=63
21826 Off ch=1 n=49 v=0
21952 On ch=1 n=57 v=66
21954 Off ch=1 n=52 v=0
22080 On ch=1 n=81 v=58
22080 On ch=1 n=61 v=69
22082 Off ch=1 n=57 v=0
22208 On ch=1 n=59 v=68
22210 Off ch=1 n=61 v=0
22336 On ch=1 n=57 v=63
22338 Off ch=1 n=59 v=0
22464 On ch=1 n=52 v=59
22466 Off ch=1 n=57 v=0
22585 Off ch=1 n=52 v=0
22592 Off ch=1 n=76 v=0
22592 Off ch=1 n=81 v=0
22592 On ch=1 n=80 v=60
22592 On ch=1 n=40 v=52
22720 On ch=1 n=76 v=54
22720 On ch=1 n=44 v=57
22722 Off ch=1 n=80 v=0
22722 Off ch=1 n=40 v=0
22848 On ch=1 n=71 v=52
22848 On ch=1 n=47 v=62
22850 Off ch=1 n=76 v=0
22850 Off ch=1 n=44 v=0
22976 On ch=1 n=68 v=46
22976 On ch=1 n=52 v=62
22978 Off ch=1 n=71 v=0
22978 Off ch=1 n=47 v=0
23104 On ch=1 n=64 v=57
23104 On ch=1 n=56 v=68
23106 Off ch=1 n=68 v=0
23106 Off ch=1 n=52 v=0
23590 Off ch=1 n=64 v=0
23590 Off ch=1 n=56 v=0
23616 On ch=1 n=71 v=67
23616 On ch=1 n=40 v=55
23744 On ch=1 n=68 v=65
23744 On ch=1 n=44 v=57
23746 Off ch=1 n=71 v=0
23746 Off ch=1 n=40 v=0
23872 On ch=1 n=64 v=53
23872 On ch=1 n=47 v=64
23874 Off ch=1 n=68 v=0
23874 Off ch=1 n=44 v=0
24000 On ch=1 n=59 v=46
24000 On ch=1 n=52 v=69
24002 Off ch=1 n=64 v=0
24002 Off ch=1 n=47 v=0
24128 On ch=1 n=56 v=55
24128 On ch=1 n=56 v=67
24130 Off ch=1 n=59 v=0
24130 Off ch=1 n=52 v=0
24614 Off ch=1 n=56 v=0
24614 Off ch=1 n=56 v=0
24640 On ch=1 n=52 v=37
24640 On ch=1 n=40 v=32
24768 Off ch=1 n=52 v=0
24768 On ch=1 n=56 v=42
24896 Off ch=1 n=56 v=0
24896 On ch=1 n=59 v=41
25024 Off ch=1 n=59 v=0
25024 On ch=1 n=64 v=43
25152 Off ch=1 n=64 v=0
25152 On ch=1 n=59 v=38
25280 Off ch=1 n=59 v=0
25280 On ch=1 n=56 v=35
25664 Off ch=1 n=56 v=0
25664 On ch=1 n=52 v=26
25792 Off ch=1 n=52 v=0
25792 On ch=1 n=56 v=29
25920 Off ch=1 n=56 v=0
25920 On ch=1 n=59 v=25
26048 Off ch=1 n=59 v=0
26048 On ch=1 n=64 v=29
26176 Off ch=1 n=64 v=0
26176 On ch=1 n=59 v=19
26304 Off ch=1 n=59 v=0
26304 On ch=1 n=56 v=22
26688 Off ch=1 n=56 v=0
26688 Off ch=1 n=40 v=0
26689 Meta TrkEnd
TrkEnd